<svg width="37" height="37" viewBox="0 0 37 37" fill="none" xmlns="http://www.w3.org/2000/svg">
<path d="M16.6498 5.08745C16.6498 4.31854 17.2684 3.69995 18.0373 3.69995C26.4664 3.69995 33.2998 10.5334 33.2998 18.9625C33.2998 19.7314 32.6812 20.35 31.9123 20.35C31.1434 20.35 30.5248 19.7314 30.5248 18.9625C30.5248 12.0654 24.9343 6.47495 18.0373 6.47495C17.2684 6.47495 16.6498 5.85636 16.6498 5.08745ZM8.3248 9.24995C9.85684 9.24995 11.0998 10.4929 11.0998 12.025V24.975C11.0998 26.507 12.3428 27.75 13.8748 27.75C15.4068 27.75 16.6498 26.507 16.6498 24.975C16.6498 23.4429 15.4068 22.2 13.8748 22.2C13.3661 22.2 12.9498 21.7837 12.9498 21.275V17.575C12.9498 17.0662 13.3661 16.65 13.8748 16.65C18.4709 16.65 22.1998 20.3789 22.1998 24.975C22.1998 29.571 18.4709 33.3 13.8748 33.3C9.27871 33.3 5.5498 29.571 5.5498 24.975V12.025C5.5498 10.4929 6.79277 9.24995 8.3248 9.24995ZM18.0373 9.24995C23.4023 9.24995 27.7498 13.5975 27.7498 18.9625C27.7498 19.7314 27.1312 20.35 26.3623 20.35C25.5934 20.35 24.9748 19.7314 24.9748 18.9625C24.9748 15.1295 21.8703 12.025 18.0373 12.025C17.2684 12.025 16.6498 11.4064 16.6498 10.6375C16.6498 9.86855 17.2684 9.24995 18.0373 9.24995Z" fill="#8BCC6A"/>
</svg>
