<svg width="37" height="37" viewBox="0 0 37 37" fill="none" xmlns="http://www.w3.org/2000/svg">
<path d="M16.65 5.08751C16.65 4.31861 17.2686 3.70001 18.0375 3.70001C26.4666 3.70001 33.3 10.5334 33.3 18.9625C33.3 19.7314 32.6815 20.35 31.9125 20.35C31.1436 20.35 30.525 19.7314 30.525 18.9625C30.525 12.0655 24.9346 6.47501 18.0375 6.47501C17.2686 6.47501 16.65 5.85642 16.65 5.08751ZM8.32505 9.25001C9.85708 9.25001 11.1 10.493 11.1 12.025V24.975C11.1 26.507 12.343 27.75 13.875 27.75C15.4071 27.75 16.65 26.507 16.65 24.975C16.65 23.443 15.4071 22.2 13.875 22.2C13.3663 22.2 12.95 21.7838 12.95 21.275V17.575C12.95 17.0663 13.3663 16.65 13.875 16.65C18.4711 16.65 22.2 20.3789 22.2 24.975C22.2 29.5711 18.4711 33.3 13.875 33.3C9.27896 33.3 5.55005 29.5711 5.55005 24.975V12.025C5.55005 10.493 6.79302 9.25001 8.32505 9.25001ZM18.0375 9.25001C23.4025 9.25001 27.75 13.5975 27.75 18.9625C27.75 19.7314 27.1315 20.35 26.3625 20.35C25.5936 20.35 24.975 19.7314 24.975 18.9625C24.975 15.1295 21.8705 12.025 18.0375 12.025C17.2686 12.025 16.65 11.4064 16.65 10.6375C16.65 9.86861 17.2686 9.25001 18.0375 9.25001Z" fill="black"/>
</svg>
