<svg width="33" height="33" viewBox="0 0 33 33" fill="none" xmlns="http://www.w3.org/2000/svg">
<g clip-path="url(#clip0_34_1334)">
<path d="M6.93 10.56C3.12147 10.56 0 13.6719 0 17.4702C0 18.942 0.46992 20.3099 1.26555 21.4342L6.08454 29.7647C6.75939 30.6464 7.20819 30.4791 7.76952 29.7185L13.0845 20.6732C13.1918 20.4785 13.2759 20.2719 13.3495 20.0607C13.6865 19.2386 13.8599 18.3587 13.86 17.4702C13.86 13.6719 10.7395 10.56 6.93 10.56ZM6.93 13.798C8.98128 13.798 10.6128 15.4252 10.6128 17.4705C10.6128 19.5159 8.98095 21.1424 6.93 21.1424C4.87905 21.1424 3.2472 19.5155 3.2472 17.4705C3.2472 15.4255 4.87938 13.798 6.93 13.798ZM28.9575 0C26.7359 0 24.915 1.81533 24.915 4.03128C24.915 4.88961 25.1889 5.68755 25.6532 6.34326L28.4645 11.2028C28.8582 11.717 29.1199 11.6193 29.4472 11.1758L32.5476 5.89908C32.6103 5.78589 32.6594 5.66544 32.702 5.54202C32.8992 5.06279 33.0005 4.54951 33 4.03128C33 1.815 31.1797 0 28.9575 0ZM28.9575 1.88892C30.1541 1.88892 31.1058 2.838 31.1058 4.03128C31.1058 5.22456 30.1541 6.17298 28.9575 6.17298C27.7609 6.17298 26.8092 5.22423 26.8092 4.03128C26.8092 2.83833 27.7613 1.88892 28.9575 1.88892Z" fill="black"/>
<path fill-rule="evenodd" clip-rule="evenodd" d="M29.109 12.3459C28.3675 12.3624 27.624 12.3938 26.8792 12.4489L26.994 14.2745C27.7095 14.2226 28.4261 14.1893 29.1433 14.1745L29.109 12.3459ZM25.1572 12.6165C24.0121 12.7588 22.8571 12.9614 21.7153 13.2871L22.1453 15.0562C23.1828 14.7606 24.258 14.5695 25.3499 14.4339L25.1572 12.6165ZM20.0056 13.8996C19.6635 14.0506 19.3322 14.2251 19.0143 14.422L19.013 14.4236L19.011 14.4243C18.5572 14.7101 18.0791 15.0727 17.6887 15.5997C17.4059 15.9816 17.1745 16.4643 17.1204 17.0352L18.8018 17.2217C18.8143 17.0877 18.8829 16.9108 19.0064 16.7445C19.2053 16.4752 19.5043 16.23 19.8591 16.0063L19.8604 16.0056C20.1134 15.8499 20.3767 15.7114 20.6484 15.5912L20.0056 13.8996ZM19.14 18.0361L18.05 19.4337C18.3084 19.67 18.5793 19.8515 18.841 20.0033L18.8443 20.0049L18.8476 20.0069C19.7162 20.5009 20.6118 20.7798 21.4421 21.0444L21.9193 19.2895C21.0893 19.0248 20.3069 18.7694 19.6363 18.3886C19.4443 18.277 19.276 18.1605 19.14 18.0361ZM23.5406 19.7832L23.0746 21.5411L23.295 21.6097L23.5656 21.6962C24.4613 21.9876 25.3193 22.2987 26.0862 22.7294L26.8643 21.1058C25.937 20.5847 24.9744 20.2442 24.0468 19.9425L24.0441 19.9419L23.7663 19.8531L23.5406 19.7832ZM28.4467 22.3242L27.2511 23.6178C27.5336 23.9237 27.7451 24.2916 27.848 24.6718L27.8487 24.6738L27.8494 24.6767C27.9721 25.1206 27.9725 25.6426 27.8764 26.17L29.5343 26.5237C29.6696 25.7793 29.6914 24.9618 29.469 24.155C29.2753 23.4415 28.9057 22.8218 28.4467 22.3242ZM27.2976 27.2722C27.1147 27.4649 26.9128 27.6387 26.695 27.7909C26.101 28.2087 25.4113 28.5235 24.6794 28.7941L25.2252 30.5247C26.0258 30.2286 26.8478 29.8656 27.6161 29.3251L27.618 29.3235C27.9335 29.1024 28.2263 28.8489 28.4899 28.5681L27.2976 27.2722ZM23.1264 29.2815C22.0661 29.5667 20.9824 29.7838 19.8855 29.9679L20.1442 31.776C21.2731 31.5863 22.4067 31.3596 23.5333 31.0566L23.1264 29.2815ZM18.2351 30.2174C17.131 30.3682 16.0208 30.4913 14.9074 30.5963L15.0533 32.4185C16.1839 32.3123 17.3164 32.1872 18.4473 32.0324L18.2351 30.2174ZM13.234 30.7398C12.1183 30.8283 10.9999 30.9002 9.88054 30.9609L9.96502 32.7878C11.0953 32.7267 12.2265 32.6538 13.3574 32.5641L13.234 30.7398ZM8.19853 31.0434C7.52764 31.0748 6.8551 31.1005 6.18091 31.1243L6.23635 32.9528C6.91475 32.9295 7.59302 32.9024 8.27113 32.8716L8.19853 31.0434Z" fill="black"/>
</g>
<defs>
<clipPath id="clip0_34_1334">
<rect width="33" height="33" fill="white"/>
</clipPath>
</defs>
</svg>
