<svg width="32" height="30" viewBox="0 0 32 30" fill="none" xmlns="http://www.w3.org/2000/svg">
<path d="M0.8 0C0.587827 0 0.384344 0.103601 0.234315 0.288012C0.0842855 0.472422 0 0.722537 0 0.983333L0 28.5167C0 28.7775 0.0842855 29.0276 0.234315 29.212C0.384344 29.3964 0.587827 29.5 0.8 29.5H31.2C31.4122 29.5 31.6157 29.3964 31.7657 29.212C31.9157 29.0276 32 28.7775 32 28.5167V0.983333C32 0.722537 31.9157 0.472422 31.7657 0.288012C31.6157 0.103601 31.4122 0 31.2 0H0.8ZM30.5562 1.76607V1.77H12.7213C13.1018 1.91593 13.2269 2.12793 13.4736 2.34073C13.5722 2.42254 13.592 2.52481 13.5184 2.56296C13.4928 2.57594 13.5094 2.58853 13.5549 2.59049C13.6246 2.59364 13.6381 2.61999 13.6381 2.75805C13.6381 2.87251 13.6221 2.92247 13.583 2.92247C13.5446 2.92247 13.5274 2.97163 13.5274 3.08295C13.5274 3.17105 13.5066 3.25365 13.4813 3.26663C13.4445 3.28551 13.4445 3.29102 13.4813 3.29417C13.5488 3.29967 13.5405 3.61041 13.4717 3.64384C13.3936 3.68199 13.4035 3.75161 13.4909 3.78033C13.5677 3.80589 13.5907 3.92861 13.528 3.97778C13.5082 3.99351 13.4598 3.98407 13.4202 3.95733C13.369 3.92271 13.3402 3.92271 13.3232 3.95811C13.3098 3.98565 13.3334 4.01987 13.3763 4.03403C13.4262 4.05055 13.4538 4.09775 13.4538 4.16697C13.4538 4.307 13.289 4.36836 13.1968 4.26216C13.1392 4.19529 13.127 4.19765 13.0656 4.28379C12.9994 4.37662 13.0006 4.37819 13.1062 4.35184C13.2547 4.31526 13.3571 4.41477 13.3155 4.55716L13.2845 4.66454L13.1805 4.54261C13.0163 4.34909 13.0205 4.4486 13.1856 4.65864C13.2672 4.76248 13.3309 4.84665 13.3264 4.84665C13.3219 4.84665 13.3296 4.9442 13.3437 5.06338L13.3693 5.27971L13.2269 5.25533C13.1462 5.24156 13.0934 5.24982 13.1053 5.27381C13.1165 5.29741 13.1667 5.31708 13.2163 5.31708C13.2659 5.31708 13.3053 5.34304 13.3043 5.37529C13.3011 5.48779 12.9555 5.81661 12.752 5.90079C12.4608 6.02154 12.4448 6.03491 12.375 6.21939C12.2963 6.42785 12.1552 6.5726 11.992 6.61154C11.9206 6.62845 11.8662 6.66975 11.8662 6.70673C11.8662 6.74252 11.8534 6.77202 11.8381 6.77202C11.8227 6.77202 11.8064 6.84951 11.8013 6.94391C11.7958 7.03831 11.7747 7.14057 11.7549 7.17125C11.735 7.20193 11.7296 7.23969 11.743 7.25661C11.7565 7.27352 11.7398 7.28807 11.7069 7.28807C11.6685 7.28807 11.6547 7.31364 11.6682 7.35809C11.6797 7.39663 11.6691 7.53351 11.6445 7.66292C11.6042 7.87689 11.5907 7.89813 11.4957 7.89813C11.4224 7.89813 11.3837 7.86981 11.3667 7.80216C11.3504 7.73529 11.3165 7.70973 11.2595 7.71917C11.235 7.72198 11.2102 7.71832 11.1869 7.70841C11.1637 7.69851 11.1424 7.68259 11.1245 7.66174C11.0502 7.56026 10.8742 7.10321 10.8451 6.93643C10.8286 6.8497 10.8022 6.76627 10.7667 6.68863C10.6394 6.43808 10.6854 5.82094 10.8355 5.77099C10.8739 5.75801 10.9024 5.68839 10.912 5.58415C10.9248 5.44295 10.9152 5.41502 10.848 5.3985C10.7866 5.38355 10.7722 5.39771 10.7856 5.46301C10.8109 5.58573 10.6339 5.63411 10.5501 5.52751C10.4909 5.45199 10.4912 5.43783 10.5568 5.28325C10.6211 5.13143 10.6368 5.12199 10.7638 5.14323L10.9018 5.16565L10.8122 5.06102C10.7626 5.0032 10.7302 4.94145 10.7402 4.92453C10.7498 4.90723 10.7382 4.91431 10.7136 4.94027C10.6522 5.00713 10.5376 5.00005 10.5325 4.92965C10.5238 4.81047 10.5453 4.68106 10.583 4.62245C10.6102 4.58037 10.6106 4.53081 10.583 4.45804C10.5328 4.32431 10.4262 3.88377 10.4262 3.80904C10.4262 3.77718 10.4006 3.71582 10.3693 3.67216C10.3343 3.61745 10.3096 3.55392 10.297 3.48611C10.2778 3.35828 10.2957 3.37952 10.1005 3.25405L9.94112 3.15178L9.81504 3.24618C9.71104 3.32485 9.67008 3.33232 9.5776 3.29102C9.46016 3.2391 9.37344 3.09514 9.41184 3.01608C9.42432 2.99091 9.39136 2.94921 9.33952 2.92404C9.22112 2.86661 9.21888 2.76789 9.33376 2.65264L9.42336 2.56453L9.29856 2.47918C9.09184 2.33758 9.008 1.98791 9.64064 1.77H1.44V1.76764L30.5562 1.76607ZM8.57696 2.08073C8.73696 2.06736 8.8768 2.28369 8.86624 2.32381C8.85792 2.35607 8.81376 2.38911 8.768 2.39776C8.71339 2.40825 8.6928 2.43618 8.70624 2.48154C8.71744 2.51851 8.6976 2.58774 8.6624 2.63415C8.584 2.73917 8.56544 2.83279 8.62624 2.81705C8.6512 2.81076 8.67648 2.85049 8.6832 2.90555C8.69184 2.97753 8.65984 3.03339 8.56864 3.10537C8.424 3.21904 8.35264 3.23241 8.37984 3.14116C8.39392 3.09553 8.3632 3.07941 8.26784 3.08295C8.19616 3.08531 8.1376 3.1034 8.1376 3.12346C8.1376 3.14391 8.05536 3.14706 7.9552 3.12975C7.816 3.10615 7.7584 3.11638 7.71552 3.17066C7.66528 3.23438 7.67328 3.25011 7.78912 3.32013C7.9104 3.39329 7.93088 3.39329 8.10368 3.32013C8.25472 3.25641 8.30848 3.25247 8.39488 3.2981C8.5184 3.363 8.56288 3.46999 8.50304 3.56163C8.49097 3.58441 8.48272 3.60992 8.47876 3.63666C8.47481 3.66341 8.47523 3.69085 8.48 3.71739C8.49024 3.76735 8.47808 3.81809 8.45312 3.83028C8.39328 3.85978 7.69696 3.85703 7.60256 3.82713H7.60192C7.47424 3.78701 7.43616 3.71543 7.43552 3.51522C7.43488 3.19859 7.40352 3.10655 7.30688 3.13762C7.24288 3.15768 7.2048 3.13133 7.14496 3.02434C7.02784 2.81509 7.04192 2.73485 7.19552 2.73485C7.28384 2.73485 7.3392 2.76395 7.36992 2.82728C7.39979 2.88838 7.44064 2.91067 7.49248 2.89415C7.51547 2.8869 7.53966 2.88787 7.56222 2.89692C7.58477 2.90598 7.60476 2.92276 7.61984 2.94528C7.66464 3.01333 7.6752 3.00703 7.71744 2.87841C7.74368 2.79975 7.78912 2.73485 7.81952 2.73485C7.86752 2.73485 7.86816 2.71833 7.82176 2.60505C7.79296 2.53425 7.76896 2.46345 7.76864 2.44693C7.76864 2.43041 7.85024 2.24711 7.95072 2.20542C8.0656 2.15783 8.30848 2.14013 8.50752 2.10119C8.52961 2.08971 8.55305 2.08267 8.57696 2.08034M5.80192 2.18615C5.96192 2.183 6.06976 2.28251 6.04736 2.29431C6.02496 2.30611 6.01504 2.36708 6.02432 2.43041C6.03808 2.52166 6.02112 2.55431 5.9424 2.59246C5.81632 2.65343 5.82336 2.65539 5.76672 2.55549C5.73806 2.50554 5.69936 2.46556 5.6544 2.43945C5.61888 2.42254 5.59008 2.38006 5.59008 2.34505C5.59008 2.29825 5.64192 2.1889 5.80192 2.18615ZM6.76864 2.21211C6.94208 2.20149 7.00224 2.31595 6.90944 2.39029C6.83328 2.45125 6.66496 2.44614 6.6224 2.38124C6.57184 2.30336 6.59552 2.22273 6.76864 2.21211ZM7.12736 2.21447C7.2608 2.21447 7.29184 2.27937 7.27488 2.33483C7.26101 2.38203 7.27605 2.40563 7.32 2.40563C7.4064 2.40563 7.4352 2.44575 7.41056 2.52756C7.38336 2.61803 7.24832 2.60819 7.15872 2.50947C7.11414 2.45888 7.07254 2.40446 7.03424 2.34663C6.98784 2.27189 6.99424 2.21447 7.12736 2.21447ZM16.3674 2.26521C16.5168 2.26521 16.6288 2.28487 16.6288 2.31201C16.6287 2.32426 16.6248 2.33599 16.6178 2.34473C16.6108 2.35346 16.6013 2.35851 16.5914 2.35882C16.5709 2.35882 16.5549 2.3895 16.5549 2.42726C16.5549 2.46502 16.5264 2.61291 16.4918 2.75609C16.4246 3.0326 16.3494 3.09121 16.3114 2.89808C16.2986 2.83357 16.2672 2.78126 16.241 2.78126C16.1805 2.78126 16.1392 2.58341 16.1914 2.54251C16.2157 2.52323 16.217 2.50396 16.1946 2.49334C16.1744 2.48351 16.1466 2.42923 16.1325 2.37141C16.1075 2.26914 16.1139 2.26521 16.3674 2.26521ZM16.8611 2.26521C16.9181 2.26521 16.999 2.30651 17.0426 2.35803L17.1219 2.45165L17.0349 2.56965C16.9517 2.68214 16.8214 2.73839 16.8685 2.64045C16.8813 2.61488 16.8602 2.59403 16.8218 2.59403C16.7664 2.59403 16.753 2.56021 16.7549 2.42962C16.7574 2.28212 16.7686 2.26521 16.8611 2.26521ZM23.3133 2.26521C23.3549 2.26521 23.3789 2.28605 23.3664 2.31201C23.3366 2.37298 23.2368 2.37298 23.2368 2.31201C23.2368 2.28605 23.2714 2.26481 23.3133 2.26481M6.33376 2.38281C6.36576 2.34269 6.47552 2.4957 6.48416 2.59285C6.50016 2.76985 6.41248 2.75255 6.36512 2.56965C6.3408 2.47643 6.32672 2.39186 6.33376 2.38281ZM23.615 2.43277C23.7139 2.41467 23.8387 2.53228 23.8157 2.64477C23.8038 2.70259 23.8157 2.73445 23.8499 2.73445C23.8794 2.73445 23.9126 2.76631 23.9245 2.80525C23.9376 2.84931 23.9958 2.87684 24.0806 2.87723C24.2832 2.87959 24.425 3.05935 24.4464 3.34058C24.4637 3.57107 24.4432 3.61316 24.1712 3.90855C24.1104 3.97463 24.1101 3.97935 24.1789 3.99587C24.2186 4.00571 24.264 4.03717 24.2794 4.06667C24.2989 4.10443 24.3181 4.09971 24.3443 4.04976C24.3754 3.99076 24.3846 3.99587 24.4032 4.08201C24.4214 4.16658 24.4403 4.17681 24.5094 4.14337C24.6234 4.08831 24.8992 4.17838 24.8736 4.26255C24.8608 4.30451 24.8979 4.33571 24.985 4.35617C25.1434 4.39393 25.193 4.35971 25.193 4.21339C25.193 4.05999 25.2454 4.03245 25.375 4.1182C25.4355 4.15753 25.5165 4.19018 25.5549 4.19018C25.6902 4.19018 25.7501 4.34122 25.7402 4.65825C25.7325 4.9029 25.7434 4.96229 25.8038 5.01854C25.8707 5.08069 25.8784 5.07361 25.9069 4.93083C25.9488 4.72079 25.991 4.67791 26.04 4.79395C26.072 4.87025 26.104 4.88559 26.1862 4.86475C26.2486 4.84901 26.303 4.86003 26.3187 4.89228C26.3382 4.93279 26.3616 4.92847 26.4064 4.87694C26.4397 4.83839 26.4838 4.81086 26.5037 4.81558C26.5238 4.8203 26.5453 4.78726 26.5517 4.74203C26.5587 4.69679 26.5469 4.65903 26.5251 4.65903C26.503 4.65903 26.4858 4.62757 26.4858 4.58902C26.4858 4.55008 26.5174 4.51901 26.5562 4.51901C26.5952 4.51901 26.633 4.49541 26.6406 4.46591C26.6621 4.3837 27.3648 4.60357 27.408 4.70663C27.4272 4.75147 27.433 4.80063 27.4211 4.81558C27.4093 4.83053 27.4432 4.85649 27.4963 4.8734C27.5818 4.90054 27.608 4.94263 27.5994 5.03939C27.5981 5.05473 27.7178 5.05827 27.8662 5.04607C28.1171 5.02562 28.1405 5.03113 28.1968 5.13379C28.2301 5.19436 28.2576 5.28994 28.2576 5.34619C28.2576 5.46812 28.3248 5.50903 28.4112 5.44098C28.4544 5.40715 28.5162 5.40951 28.615 5.44806C28.7437 5.49841 28.761 5.49526 28.8157 5.40322C28.8531 5.34029 28.8979 5.31275 28.9357 5.33124C29.0064 5.36585 29.016 5.48739 28.9501 5.51847C28.9158 5.53459 28.9197 5.56095 28.9651 5.62152C29.0336 5.71317 29.1347 5.67462 29.0733 5.58022C29.0528 5.54875 29.0454 5.47599 29.0573 5.41699C29.0758 5.32731 29.095 5.31472 29.1763 5.34501C29.2294 5.36467 29.3395 5.38434 29.4205 5.38827C29.5971 5.39614 29.6928 5.45514 29.9376 5.71081C30.039 5.81661 30.1437 5.92439 30.1706 5.95035C30.1974 5.97631 30.2522 6.03491 30.2922 6.08093C30.3315 6.12695 30.4125 6.1773 30.472 6.19225C30.5024 6.20184 30.5312 6.21824 30.5568 6.24063V6.67093C30.5414 6.70476 30.5338 6.76022 30.5363 6.85305C30.537 6.88451 30.5069 6.92227 30.4691 6.93761C30.3917 6.96908 30.1776 6.78972 30.1776 6.69335C30.1776 6.65441 30.1322 6.63278 30.057 6.63435C29.9696 6.63593 29.9139 6.67369 29.8512 6.77477C29.7744 6.89867 29.7702 6.93053 29.8086 7.07961C29.8646 7.29515 29.8336 7.40017 29.7245 7.36556C29.6787 7.35061 29.5997 7.36871 29.5494 7.40529C29.4992 7.44187 29.4323 7.48789 29.4019 7.50677C29.3715 7.52565 29.2826 7.6228 29.2045 7.72271C29.0707 7.89341 29.0579 7.90049 28.9949 7.82773C28.943 7.76833 28.9114 7.76204 28.8541 7.80098C28.8138 7.82851 28.7722 7.87768 28.7619 7.90993C28.7475 7.95517 28.7334 7.95202 28.7037 7.89853C28.6774 7.85133 28.6643 7.84739 28.6643 7.88673C28.6643 7.91937 28.6307 7.94612 28.5901 7.94612C28.5494 7.94612 28.5155 7.96657 28.5155 7.99135C28.5155 8.01653 28.5411 8.02479 28.5712 8.00984C28.656 7.96854 28.639 8.12155 28.5526 8.18055C28.4976 8.21752 28.479 8.21595 28.479 8.17425C28.479 8.14357 28.4682 8.13177 28.455 8.14829C28.4419 8.16481 28.447 8.20533 28.4662 8.23797C28.5123 8.31743 28.5078 8.6494 28.4605 8.64743C28.4403 8.64665 28.415 8.71548 28.4051 8.80044C28.3936 8.89602 28.3654 8.95502 28.3315 8.95502C28.2982 8.95502 28.2714 9.00694 28.2643 9.08403C28.2576 9.15877 28.2301 9.21383 28.1987 9.21383C28.1693 9.21383 28.1283 9.27087 28.1075 9.34206C28.0602 9.50451 27.8416 9.76057 27.8202 9.67836C27.8115 9.6465 27.833 9.59379 27.8675 9.56193C27.9226 9.5108 27.9251 9.46989 27.8906 9.23232C27.8339 8.84253 27.84 8.5314 27.9062 8.46139C27.9366 8.42953 27.9626 8.38705 27.9626 8.36699C27.9626 8.34693 28.016 8.25882 28.0819 8.17032C28.4435 7.6877 28.5203 7.57049 28.4762 7.57049C28.4493 7.57049 28.3824 7.62477 28.3274 7.69203C28.2294 7.8116 28.2272 7.81199 28.2032 7.71563C28.1894 7.66174 28.1891 7.59645 28.2019 7.57049C28.2147 7.54453 28.2029 7.52171 28.1763 7.51817C28.0799 7.50716 28.0172 7.53378 27.9882 7.59802C27.9513 7.66665 27.9101 7.73162 27.865 7.79233C27.8138 7.86273 27.7894 7.92763 27.8112 7.93707C27.8848 7.96854 27.8518 8.08654 27.768 8.09047C27.7062 8.09435 27.6447 8.10262 27.5837 8.11525C27.5075 8.13099 27.4826 8.11722 27.4826 8.05901C27.4826 7.99529 27.4586 7.98821 27.3437 8.01574C27.2675 8.03462 27.1197 8.04799 27.0163 8.04524C26.8291 8.04052 26.8269 8.04249 26.6323 8.33355C26.5248 8.49482 26.3853 8.68362 26.3226 8.75363C26.2384 8.84803 26.225 8.88265 26.2707 8.88343C26.3046 8.88422 26.3587 8.91726 26.3907 8.95817C26.4227 8.99868 26.4486 9.0093 26.4486 8.98177C26.4486 8.90703 26.5805 8.9208 26.6333 9.00143C26.6938 9.09465 26.7955 9.09465 26.7677 9.00143C26.7549 8.96053 26.767 8.93181 26.7965 8.93181C26.8547 8.93181 26.8902 9.07459 26.8912 9.31295C26.8912 9.40657 26.9168 9.57334 26.9475 9.68387C27.0099 9.90885 26.9974 9.96195 26.905 9.86519C26.8474 9.80501 26.8445 9.81839 26.8656 10.0473C26.8784 10.1877 26.8742 10.2845 26.8557 10.2699C26.8378 10.2558 26.8112 10.2672 26.7974 10.2955C26.7571 10.3785 26.9306 10.5803 27.0138 10.5464C27.0643 10.5264 27.0771 10.5339 27.0576 10.574C27.0419 10.6062 27.0518 10.6495 27.0794 10.6711C27.1165 10.7002 27.1046 10.7215 27.0326 10.7565C26.9792 10.7821 26.9245 10.8273 26.9101 10.8572C26.895 10.8879 26.8445 10.8985 26.7917 10.8816C26.7094 10.8552 26.7037 10.8631 26.7309 10.9602C26.7725 11.1097 26.7629 11.3091 26.7011 11.5797C26.6576 11.7701 26.6288 11.8197 26.5395 11.8535C26.4709 11.8798 26.4034 11.9108 26.3376 11.9463C26.296 11.9706 26.2529 11.9906 26.2086 12.0061C26.0902 12.0313 25.9318 12.1564 25.8976 12.2519C25.8528 12.3766 25.7837 12.3546 25.7837 12.2154C25.7837 12.165 25.7677 12.1237 25.7475 12.1237C25.6739 12.1237 25.7126 12.0214 25.848 11.8633C25.9469 11.7481 26.0221 11.7013 26.1082 11.7013C26.201 11.7013 26.2384 11.6737 26.2707 11.5837C26.2979 11.5081 26.3427 11.4668 26.3974 11.4668C26.512 11.4668 26.5645 11.3252 26.5645 11.0161C26.5645 10.8206 26.5818 10.7388 26.6374 10.6727C26.7005 10.598 26.7142 10.5048 26.7306 10.0166C26.744 9.62369 26.7376 9.44747 26.7101 9.44747C26.6877 9.44747 26.6701 9.52299 26.6701 9.61385C26.6701 9.84867 26.5741 10.0969 26.32 10.5205C26.177 10.7588 26.0605 10.8462 25.9536 10.7939C25.8992 10.7675 25.784 10.8969 25.784 10.9854C25.784 11.0137 25.7414 11.0798 25.6893 11.1321L25.5942 11.2265L25.6733 11.3634C25.7262 11.4536 25.7486 11.5506 25.7405 11.6545C25.7306 11.7866 25.7078 11.8185 25.5901 11.8704L25.4518 11.931L25.4474 11.7575C25.4447 11.6802 25.4451 11.6027 25.4486 11.5255C25.4518 11.4932 25.431 11.4794 25.4013 11.494C25.3264 11.5306 25.2934 11.4389 25.3405 11.3264C25.3747 11.2454 25.3693 11.232 25.3037 11.232C25.2618 11.232 25.1862 11.2666 25.1357 11.3087C25.0214 11.4039 24.9952 11.3756 25.0445 11.2112L25.0826 11.0845L24.9376 11.2167C24.8032 11.3386 24.7974 11.3551 24.8512 11.4307C24.888 11.483 24.9235 11.4975 24.9494 11.4708C24.9981 11.4196 25.1933 11.4598 25.1933 11.5207C25.1933 11.5443 25.1635 11.5774 25.128 11.5947C25.0928 11.6116 25.0339 11.6615 24.9974 11.7044C24.9338 11.7795 24.935 11.7925 25.039 12.0163C25.1171 12.1855 25.1382 12.2708 25.1133 12.3271C25.0912 12.377 25.0928 12.4049 25.1165 12.4049C25.2096 12.4049 24.9181 13.0028 24.7424 13.1708C24.6758 13.2349 24.5206 13.323 24.3981 13.3659C24.2035 13.4347 24.1738 13.4603 24.1667 13.5657C24.1526 13.7859 24.0003 13.9047 23.9491 13.7356C23.9344 13.6856 23.9558 13.6266 24.0106 13.5704C24.0576 13.522 24.0864 13.4705 24.0746 13.4551C24.033 13.4028 23.8826 13.4815 23.8346 13.581C23.7907 13.6707 23.8006 13.7006 23.9357 13.887C24.065 14.0652 24.0858 14.1222 24.0858 14.3063C24.0858 14.4939 24.073 14.5266 23.9837 14.5769C23.928 14.6084 23.8608 14.6713 23.8342 14.7166C23.7696 14.8283 23.6794 14.8212 23.6794 14.7048C23.6794 14.6521 23.655 14.6112 23.623 14.6112C23.606 14.6099 23.5896 14.6027 23.5757 14.5904C23.5619 14.578 23.5512 14.5611 23.545 14.5415C23.5334 14.5026 23.5008 14.4707 23.4726 14.4707C23.4442 14.4707 23.4214 14.4389 23.4214 14.3999C23.4214 14.361 23.4042 14.3291 23.3837 14.3291C23.3414 14.3291 23.3341 14.7516 23.375 14.8239C23.3898 14.8507 23.4467 14.9069 23.4998 14.9498C23.5533 14.9931 23.6054 15.0883 23.6163 15.1606C23.6272 15.233 23.6474 15.34 23.6618 15.3978C23.6829 15.4832 23.6742 15.5032 23.6157 15.5032C23.5056 15.5032 23.3578 15.3018 23.3133 15.0914C23.2912 14.9884 23.2483 14.8782 23.2182 14.8464C23.1808 14.807 23.1645 14.7079 23.1674 14.5384C23.1706 14.3681 23.1539 14.265 23.1142 14.2151C23.0789 14.1663 23.0516 14.1097 23.0336 14.0483C23.0086 13.9472 22.959 13.9264 22.9226 14.0011C22.9098 14.0271 22.8675 14.0483 22.8282 14.0483C22.7722 14.0483 22.7562 14.0153 22.7562 13.9C22.7562 13.8178 22.7181 13.6868 22.6707 13.6066C22.6267 13.5344 22.5895 13.4563 22.56 13.3737C22.5408 13.308 22.5216 13.2994 22.4858 13.3375C22.4592 13.3655 22.3846 13.3934 22.32 13.3997C22.2547 13.406 22.2032 13.4371 22.2032 13.4697C22.2032 13.5023 22.1526 13.5625 22.0918 13.6026C22.031 13.6428 21.9811 13.6931 21.9811 13.7147C21.9811 13.7368 21.8998 13.8261 21.8006 13.913C21.6253 14.0672 21.6211 14.0766 21.6237 14.3032C21.6256 14.4613 21.6477 14.5628 21.6931 14.6206C21.8195 14.7815 21.7677 15.0808 21.6131 15.0808C21.5603 15.0808 21.5354 14.8475 21.5776 14.7472C21.6416 14.5946 21.5878 14.5872 21.4867 14.7351C21.4061 14.8531 21.3891 14.8609 21.3437 14.7988C21.2518 14.6729 20.9808 13.8154 20.975 13.6325C20.9699 13.4732 20.961 13.4571 20.8838 13.476C20.7962 13.4972 20.6534 13.3753 20.6518 13.2785C20.6512 13.2502 20.6077 13.1747 20.5549 13.111C20.4691 13.0075 20.4253 12.9946 20.1312 12.9875C19.9338 12.9824 19.7805 12.956 19.7472 12.9214C19.7024 12.8742 19.6918 12.8777 19.6918 12.9403C19.6918 12.9828 19.7507 13.0516 19.8218 13.0949C19.9725 13.1861 19.9936 13.3368 19.8768 13.485C19.8362 13.5366 19.8032 13.594 19.8032 13.6125C19.8032 13.6754 19.5632 13.9067 19.4982 13.9067C19.4624 13.9067 19.4048 13.9488 19.3702 14.0007C19.335 14.0522 19.2896 14.0951 19.2688 14.0951C19.248 14.0951 19.1882 14.1242 19.1357 14.1588C19.0375 14.2153 18.9365 14.264 18.8333 14.3047C18.6531 14.3767 18.631 14.3984 18.6656 14.4684C18.7008 14.54 18.7264 14.5427 18.8944 14.4932C18.9981 14.4625 19.1197 14.4231 19.1638 14.4054C19.3955 14.3118 19.1437 15.0851 18.8288 15.436L18.6419 15.6444L18.5811 15.6909L18.4899 15.8207C18.3322 16.0437 18.2899 16.1821 18.3088 16.4185C18.3184 16.5393 18.3386 16.6624 18.3536 16.6923C18.369 16.7226 18.3843 16.8791 18.3875 17.0404C18.393 17.3039 18.3834 17.3432 18.2995 17.4278C18.2477 17.4789 18.1875 17.5222 18.1651 17.523C18.1427 17.5238 18.0774 17.5844 18.0211 17.6575C17.9414 17.7606 17.9251 17.8129 17.9488 17.8935C18.0003 18.0705 17.9594 18.3038 17.8669 18.3573C17.8173 18.386 17.7744 18.4642 17.7613 18.5484C17.7357 18.7117 17.4701 19.1982 17.3389 19.3245C17.2595 19.4004 16.84 19.507 16.6477 19.5003C16.5565 19.4971 16.4714 19.3567 16.4938 19.247C16.5114 19.1604 16.3984 18.8194 16.3094 18.6908C16.2806 18.6491 16.2355 18.4701 16.2086 18.292C16.1606 17.9718 16.0726 17.6957 16.0006 17.639C15.9197 17.5753 15.9862 17.1194 16.1011 16.9499C16.1176 16.9249 16.1288 16.8954 16.1338 16.8639C16.1389 16.8323 16.1375 16.7997 16.1299 16.769C16.1143 16.7025 16.1022 16.6348 16.0938 16.5664C16.0746 16.3812 15.9987 16.1924 15.8698 16.011C15.7997 15.9123 15.7418 15.7998 15.7418 15.7613C15.7418 15.7581 15.7379 15.7561 15.7363 15.7534L15.7443 15.753L15.7712 15.6444L15.7962 15.4733C15.8256 15.2739 15.7766 15.2071 15.6256 15.2421C15.5504 15.2594 15.513 15.2373 15.4675 15.1492C15.3974 15.0131 15.2925 15.0025 15.0912 15.1107C15.0125 15.1532 14.8486 15.1941 14.7267 15.2012C14.6051 15.209 14.4733 15.2169 14.4342 15.2208C14.3411 15.2283 13.9712 14.9022 13.9331 14.7787C13.9168 14.7256 13.8435 14.6088 13.7706 14.5199C13.6976 14.431 13.6381 14.3213 13.6381 14.276C13.6381 14.2308 13.6198 14.1805 13.5981 14.1635C13.5718 14.1431 13.5766 14.1069 13.6125 14.055C13.6998 13.9283 13.7165 13.7883 13.672 13.5625C13.632 13.3619 13.6365 13.3344 13.7456 13.0917C13.8525 12.8545 13.9562 12.7003 14.1526 12.4872C14.1977 12.4327 14.2249 12.3597 14.2288 12.2822C14.2288 12.2028 14.273 12.1048 14.3526 12.0093C14.5782 11.7386 14.601 11.5609 14.4102 11.5609C14.2896 11.5609 14.2918 11.5707 14.2867 11.02C14.2848 10.7911 14.2998 10.6759 14.3357 10.6405C14.367 10.609 14.4918 10.5976 14.6589 10.6113L14.9299 10.6334V10.4615C14.9299 10.2546 14.8374 10.0579 14.7402 10.0579C14.6515 10.0579 14.6064 9.92262 14.6755 9.86519C14.704 9.84159 14.7667 9.83373 14.815 9.84828C14.8906 9.87109 14.8995 9.86087 14.8819 9.77473C14.8646 9.69016 14.8742 9.67757 14.9418 9.69842C15.0186 9.72202 15.1843 9.61503 15.1462 9.56626C15.1277 9.54266 14.7958 9.60677 14.6374 9.66459C14.5504 9.69645 14.5498 9.69449 14.6086 9.58711C14.6544 9.50451 14.6592 9.46203 14.6278 9.41404C14.5965 9.36605 14.6035 9.33537 14.6566 9.28385C14.711 9.23114 14.7142 9.2158 14.6714 9.21305C14.6323 9.21069 14.6426 9.18197 14.7056 9.1155C14.785 9.03133 14.7888 9.01323 14.7395 8.9503C14.6902 8.88737 14.6787 8.88815 14.6326 8.95856C14.6038 9.00222 14.5782 9.06122 14.5763 9.08993C14.5738 9.11865 14.5699 9.18512 14.5667 9.23665C14.5629 9.30312 14.5171 9.34796 14.4138 9.38887C14.2195 9.46596 14.2038 9.4636 14.1811 9.35347C14.1706 9.30194 14.1789 9.25985 14.1994 9.25985C14.2205 9.25985 14.2272 9.21029 14.2144 9.14579C14.1837 8.99003 14.224 8.87163 14.297 8.90703C14.329 8.92277 14.3434 8.92041 14.329 8.90192C14.2851 8.84607 14.4122 8.70525 14.4845 8.72885C14.5293 8.7438 14.5571 8.71902 14.5709 8.65294C14.5818 8.59905 14.5766 8.55539 14.5587 8.55539C14.5226 8.55539 14.553 8.29579 14.6045 8.16835C14.623 8.12194 14.679 8.08575 14.7325 8.08575C14.8093 8.08575 14.8243 8.10385 14.8086 8.17976C14.7946 8.24938 14.807 8.27416 14.8595 8.27416C14.9389 8.27416 14.9482 8.3308 14.8906 8.46768C14.8618 8.5373 14.8634 8.58096 14.8982 8.63445C14.9546 8.72099 15.0237 8.8677 15.0755 9.01402C15.0966 9.07302 15.1389 9.1332 15.1699 9.14854C15.2128 9.16939 15.2214 9.21659 15.2038 9.33734C15.1808 9.49271 15.183 9.49546 15.2675 9.4459C15.3155 9.41758 15.3795 9.32751 15.4099 9.2453C15.4512 9.13438 15.5011 9.08482 15.6038 9.05257C15.7229 9.01481 15.7418 8.98963 15.7418 8.87557C15.7418 8.8028 15.7258 8.74301 15.7056 8.74301C15.6243 8.74301 15.6688 8.46768 15.7658 8.37092C15.8192 8.31743 15.8752 8.27416 15.8906 8.27416C15.945 8.27416 15.9562 8.57781 15.9043 8.65294C15.8026 8.80005 15.8666 8.90979 16.0438 8.89287C16.0989 8.88737 16.1536 8.90428 16.1664 8.93024C16.1811 8.96092 16.2243 8.95541 16.2886 8.91451C16.4448 8.81421 16.5914 8.77999 16.5914 8.84371C16.5914 8.97115 16.7334 8.72453 16.752 8.56444C16.7904 8.23325 16.8218 8.08615 16.8544 8.08615C16.8723 8.08615 16.92 8.04406 16.9606 7.99214C17.008 7.93196 17.0845 7.89813 17.1731 7.89774C17.2493 7.89774 17.3357 7.87729 17.3658 7.85329C17.4752 7.76519 17.2883 7.73923 17.1187 7.81947C16.969 7.89027 16.9485 7.89027 16.8662 7.82183C16.817 7.78053 16.7754 7.73372 16.7744 7.7172L16.7562 7.4576C16.7418 7.2511 16.753 7.20901 16.8602 7.05365C17.1066 6.69532 17.1155 6.67565 17.0688 6.60407C17.0416 6.56559 17.0033 6.54161 16.9619 6.5372C16.8925 6.5372 16.7981 6.75078 16.8342 6.82551C16.847 6.85108 16.7805 6.96121 16.687 7.07056C16.4742 7.31836 16.4202 7.51896 16.5206 7.68101C16.6189 7.83992 16.6064 8.08615 16.4998 8.08615C16.4723 8.08615 16.4352 8.20179 16.4093 8.36777C16.3741 8.59708 16.3523 8.64901 16.2938 8.64901C16.2541 8.64901 16.2224 8.67103 16.2224 8.6966C16.2224 8.72256 16.1894 8.74301 16.1488 8.74301C16.1082 8.74301 16.0742 8.76465 16.0742 8.79021C16.0742 8.86809 15.9632 8.84371 15.9382 8.76032C15.9242 8.7143 15.9405 8.65963 15.9782 8.62462C16.0374 8.56955 16.0368 8.54989 15.9706 8.30051L15.9002 8.03462L15.7882 8.15419C15.5968 8.35873 15.5024 8.29697 15.4637 7.94219C15.443 7.75954 15.4362 7.57493 15.4432 7.39073C15.4451 7.3573 15.464 7.34235 15.4845 7.35848C15.5046 7.37421 15.5213 7.36005 15.5219 7.32623C15.5226 7.2924 15.5901 7.20154 15.6723 7.12405C15.8 7.00448 16.0544 6.58912 16.057 6.4959C16.0589 6.42785 16.2378 6.01997 16.2656 6.01997C16.2822 6.01997 16.2963 5.99322 16.2963 5.95939C16.2963 5.92557 16.3251 5.85673 16.3606 5.80678C16.4043 5.7418 16.4422 5.67125 16.4736 5.59635C16.5005 5.53027 16.5795 5.43626 16.6496 5.38867C16.719 5.34107 16.7763 5.28365 16.7763 5.26123C16.7763 5.23881 16.8147 5.23369 16.8618 5.24903C16.9418 5.2746 17.0688 5.16093 17.0432 5.08698C17.0378 5.07125 17.071 5.05276 17.1168 5.04686C17.3901 5.00989 17.4419 5.02011 17.5318 5.12749C17.6214 5.23409 17.6224 5.24235 17.5606 5.33045C17.4976 5.41974 17.4992 5.42171 17.6189 5.38867C17.7238 5.35995 17.7437 5.36821 17.7613 5.45239C17.7744 5.51729 17.8112 5.55151 17.8682 5.55151C17.9158 5.55151 18.0096 5.61011 18.0762 5.68209C18.1427 5.75407 18.2445 5.85123 18.3011 5.89646C18.4854 6.04396 18.5037 6.29255 18.3398 6.42903C18.2643 6.49197 18.2275 6.49354 18.0768 6.44201C17.9808 6.40897 17.8774 6.35941 17.8467 6.33149C17.808 6.29609 17.8099 6.30867 17.8538 6.37436C17.888 6.42589 17.9152 6.53641 17.9133 6.62019C17.9094 6.78579 18.007 6.96043 18.1021 6.95846C18.1523 6.95689 18.1507 6.94902 18.0957 6.90811C18.0602 6.88215 18.0314 6.80978 18.0314 6.74606C18.0314 6.61469 18.057 6.60603 18.1581 6.70319C18.2608 6.80191 18.3235 6.78972 18.3002 6.67644C18.272 6.53956 18.464 6.29884 18.5744 6.33306C18.6531 6.35745 18.655 6.34919 18.6336 6.10768C18.6214 5.97001 18.5955 5.83038 18.5757 5.79813C18.5491 5.75565 18.5581 5.73913 18.608 5.73991C18.8256 5.74188 18.953 5.92045 18.823 6.04081C18.7878 6.07385 18.7706 6.12499 18.785 6.15488C18.8256 6.23827 18.9098 6.21781 18.9344 6.11948C18.9558 6.03373 19.2138 5.78593 19.2813 5.78593C19.2995 5.78593 19.3354 5.75407 19.3606 5.71513C19.3891 5.67485 19.4293 5.64986 19.4726 5.64551C19.5222 5.64551 19.5325 5.67108 19.5174 5.75053C19.5011 5.83707 19.5072 5.84611 19.5475 5.79813C19.585 5.76111 19.6313 5.74036 19.6794 5.73913C19.7248 5.73913 19.7734 5.71631 19.7869 5.68799C19.8003 5.66046 19.849 5.64905 19.8944 5.66361C19.9398 5.67816 19.9872 5.67737 19.9994 5.66164C20.0346 5.6168 19.9546 5.45711 19.897 5.45711C19.8371 5.45711 19.7866 5.29466 19.8234 5.21953C19.8398 5.18623 19.8742 5.1996 19.9267 5.25965C19.9706 5.30961 20.0896 5.38591 20.1907 5.42879C20.2918 5.47166 20.4387 5.57157 20.5174 5.6522C20.6557 5.79341 20.6598 5.79459 20.6342 5.68681C20.6188 5.62305 20.5906 5.56513 20.552 5.51847C20.5147 5.48123 20.5038 5.42289 20.5194 5.34343C20.5322 5.27775 20.5232 5.18295 20.4989 5.133C20.4611 5.05669 20.4694 5.01343 20.5533 4.86003C20.6077 4.76012 20.6525 4.63229 20.6525 4.57761C20.6525 4.52255 20.6749 4.45017 20.7011 4.41635C20.7277 4.38213 20.7597 4.31683 20.7731 4.2716C20.7866 4.22637 20.8218 4.18939 20.8506 4.18939C20.9309 4.18939 20.953 4.32195 20.8819 4.37465C20.8288 4.41399 20.8355 4.42264 20.9206 4.42382C21.009 4.425 21.0218 4.44309 21.0218 4.56817C21.0218 4.64723 21.0054 4.75186 20.985 4.80024C20.9594 4.86199 20.9606 4.89818 20.9907 4.92178C21.0154 4.94145 21.0237 4.93437 21.0099 4.90605C20.9971 4.87969 21.0227 4.79867 21.0682 4.7259C21.1133 4.65274 21.1459 4.55677 21.1402 4.51311C21.1344 4.46945 21.1453 4.41989 21.1658 4.40376C21.2067 4.37151 21.2688 4.50445 21.263 4.61301C21.2579 4.71371 21.3245 4.75776 21.3706 4.68421C21.4486 4.55991 21.5594 4.55873 21.6637 4.68185C21.7187 4.74675 21.7821 4.80024 21.8045 4.80024C21.8269 4.80024 21.8022 4.75029 21.7501 4.68893C21.688 4.61577 21.6461 4.50367 21.6301 4.36639C21.6013 4.1241 21.6051 4.12213 21.9206 4.07218C22.1194 4.04071 22.1738 3.99587 22.0925 3.93215C22.0339 3.88613 22.0483 3.67334 22.1101 3.67334C22.143 3.67334 22.1562 3.64581 22.143 3.60254C22.1286 3.55455 22.1453 3.53253 22.1955 3.53253C22.2362 3.53253 22.2778 3.50342 22.2886 3.46723C22.2995 3.43144 22.3725 3.3748 22.4499 3.34215C22.5277 3.30951 22.6074 3.2568 22.6275 3.22533C22.6835 3.13801 22.8675 3.09868 22.9264 3.16083C22.9427 3.17626 22.9621 3.18605 22.9825 3.18916C23.0029 3.19227 23.0237 3.1886 23.0426 3.17853C23.0784 3.15886 23.1491 3.14785 23.2 3.15414C23.2746 3.16279 23.2835 3.15375 23.2464 3.10497C23.176 3.01293 23.1907 2.96967 23.2912 2.96967C23.3562 2.96967 23.376 2.94921 23.3613 2.89965C23.3354 2.81351 23.4765 2.51576 23.575 2.44889C23.5876 2.44084 23.6011 2.43539 23.615 2.43277ZM5.48864 2.47721C5.504 2.48272 5.52 2.50711 5.54496 2.55234C5.5808 2.61724 5.58848 2.66444 5.56512 2.67427C5.54368 2.68371 5.53472 2.74075 5.54368 2.80132C5.55296 2.86189 5.54176 2.92601 5.51936 2.94331C5.49696 2.96101 5.47936 3.01018 5.48 3.05423C5.48096 3.127 5.48416 3.127 5.51872 3.05187C5.55872 2.96455 5.70048 2.93702 5.70048 3.01647C5.70048 3.04204 5.72608 3.06367 5.75744 3.06367C5.7888 3.06367 5.84288 3.12661 5.87744 3.2037C5.91456 3.28709 5.97088 3.34373 6.0144 3.34373C6.07072 3.34373 6.07648 3.3335 6.03744 3.30203C6.0096 3.27961 5.9968 3.2391 6.00992 3.21235C6.02304 3.18521 6.0176 3.15021 5.99712 3.13369C5.93824 3.08806 5.952 2.99681 6.03488 2.88353C6.1136 2.77654 6.20064 2.78834 6.16608 2.90201C6.15552 2.93741 6.16352 2.9795 6.18432 2.99563C6.20512 3.01215 6.21312 3.05581 6.20256 3.0916C6.1888 3.13683 6.2112 3.15689 6.27296 3.15689C6.38016 3.15689 6.4432 3.28591 6.41376 3.44285C6.3936 3.55141 6.3952 3.55298 6.448 3.46566C6.5024 3.37677 6.504 3.37716 6.54624 3.47746C6.56992 3.53371 6.58016 3.58169 6.56928 3.58484C6.52927 3.59388 6.48904 3.60136 6.44864 3.60726C6.17216 3.65013 6.04256 3.69379 5.95328 3.77403C5.82912 3.88495 5.71872 3.88574 5.65696 3.77639C5.6304 3.72919 5.55424 3.65053 5.488 3.60175C5.39712 3.5341 5.37344 3.49005 5.38944 3.41728C5.40352 3.35304 5.39925 3.34124 5.37664 3.38188C5.34432 3.44167 5.22048 3.41335 5.22048 3.34648C5.22048 3.29063 5.35136 3.15689 5.40608 3.15689C5.44512 3.15689 5.44672 3.14431 5.41376 3.10261C5.3808 3.06092 5.352 3.07744 5.2912 3.17538C5.23712 3.2627 5.19296 3.29299 5.152 3.27057C5.1133 3.25117 5.07188 3.24128 5.03008 3.24146C4.9296 3.24657 4.92192 3.11953 5.01504 2.99169C5.06304 2.9264 5.1408 2.79896 5.1888 2.70849C5.24 2.61213 5.29952 2.55116 5.3328 2.56178C5.36352 2.57161 5.41056 2.54919 5.43744 2.51261C5.45856 2.4839 5.47328 2.47171 5.48864 2.47721ZM9.63424 2.50003C9.60256 2.50003 9.5776 2.52127 9.5776 2.54723C9.5776 2.57279 9.59264 2.59403 9.61184 2.59403C9.63104 2.59403 9.65664 2.57279 9.66944 2.54683C9.68192 2.52127 9.66624 2.50003 9.63424 2.50003ZM20.6013 2.78441C20.655 2.77772 20.6947 2.81391 20.7107 2.89454C20.7453 3.07036 20.6746 3.17853 20.4362 3.31462C20.3072 3.38817 20.168 3.51286 20.1002 3.61552C20.0362 3.71189 19.951 3.84129 19.9107 3.90265C19.8704 3.96401 19.7866 4.15281 19.7245 4.32155C19.5965 4.66926 19.5987 4.88048 19.7312 5.05984C19.7741 5.11805 19.7949 5.17705 19.777 5.19121C19.7347 5.22465 19.5229 5.21678 19.4794 5.18059C19.4608 5.16486 19.4349 5.09406 19.4211 5.02326C19.4047 4.93673 19.3721 4.89359 19.3232 4.89385C19.2691 4.89385 19.2496 4.86239 19.2496 4.77428C19.2496 4.70623 19.2659 4.66611 19.2867 4.68263C19.3229 4.71135 19.3386 4.64881 19.3258 4.52687C19.3219 4.49226 19.3488 4.4073 19.385 4.33847C19.4211 4.26963 19.4467 4.18861 19.4419 4.15871C19.4371 4.12882 19.4678 4.02891 19.5114 3.9353C19.5555 3.83972 19.5818 3.72408 19.5706 3.67019C19.5578 3.60726 19.5718 3.56399 19.6125 3.54511C19.6464 3.52938 19.751 3.41689 19.8445 3.29456C19.9885 3.10576 20.0346 3.07311 20.1485 3.07705C20.2531 3.08098 20.311 3.04755 20.4058 2.93151C20.4794 2.83987 20.5475 2.79109 20.6013 2.78441ZM5.66016 2.79424C5.6992 2.79345 5.73696 2.82925 5.73696 2.87802C5.73696 2.93309 5.6976 2.93427 5.63136 2.88117C5.59648 2.85324 5.59424 2.83082 5.62272 2.8084C5.63369 2.79899 5.64678 2.79403 5.66016 2.79424ZM6.95296 2.87723C6.96427 2.87802 6.98208 2.89166 7.0064 2.91814C7.05568 2.96927 7.06816 3.05305 7.06272 3.30518L7.056 3.62653H6.9088C6.76928 3.62653 6.7632 3.62063 6.7776 3.49437C6.79168 3.37519 6.784 3.36379 6.70272 3.38385C6.62048 3.40351 6.61472 3.39447 6.63776 3.27765C6.6544 3.19269 6.64981 3.15991 6.624 3.17931C6.552 3.23595 6.45696 3.15965 6.45152 3.04007C6.44544 2.90516 6.51488 2.88549 6.60192 2.99681C6.63392 3.03732 6.66016 3.05266 6.66016 3.03103C6.66016 2.94961 6.81184 2.86819 6.86272 2.92207C6.89888 2.96023 6.91584 2.95747 6.92768 2.91263C6.93408 2.88903 6.94144 2.87723 6.95296 2.87723ZM13.433 2.89415C13.4202 2.88353 13.4019 2.90201 13.3635 2.9382C13.3014 2.99563 13.3008 3.00389 13.359 3.07783C13.4509 3.19465 13.4947 3.17459 13.4672 3.02788C13.4515 2.94528 13.4451 2.90516 13.433 2.89415ZM26.4474 3.13723C26.4641 3.13153 26.4818 3.13153 26.4986 3.13723C26.5186 3.143 26.5388 3.15729 26.559 3.1801C26.6195 3.24972 26.6298 3.25051 26.6582 3.18561C26.6858 3.12307 26.7142 3.13211 26.856 3.25169C26.9469 3.32799 27.0627 3.39329 27.1133 3.39525C27.2134 3.39919 27.3763 3.47392 27.3158 3.48808C27.2957 3.4928 27.3286 3.51011 27.3894 3.52663C27.512 3.55967 27.5347 3.65918 27.4378 3.73706C27.359 3.79999 27.1133 3.6639 27.1133 3.55731C27.1133 3.45504 27.0573 3.46959 26.9453 3.60097C26.8915 3.66429 26.8035 3.71582 26.7498 3.71543C26.6957 3.71543 26.5994 3.72919 26.5354 3.74611C26.4362 3.77246 26.4086 3.75791 26.3552 3.65485C26.2541 3.45858 26.3325 3.17499 26.4474 3.13723ZM26.2269 3.25129C26.247 3.25129 26.2637 3.31423 26.2637 3.39132C26.2637 3.46881 26.247 3.53292 26.2269 3.53292C26.2067 3.53292 26.1901 3.46881 26.1901 3.39132C26.1901 3.31383 26.2067 3.25129 26.2269 3.25129ZM7.2256 3.34569C7.3648 3.34569 7.46368 3.72605 7.33984 3.78662C7.26304 3.82438 7.27552 3.83107 7.1776 3.69812C7.10336 3.59782 7.09696 3.56439 7.13312 3.4633C7.15648 3.3984 7.19776 3.3453 7.2256 3.3453M5.09248 3.77915C5.12623 3.78602 5.15729 3.80601 5.18112 3.83618C5.21952 3.87984 5.2848 3.90934 5.32672 3.90069C5.3792 3.89007 5.45056 3.94985 5.552 4.09027C5.63328 4.20355 5.69984 4.31526 5.69984 4.33925C5.69984 4.36325 5.71584 4.37072 5.73568 4.35538C5.7552 4.33965 5.81376 4.36207 5.86496 4.40455C5.95232 4.47731 5.95808 4.47771 5.95808 4.4014C5.95808 4.32549 5.96448 4.32509 6.05088 4.39707C6.14048 4.47181 6.1424 4.47102 6.1424 4.35538C6.1424 4.28537 6.16384 4.23738 6.19424 4.23738C6.22272 4.23738 6.25504 4.20513 6.26688 4.16658C6.28896 4.09381 6.45728 4.06825 6.48864 4.13275C6.49824 4.15242 6.48768 4.25705 6.46496 4.36403C6.43488 4.50799 6.43552 4.60515 6.46688 4.7377C6.49024 4.83682 6.51968 4.96505 6.53184 5.02287C6.544 5.08069 6.57344 5.12985 6.59744 5.13064C6.66624 5.133 6.80736 5.30056 6.80736 5.38041C6.80736 5.41974 6.77856 5.47323 6.74336 5.49841C6.70752 5.52358 6.69056 5.55937 6.7056 5.57865C6.75232 5.63765 6.65536 5.73913 6.552 5.73913C6.5136 5.72575 6.40256 5.68406 6.39136 5.68406C6.3904 5.68406 6.07744 5.79537 6.02112 5.81189C5.98102 5.80416 5.94041 5.80113 5.89984 5.80285C5.83168 5.77571 5.73984 5.84611 5.69984 5.7053C5.69984 5.67619 5.64288 5.62899 5.57376 5.59989C5.46048 5.55269 5.40395 5.47389 5.40416 5.36349C5.40416 5.34186 5.45024 5.30331 5.50624 5.27735L5.60736 5.23015L5.49216 5.22622C5.37408 5.22229 5.33056 5.15739 5.33056 4.98393C5.33056 4.93437 5.31456 4.89385 5.2944 4.89385C5.24224 4.89385 5.248 4.73691 5.30304 4.66257C5.34144 4.61144 5.33504 4.61026 5.26624 4.65471C5.22048 4.68499 5.18304 4.75186 5.18304 4.80339C5.18304 4.85452 5.15424 4.91037 5.11872 4.92611C5.0832 4.94223 5.02592 4.98589 4.992 5.02287C4.93664 5.08344 4.92384 5.07518 4.87296 4.95089C4.84192 4.87419 4.78912 4.79827 4.75552 4.78175C4.71264 4.76091 4.70176 4.72157 4.71872 4.64723C4.73216 4.58981 4.74976 4.48479 4.75808 4.41477C4.7664 4.34437 4.79008 4.24643 4.81056 4.19726C4.83424 4.14141 4.83616 4.05409 4.81568 3.96362C4.78336 3.82005 4.78432 3.81887 4.94752 3.7878C5.01152 3.77521 5.05664 3.77207 5.09248 3.77915ZM26.6355 3.87905C26.6733 3.89557 26.7056 3.96559 26.6832 4.012C26.673 4.03285 26.696 4.04976 26.7338 4.04976C26.8208 4.04976 26.8912 4.13708 26.8912 4.24643C26.8912 4.31172 26.8637 4.32903 26.7712 4.32509C26.7092 4.32259 26.6475 4.31337 26.5869 4.29756C26.5165 4.27435 26.4973 4.18939 26.5619 4.18939C26.5866 4.18939 26.593 4.13826 26.5779 4.05369C26.5635 3.96952 26.5709 3.90423 26.5974 3.88299C26.6032 3.87886 26.6096 3.87637 26.6163 3.87569C26.6229 3.87501 26.6293 3.87616 26.6355 3.87905ZM7.34016 3.93215C7.38795 3.92586 7.44736 3.93635 7.5184 3.96362C7.66464 4.01947 7.67744 4.04622 7.624 4.17877C7.60608 4.22361 7.5728 4.31841 7.55104 4.38921C7.52864 4.46001 7.48768 4.51822 7.4592 4.51822C7.39008 4.51822 7.35008 4.73141 7.39776 4.84469C7.41856 4.89425 7.43616 4.97055 7.43616 5.01303C7.43616 5.05591 7.46912 5.1448 7.50976 5.21049C7.56608 5.30174 7.57376 5.34461 7.54208 5.39339C7.51008 5.44255 7.51392 5.45711 7.56032 5.45711C7.5968 5.45711 7.62016 5.49644 7.62016 5.55701C7.62016 5.64158 7.62848 5.64748 7.67712 5.59635C7.76032 5.50863 7.84896 5.63647 7.84896 5.84336C7.84896 5.93304 7.86368 6.03609 7.8816 6.07228C7.90016 6.10965 7.91424 6.11555 7.91456 6.08565C7.91488 6.05655 7.94336 5.95035 7.97728 5.85044C8.07104 5.57432 8.01856 5.31669 7.86848 5.31669C7.74368 5.31669 7.60928 4.95718 7.63488 4.69443C7.67424 4.28891 7.78464 4.09578 7.97664 4.09578C8.06944 4.09578 8.0928 4.1123 8.07648 4.16579C8.05792 4.22794 8.0672 4.22794 8.16032 4.16658C8.3248 4.05802 8.6496 4.11859 8.75552 4.27711C8.80096 4.34555 8.83904 4.42264 8.83968 4.4486C8.84192 4.53671 9.04128 4.83171 9.08608 4.81243C9.1104 4.80221 9.16 4.84036 9.19648 4.897C9.23296 4.95364 9.28544 5.02287 9.31296 5.05237C9.48064 5.23094 9.57504 5.39181 9.55616 5.46773C9.54336 5.51886 9.55456 5.55151 9.584 5.55229C9.61664 5.5536 9.61131 5.57511 9.568 5.6168C9.48256 5.6994 9.48608 5.77295 9.57728 5.80953C9.61792 5.82605 9.65088 5.85791 9.65088 5.88112C9.65088 5.90472 9.67968 5.91062 9.7152 5.8941C9.75104 5.87837 9.768 5.8823 9.75296 5.90354C9.73792 5.92478 9.79136 6.01957 9.87232 6.11476C10.0384 6.30985 10.049 6.37003 9.94592 6.5372C9.90624 6.60171 9.87328 6.68077 9.87296 6.71302C9.87264 6.74527 9.85472 6.77202 9.83328 6.77202C9.78432 6.77202 9.6144 6.53995 9.6128 6.47112C9.61216 6.4428 9.59488 6.45539 9.57536 6.49787C9.53184 6.59305 9.56576 6.72482 9.63392 6.72482C9.75392 6.72482 9.84512 7.27549 9.7328 7.32308C9.70784 7.3337 9.68704 7.31954 9.68704 7.29161C9.68704 7.26369 9.67328 7.24087 9.656 7.24087C9.63872 7.24087 9.63264 7.29633 9.64288 7.36399C9.66208 7.49379 9.67264 7.49182 9.4384 7.40607C9.39264 7.38955 9.3552 7.35809 9.3552 7.33685C9.3552 7.31561 9.31424 7.28571 9.264 7.26919C9.2073 7.24682 9.15925 7.19965 9.12896 7.13664C9.03424 6.91126 8.9312 6.844 8.79776 6.92149C8.6976 6.97931 8.60192 6.85383 8.63136 6.70319C8.65376 6.59109 8.67168 6.57653 8.75904 6.59856C8.87584 6.62845 8.97088 6.57221 8.93344 6.49511C8.91936 6.46601 8.94208 6.38695 8.984 6.3189C9.02592 6.25125 9.05952 6.14977 9.05952 6.09313C9.05952 5.95271 8.86976 5.72654 8.78592 5.76745C8.73376 5.79301 8.72288 5.77689 8.73216 5.68603C8.74496 5.56252 8.63776 5.32809 8.60224 5.40165C8.59008 5.42682 8.52096 5.44806 8.44864 5.44806C8.28992 5.44806 8.2448 5.49211 8.32608 5.56763C8.37088 5.60933 8.38464 5.69547 8.38144 5.91377C8.376 6.26501 8.2608 6.48646 8.1008 6.45421C8.01504 6.4369 8.0192 6.4487 8.15456 6.60367C8.23584 6.69571 8.31456 6.77241 8.33056 6.77241C8.34592 6.77241 8.3584 6.79798 8.3584 6.83063C8.3584 6.86327 8.392 6.91716 8.43328 6.94981C8.47488 6.98245 8.49856 7.03005 8.4864 7.05483C8.45664 7.11658 8.2944 7.11265 8.264 7.04971C8.248 7.01707 8.21088 7.03398 8.1584 7.09652C8.08736 7.18148 8.06496 7.18699 7.97856 7.13585C7.88128 7.07843 7.85376 7.00723 7.904 6.94312C7.91808 6.92503 7.9344 6.86288 7.94016 6.80545L7.95104 6.70083L7.90336 6.80939C7.87712 6.86839 7.80256 6.95728 7.73792 7.00723C7.67296 7.05758 7.62016 7.12602 7.62016 7.15867C7.62016 7.19131 7.568 7.28099 7.504 7.35769C7.29856 7.60431 7.2144 8.02361 7.36096 8.07199C7.40672 8.08772 7.4416 8.15065 7.45536 8.24348C7.47328 8.36541 7.49536 8.39177 7.58144 8.3957C7.63904 8.39806 7.74112 8.45116 7.80896 8.51331C8 8.68716 8.09952 8.74301 8.21536 8.74301C8.3168 8.74301 8.3216 8.75324 8.3216 8.95148C8.3216 9.10724 8.34464 9.19377 8.4128 9.29211C8.53184 9.46321 8.58112 9.38257 8.5376 9.08718C8.5088 8.88776 8.51392 8.86573 8.61728 8.74301C8.67808 8.67064 8.72736 8.59355 8.72704 8.57152C8.72672 8.44526 8.64448 8.18566 8.59776 8.16245C8.5264 8.12784 8.52672 7.99214 8.5984 7.99214C8.64384 7.99214 8.65216 7.92527 8.6448 7.62831C8.6368 7.32387 8.6448 7.26801 8.69088 7.28414C8.72128 7.29437 8.81344 7.3042 8.89568 7.30695C9.01088 7.31049 9.06944 7.34235 9.14336 7.44383C9.1968 7.51699 9.26816 7.58229 9.30272 7.58897C9.34784 7.59723 9.36704 7.65348 9.37344 7.79036C9.37888 7.906 9.4112 8.01692 9.45664 8.07435C9.5264 8.16324 9.53408 8.16324 9.58528 8.08733C9.62205 8.02591 9.64878 7.95632 9.664 7.8824C9.688 7.76047 9.7984 7.70304 9.7984 7.81239C9.7984 7.84267 9.82208 7.90089 9.85088 7.9414C9.87968 7.98191 9.93824 8.15026 9.98144 8.31507C10.0675 8.64035 10.1094 8.71312 10.2365 8.76425C10.2826 8.78274 10.3379 8.84961 10.3603 8.91175C10.3827 8.97429 10.4218 9.02582 10.4467 9.02582C10.5043 9.02582 10.536 9.28857 10.4861 9.35229C10.4605 9.38454 10.4631 9.40053 10.4941 9.40027C10.5283 9.40027 10.5296 9.42348 10.4995 9.49467C10.4538 9.60402 10.5232 9.72831 10.6304 9.72831C10.6701 9.72831 10.6848 9.75467 10.671 9.7999C10.6592 9.83845 10.6643 9.86991 10.6816 9.86991C10.7328 9.86991 10.7574 10.0658 10.7178 10.1594C10.6886 10.229 10.6669 10.2369 10.6083 10.1972C10.5683 10.1696 10.52 10.1594 10.5014 10.174C10.4829 10.1885 10.4576 10.1787 10.4448 10.1527C10.432 10.1264 10.3638 10.1039 10.2934 10.1039C10.1808 10.1039 10.1667 10.0921 10.1782 9.99971C10.1856 9.9415 10.2227 9.81406 10.2602 9.71769C10.3366 9.52221 10.3133 9.43961 10.2141 9.55328C10.165 9.60333 10.1079 9.63994 10.0464 9.66066C9.96448 9.68701 9.95264 9.7055 9.98656 9.75781C10.0208 9.81013 10.0122 9.82271 9.94176 9.82153C9.88428 9.81686 9.82899 9.79262 9.78208 9.75152C9.70048 9.67285 9.57728 9.65869 9.57728 9.72831C9.57728 9.75427 9.62848 9.77591 9.69248 9.77591C9.80128 9.77591 9.80672 9.78377 9.78528 9.92065C9.76032 10.0796 9.80416 10.1645 9.93408 10.2078C9.98464 10.2247 10.0224 10.2109 10.0346 10.17C10.0634 10.0756 10.1219 10.0898 10.1491 10.1987C10.1773 10.312 10.1197 10.3915 9.94592 10.478C9.87488 10.5134 9.79104 10.5704 9.75904 10.6051C9.66784 10.7034 9.61408 10.6798 9.61088 10.539C9.60928 10.4682 9.6 10.4351 9.5904 10.4658C9.58048 10.4969 9.51584 10.5453 9.44704 10.5744C9.3216 10.6271 9.23136 10.8112 9.31392 10.8462C9.37056 10.8702 9.36672 10.9496 9.30912 10.95C9.22368 10.9504 8.97952 11.0507 8.99968 11.0767C9.01088 11.0908 8.97792 11.2057 8.92704 11.3331C8.87488 11.4641 8.8448 11.6037 8.85728 11.6529C8.87328 11.7162 8.84064 11.7756 8.73888 11.8728C8.49632 12.104 8.3952 12.2307 8.3952 12.3027C8.3952 12.3416 8.42336 12.4852 8.45728 12.6213C8.50784 12.8254 8.51008 12.8828 8.47104 12.9426C8.4448 12.9828 8.4112 13.015 8.39744 13.015C8.36032 13.015 8.21024 12.6642 8.21024 12.578C8.21024 12.4773 8.17888 12.4588 7.9328 12.4219C7.74272 12.3935 7.7216 12.399 7.74208 12.4679C7.76768 12.5528 7.67264 12.5646 7.45408 12.5041C7.37472 12.482 7.3104 12.5005 7.22688 12.5686C7.12224 12.6543 7.10848 12.6929 7.08608 12.9682C7.0592 13.2955 7.09216 13.4701 7.20768 13.6172C7.30272 13.738 7.55744 13.6943 7.57664 13.5543C7.58729 13.4957 7.61258 13.4428 7.64896 13.4028C7.71072 13.3419 7.95296 13.3202 7.95296 13.3761C7.95296 13.4119 7.88512 13.6888 7.83776 13.8485C7.80864 13.9468 7.81568 13.9539 7.94976 13.9539C8.18656 13.9539 8.21024 13.9818 8.21024 14.2572C8.21024 14.5789 8.3104 14.748 8.45088 14.6666C8.48026 14.6481 8.51265 14.6379 8.54566 14.6368C8.57867 14.6357 8.61145 14.6438 8.6416 14.6603C8.7264 14.7016 8.75168 14.693 8.81728 14.595C8.89568 14.4782 9.20704 14.3472 9.20704 14.4314C9.20704 14.4566 9.24032 14.4637 9.28032 14.4475C9.32 14.4318 9.38976 14.444 9.43584 14.4751C9.48192 14.5065 9.61632 14.5301 9.73408 14.5289C9.91552 14.527 9.96448 14.5459 10.0547 14.6513C10.311 14.9494 10.4118 15.034 10.5123 15.034C10.5993 15.033 10.6845 15.0638 10.7571 15.1225C10.8298 15.1812 10.8866 15.2651 10.9203 15.3636C10.9555 15.4659 10.9744 15.5701 10.9616 15.5961C10.961 15.5976 10.9834 15.598 10.9853 15.5992L10.9786 15.6071L11.2198 15.6916L11.3427 15.7868C11.4102 15.8391 11.5427 15.8942 11.6378 15.9103C11.7328 15.9265 11.8602 15.9878 11.921 16.0456C11.9818 16.1035 12.0653 16.1585 12.1059 16.1676C12.1632 16.1809 12.1824 16.2274 12.191 16.3753C12.2006 16.5424 12.1805 16.5983 12.0333 16.8252C11.896 17.0376 11.8659 17.119 11.8659 17.2724C11.8659 17.4955 11.8099 17.7173 11.696 17.949C11.6298 18.0839 11.5824 18.1252 11.4656 18.1492C11.2672 18.1893 11.0902 18.3813 11.0902 18.5563C11.0902 18.69 10.9754 18.9614 10.8422 19.1416C10.8038 19.1931 10.7338 19.3056 10.6864 19.3921C10.6138 19.5251 10.5824 19.5463 10.481 19.531C10.3616 19.5133 10.3421 19.5483 10.4035 19.6734C10.4787 19.8268 10.2816 20.0565 10.0739 20.0565C10.0051 20.0565 9.97792 20.0907 9.95296 20.2095C9.92608 20.3369 9.90496 20.3605 9.82272 20.353C9.76864 20.3483 9.7248 20.3633 9.7248 20.3876C9.7248 20.412 9.74752 20.4313 9.776 20.4313C9.86112 20.4313 9.87648 20.5666 9.79712 20.6201C9.75744 20.6476 9.7248 20.7055 9.7248 20.7487C9.7248 20.792 9.67872 20.8758 9.62272 20.9348L9.5216 21.0422L9.608 21.1342C9.70432 21.2384 9.69376 21.3537 9.576 21.4894C9.53568 21.5354 9.50336 21.5944 9.50336 21.62C9.50336 21.6451 9.47456 21.6919 9.43968 21.7242C9.38624 21.7741 9.38368 21.8021 9.42144 21.9079C9.44608 21.9767 9.46592 22.0703 9.46592 22.1163C9.46592 22.2107 9.6128 22.4035 9.68416 22.4035C9.70976 22.4035 9.72384 22.4302 9.7152 22.4625C9.70016 22.5199 9.43904 22.5451 9.25216 22.5073C9.19584 22.4955 9.17024 22.4641 9.17856 22.4117C9.18496 22.3685 9.15872 22.3118 9.11968 22.2859C9.07894 22.2582 9.04476 22.2179 9.02048 22.1691C8.96352 22.0271 8.904 21.5684 8.91808 21.384C8.92832 21.2451 8.91968 21.2007 8.88544 21.2172C8.85664 21.2313 8.8384 21.2007 8.8384 21.1366C8.8384 21.0724 8.86656 21.0237 8.912 21.0083C8.95296 20.995 8.98592 20.9466 8.98592 20.9002C8.98592 20.8537 8.9968 20.7822 9.00896 20.7409C9.02389 20.691 9.01003 20.6663 8.96736 20.6665C8.91872 20.6665 8.90944 20.6413 8.92704 20.5611C8.93984 20.5033 8.96 20.318 8.97184 20.1501C8.98304 19.9825 9.024 19.7457 9.06272 19.625C9.10176 19.5038 9.13344 19.3142 9.13344 19.2029C9.13344 19.0916 9.15904 18.8356 9.18976 18.633C9.22214 18.4025 9.24054 18.1694 9.2448 17.9356C9.2448 17.652 9.23328 17.595 9.1616 17.5191C9.11584 17.4707 9.06432 17.4298 9.04704 17.4294C8.94304 17.4239 8.78656 17.1914 8.6528 16.8433C8.56992 16.6278 8.46976 16.4154 8.4304 16.3697C8.35808 16.2868 8.3344 16.1125 8.38592 16.0464C8.40128 16.0268 8.41408 15.9442 8.41408 15.8627V15.7145L8.46912 15.6079C8.46912 15.5882 8.51456 15.5103 8.57024 15.434C8.62592 15.3577 8.66688 15.2523 8.66144 15.2C8.62944 14.8814 8.60928 14.7988 8.56032 14.7988C8.53088 14.7988 8.50656 14.8306 8.50656 14.8696C8.50656 14.9482 8.41248 14.9652 8.37728 14.8924C8.36864 14.8783 8.35754 14.8668 8.3448 14.8587C8.33206 14.8506 8.31801 14.8461 8.30368 14.8456C8.2352 14.8456 7.99328 14.6466 7.98976 14.5876C7.98336 14.4833 7.85088 14.3472 7.69408 14.2839C7.60256 14.2473 7.48032 14.1683 7.42208 14.1081C7.34144 14.0243 7.2896 14.0054 7.19968 14.0267C7.11136 14.0479 7.01024 14.0133 6.78976 13.8851C6.4368 13.6805 6.35904 13.5999 6.38592 13.4642C6.40064 13.3902 6.36416 13.3076 6.24704 13.1503C5.99808 12.8148 5.81568 12.5186 5.776 12.3857C5.75584 12.3188 5.72224 12.2637 5.70144 12.2637C5.6416 12.2637 5.65664 12.3338 5.74656 12.4663C5.79232 12.534 5.87072 12.6901 5.9216 12.8136C5.97216 12.9371 6.03552 13.0559 6.0608 13.0764C6.08608 13.0968 6.10656 13.144 6.10656 13.1818C6.10656 13.2191 6.0864 13.249 6.0608 13.2486C5.99264 13.2463 5.80352 13.0213 5.82784 12.9713C5.83936 12.9474 5.79456 12.8805 5.72864 12.8219C5.68229 12.7818 5.63641 12.7409 5.59104 12.6992C5.58144 12.6893 5.59776 12.6626 5.6272 12.6394C5.67264 12.6036 5.67104 12.5843 5.6144 12.5127C5.57856 12.4659 5.50976 12.3338 5.46272 12.2177C5.4144 12.0978 5.33152 11.977 5.27168 11.9392C5.14368 11.8594 5.11296 11.809 4.96032 11.4311C4.84672 11.1494 4.84192 11.1144 4.83712 10.5472C4.83296 10.0241 4.82464 9.94858 4.76224 9.89037C4.54688 9.69055 4.47744 9.58199 4.52096 9.51473C4.5552 9.46242 4.5504 9.42033 4.4992 9.31885C4.46304 9.24805 4.4112 9.17332 4.384 9.15247C4.3568 9.13163 4.33472 9.06201 4.33472 8.99868C4.33032 8.92433 4.30378 8.85459 4.26016 8.8028C4.21984 8.75835 4.18656 8.69542 4.18656 8.66277C4.18656 8.58214 4.06976 8.41379 4.03328 8.44251C4.01728 8.45509 3.99392 8.41104 3.9808 8.34575C3.96608 8.27101 3.93152 8.22735 3.888 8.22735C3.8496 8.22735 3.74208 8.15262 3.64896 8.06215C3.5312 7.94809 3.44096 7.89853 3.35296 7.89853C3.28064 7.89853 3.16192 7.84739 3.0784 7.78053C2.99776 7.71523 2.93152 7.6818 2.93152 7.70579C2.93152 7.72939 2.95232 7.7585 2.97792 7.76951C3.01408 7.78525 3.01376 7.80491 2.97536 7.86391C2.94848 7.90521 2.90272 7.92842 2.87456 7.91465C2.84672 7.90089 2.78624 7.9237 2.74016 7.96461C2.60405 8.08602 2.54933 8.06163 2.576 7.89145L2.59904 7.74473L2.52544 7.86391C2.48448 7.9296 2.46048 8.01535 2.47232 8.05389C2.48384 8.09205 2.47552 8.13728 2.45408 8.15419C2.44264 8.16425 2.43321 8.17737 2.4265 8.19257C2.41979 8.20776 2.41598 8.22463 2.41536 8.24191C2.41568 8.27259 2.43328 8.26039 2.45376 8.21516C2.47488 8.16993 2.5152 8.13374 2.54336 8.13374C2.63584 8.13374 2.58496 8.34929 2.46208 8.48105L2.34368 8.60771L2.35328 8.44251C2.3648 8.25764 2.37568 8.25331 2.10976 8.56247C2.02656 8.65923 1.94432 8.72767 1.92768 8.7143C1.91104 8.70093 1.89792 8.72492 1.89792 8.76661C1.89792 8.80831 1.8816 8.83033 1.86208 8.81499C1.84288 8.79965 1.76768 8.81893 1.69536 8.85747C1.53856 8.94047 1.5104 8.94479 1.5104 8.88737C1.5104 8.84174 1.7696 8.60299 1.81856 8.60299C1.8688 8.60299 2.07328 8.32372 2.0928 8.22814C2.1088 8.15065 2.1008 8.142 2.04544 8.17976C1.99648 8.2128 1.97376 8.20611 1.9584 8.15616C1.94368 8.10699 1.9056 8.09598 1.8272 8.11604C1.72608 8.14161 1.7184 8.13374 1.7328 8.03069C1.74656 7.93353 1.7344 7.91859 1.64768 7.92016C1.56864 7.92134 1.54688 7.89971 1.54592 7.81868C1.54528 7.76204 1.5056 7.67236 1.45728 7.61887C1.44736 7.60785 1.44704 7.60313 1.44032 7.59448V7.37146C1.51328 7.24953 1.72032 7.05365 1.78592 7.05365C1.83328 7.05365 1.83616 6.92778 1.78976 6.8912C1.77056 6.87665 1.74464 6.8853 1.73152 6.91205C1.71872 6.93879 1.68864 6.94509 1.66464 6.92503C1.63419 6.90328 1.60042 6.88949 1.56544 6.88451C1.52743 6.88104 1.48945 6.87698 1.45152 6.87232C1.44832 6.87193 1.44384 6.86642 1.44032 6.86445V6.36689C1.48864 6.33031 1.54048 6.30199 1.58016 6.30199C1.6128 6.30199 1.63904 6.33424 1.63904 6.37279C1.63904 6.41173 1.66432 6.44359 1.69472 6.44359C1.72544 6.44359 1.7504 6.40111 1.7504 6.34919C1.7504 6.29727 1.7344 6.25518 1.71456 6.25518C1.69536 6.25518 1.60448 6.16353 1.51328 6.05065C1.4768 6.00581 1.46208 5.97749 1.44032 5.94445V5.66007C1.45536 5.65417 1.46784 5.64551 1.48896 5.64551C1.56896 5.64551 1.60064 5.60933 1.65216 5.46065C1.7136 5.28443 1.93856 5.05237 2.02976 5.07282C2.05184 5.07793 2.09984 5.04096 2.136 4.99022C2.19424 4.90801 2.2128 4.90487 2.2992 4.95993C2.35232 4.99415 2.44192 5.03585 2.4976 5.05315C2.5536 5.07007 2.59904 5.10429 2.59904 5.12985C2.59904 5.15503 2.65024 5.17587 2.71168 5.17587C2.77312 5.17587 2.88256 5.20734 2.9552 5.24589C3.02816 5.28443 3.15136 5.31669 3.22912 5.31669C3.30656 5.31669 3.3792 5.33517 3.3904 5.35799C3.40128 5.3808 3.46688 5.41305 3.53536 5.42957C3.60384 5.44609 3.6896 5.50116 3.72608 5.55229C3.82112 5.68603 3.8912 5.66911 4.14464 5.45396C4.30336 5.31944 4.39232 5.27224 4.44544 5.29348C4.4944 5.31315 4.51744 5.3041 4.51104 5.26752C4.50528 5.23605 4.5216 5.20183 4.5472 5.18964C4.5744 5.17705 4.61888 5.24156 4.65472 5.34697L4.71584 5.52791L4.75424 5.39889C4.79808 5.24785 4.83552 5.23369 4.8608 5.35799C4.87424 5.42249 4.90304 5.44059 4.96704 5.42485C5.01824 5.41227 5.13536 5.45396 5.2448 5.52397C5.3488 5.59045 5.47392 5.64551 5.52288 5.64551C5.56992 5.64551 5.6256 5.66951 5.65152 5.69901L5.72096 5.83117C5.72544 5.84336 5.70496 5.87679 5.67168 5.90865C5.61504 5.96372 5.624 5.97159 5.74848 5.97277C5.82592 5.97355 5.92128 5.95231 5.95904 5.92635C6.00533 5.89489 6.03595 5.89489 6.05088 5.92635C6.06368 5.95231 6.09824 5.97395 6.12768 5.97395C6.2096 5.89764 6.31136 5.73362 6.55168 5.87955C6.5888 5.87955 6.62848 5.89882 6.63968 5.92203C6.65088 5.94523 6.71712 5.96293 6.78656 5.96018C6.88768 5.95664 6.91552 5.93383 6.92832 5.84729C6.93888 5.77728 6.928 5.73913 6.89536 5.73913C6.82944 5.73913 6.83072 5.72772 6.92544 5.52397L7.00608 5.35051L7.12704 5.51965C7.20416 5.62585 7.25792 5.66872 7.27424 5.63529C7.288 5.60657 7.25632 5.53538 7.20352 5.47795C7.12672 5.39378 7.10816 5.33242 7.10976 5.17037C7.11104 5.05905 7.13632 4.91981 7.16608 4.86239C7.20576 4.78529 7.21312 4.69089 7.19488 4.50209C7.15776 4.12567 7.19744 3.95064 7.34016 3.93215ZM7.1072 4.05212L7.0864 4.21811C7.07264 4.32785 7.0832 4.40612 7.11712 4.44899C7.18944 4.54103 7.16576 4.78726 7.07328 4.89621C6.96544 5.02405 6.90816 5.01107 6.85088 4.84705C6.824 4.76956 6.78432 4.70663 6.76288 4.70663C6.70848 4.70663 6.6256 4.55913 6.624 4.46001C6.62272 4.36561 6.69856 4.35105 6.76352 4.43365C6.82016 4.50603 6.82048 4.44703 6.76352 4.31565C6.66912 4.09775 6.69824 4.05999 6.96704 4.05448L7.1072 4.05212ZM24.0704 4.15714C24.0734 4.14665 24.0621 4.14718 24.0365 4.15871C24.0037 4.17417 23.9696 4.18448 23.9347 4.18939C23.9162 4.18939 23.9014 4.22165 23.9014 4.26019C23.9014 4.35184 23.9101 4.35066 24.0154 4.2303C24.0489 4.19228 24.0672 4.16789 24.0704 4.15714ZM29.9216 4.8557C30.0346 4.87694 30.104 5.02208 30.0298 5.08226C29.9478 5.14873 29.7338 5.13969 29.7354 5.07007C29.7376 4.956 29.839 4.83997 29.9216 4.8557ZM21.0422 5.02523C21.0291 5.04214 21.0218 5.13811 21.0214 5.31865C21.0211 5.67108 21.0746 5.85673 21.1386 5.72693C21.1565 5.69035 21.145 5.66243 21.1078 5.6522C21.0586 5.63883 21.0522 5.59045 21.0704 5.37018C21.0822 5.22425 21.0768 5.07321 21.0576 5.03467C21.0516 5.02313 21.0465 5.01998 21.0422 5.02523ZM21.8464 5.05984C21.8413 5.06692 21.8349 5.09511 21.8272 5.14441C21.8134 5.22976 21.8186 5.26083 21.8416 5.23094C21.8611 5.20616 21.8714 5.14637 21.8634 5.09839C21.8578 5.06587 21.8522 5.05302 21.8464 5.05984ZM19.0752 5.47677C19.0928 5.47756 19.1114 5.49644 19.1434 5.53302C19.2086 5.60815 19.209 5.61955 19.1517 5.69979C19.0883 5.78869 19.0218 5.80953 18.9786 5.75447C18.9366 5.70137 18.9517 5.60815 19.0138 5.52869C19.0416 5.49329 19.0579 5.47599 19.0752 5.47677ZM8.824 5.841C8.8736 5.8528 8.89408 5.89843 8.89408 5.99833C8.89408 6.11633 8.87776 6.14111 8.79232 6.1537C8.7072 6.16589 8.69056 6.15095 8.69088 6.05969C8.69184 5.90629 8.74304 5.82094 8.824 5.841ZM21.0954 5.88033C21.0749 5.88033 21.0586 5.92124 21.0586 5.97159C21.0586 6.02154 21.0419 6.07621 21.0214 6.09195C20.9846 6.12105 20.969 6.25557 21.0022 6.25557C21.0118 6.25557 21.0451 6.19343 21.0758 6.11751C21.1414 5.95703 21.1475 5.87994 21.095 5.87994M20.9254 6.28389C20.9081 6.28122 20.8904 6.28296 20.8736 6.28901C20.833 6.30277 20.7994 6.32165 20.7994 6.33149C20.7994 6.34132 20.8333 6.34919 20.8736 6.34919C20.9142 6.34919 20.9472 6.33031 20.9472 6.30671C20.9472 6.29491 20.9386 6.28704 20.9254 6.28389ZM13.1891 6.30828C13.2198 6.30828 13.2483 6.34093 13.2848 6.40661C13.3162 6.46365 13.3427 6.48921 13.3427 6.46168C13.3427 6.43415 13.4122 6.4074 13.4973 6.40347C13.5824 6.39953 13.6621 6.37593 13.6739 6.35115C13.7155 6.2658 13.841 6.35627 13.9053 6.51871C13.9642 6.66739 13.9651 6.69139 13.913 6.79287C13.881 6.85423 13.7981 6.9384 13.729 6.9797C13.6602 7.02139 13.5936 7.07685 13.5818 7.10163C13.5514 7.16457 13.4893 7.1567 13.3795 7.07725C13.329 7.04067 13.2566 7.02218 13.2192 7.03673C13.1594 7.05915 13.1533 7.04342 13.1754 6.91677C13.1962 6.79601 13.1904 6.77635 13.1421 6.79995C13.0682 6.83613 13.0678 6.7791 13.1408 6.67644C13.193 6.60289 13.1894 6.59856 13.1034 6.61941C12.9898 6.64694 12.9818 6.56041 13.0822 6.4074C13.1258 6.34093 13.1584 6.30867 13.1891 6.30828ZM5.13728 6.37121C5.13143 6.36948 5.12535 6.36921 5.11941 6.37043C5.11348 6.37164 5.1078 6.37432 5.10272 6.37829C5.07819 6.39848 5.08213 6.42208 5.11456 6.44909C5.14656 6.47505 5.152 6.50259 5.12832 6.52501C5.05696 6.59305 4.99008 6.72482 5.0272 6.72482C5.04768 6.72482 5.0736 6.69571 5.0848 6.65953C5.09568 6.62295 5.15584 6.5785 5.21792 6.56119C5.36064 6.52107 5.4016 6.44319 5.27968 6.44319C5.2288 6.44319 5.17728 6.42117 5.16448 6.39521C5.16151 6.38918 5.15757 6.38398 5.15288 6.37992C5.1482 6.37585 5.14289 6.37263 5.13728 6.37121ZM30.5565 7.02061V7.15041C30.5046 7.09888 30.5053 7.04342 30.5565 7.02061ZM8.63104 7.05404H8.63168C8.65984 7.05404 8.69248 7.08551 8.704 7.12484C8.72544 7.19525 8.65216 7.22396 8.6048 7.16378C8.5632 7.11107 8.57664 7.05404 8.63104 7.05404ZM8.29728 7.20115C8.35552 7.21649 8.35616 7.22593 8.30208 7.32308C8.24608 7.42456 8.13664 7.4694 8.13664 7.39073C8.13664 7.30499 8.2384 7.18541 8.29728 7.20115ZM8.50272 7.33527C8.55488 7.33527 8.56864 7.35966 8.55392 7.42967C8.53216 7.53705 8.49088 7.58189 8.456 7.53745C8.4032 7.47058 8.43456 7.33527 8.50272 7.33527ZM5.75232 7.46586C5.73376 7.45249 5.67744 7.49143 5.6272 7.55279C5.51968 7.68377 5.57984 7.70343 5.70208 7.57757C5.74848 7.52997 5.77088 7.47963 5.75232 7.46586ZM17.5661 7.5697C17.5318 7.5697 17.5309 7.59645 17.5629 7.6818C17.599 7.78013 17.6992 7.80373 17.6992 7.71484C17.6992 7.66213 17.6141 7.5697 17.5661 7.5697ZM1.44032 7.76794C1.47296 7.77699 1.49152 7.79508 1.48512 7.83638C1.47872 7.87965 1.46272 7.90718 1.44032 7.92016V7.76794ZM16.9248 8.20257C16.9014 8.22106 16.9046 8.26472 16.9334 8.32333C16.9821 8.42245 17.0186 8.36541 16.9827 8.24663C16.9709 8.20729 16.9446 8.18684 16.9248 8.20257ZM16.5728 8.22735C16.6394 8.22735 16.6458 8.32726 16.584 8.40553C16.521 8.48577 16.4688 8.47476 16.4954 8.38705C16.5075 8.34614 16.5171 8.29343 16.5171 8.26944C16.5171 8.24584 16.5424 8.22735 16.5728 8.22735ZM28.719 8.74262V8.74341C28.7494 8.74341 28.7747 8.75206 28.7747 8.76307C28.7747 8.77369 28.785 8.81578 28.7971 8.85669C28.8237 8.94401 28.7709 8.95502 28.7075 8.87478C28.6477 8.79847 28.6522 8.74341 28.719 8.74341M4.18272 8.93221C4.23808 8.93221 4.2608 8.96171 4.26272 9.03683C4.26432 9.09465 4.27296 9.18984 4.2816 9.24805C4.30016 9.3751 4.2896 9.37903 4.21344 9.27165C4.17448 9.2088 4.14619 9.13698 4.13024 9.06043C4.1088 8.9503 4.11648 8.93221 4.18272 8.93221ZM1.44096 8.95384C1.44736 8.95541 1.4544 8.95541 1.45984 8.95974C1.47648 8.97311 1.46592 9.00419 1.44064 9.03526L1.44096 8.95384ZM6.98464 9.12022C6.95168 9.12101 6.9536 9.13477 6.99232 9.16663C7.02272 9.19141 7.03392 9.21226 7.01792 9.21265C7.00128 9.21265 6.99872 9.23586 7.01216 9.26339C7.04704 9.33459 7.07936 9.27834 7.05344 9.19181C7.04128 9.15208 7.01056 9.11983 6.98464 9.12022ZM29.2934 9.16703C29.335 9.16703 29.3597 9.18787 29.3472 9.21383C29.3344 9.2394 29.2995 9.26064 29.2704 9.26064C29.241 9.26064 29.2173 9.23979 29.2173 9.21344C29.2173 9.18787 29.2515 9.16703 29.2934 9.16703ZM30.3254 9.26064C30.3456 9.26064 30.3616 9.28149 30.3616 9.30784C30.3616 9.33341 30.3456 9.35425 30.3254 9.35425C30.3162 9.35278 30.3077 9.34721 30.3015 9.3386C30.2954 9.32998 30.292 9.31891 30.292 9.30745C30.292 9.29598 30.2954 9.28491 30.3015 9.27629C30.3077 9.26768 30.3162 9.26212 30.3254 9.26064ZM30.4726 9.26064C30.4931 9.26064 30.5098 9.28149 30.5098 9.30784C30.5098 9.31998 30.506 9.33167 30.4991 9.34036C30.4922 9.34905 30.4828 9.35405 30.473 9.35425C30.4637 9.35278 30.4552 9.34721 30.4491 9.3386C30.4429 9.32998 30.4395 9.31891 30.4395 9.30745C30.4395 9.29598 30.4429 9.28491 30.4491 9.27629C30.4552 9.26768 30.4634 9.26212 30.4726 9.26064ZM29.6845 9.31689C29.6928 9.32082 29.6971 9.33052 29.6973 9.34599C29.6973 9.37117 29.6717 9.40381 29.6394 9.41955C29.6035 9.43725 29.5866 9.42741 29.5955 9.3928C29.6093 9.34009 29.6598 9.30469 29.6845 9.31689ZM30.1306 9.35111C30.1453 9.34914 30.1635 9.36959 30.1706 9.39752C30.1776 9.42545 30.1411 9.44826 30.0886 9.44826C30.0362 9.44826 29.9933 9.42781 29.9933 9.40185C29.9933 9.37628 30.0182 9.35465 30.0486 9.35465C30.079 9.35465 30.1158 9.35347 30.1306 9.35111ZM7.85536 9.93993C7.81472 9.94189 7.77568 9.96235 7.72384 10.0013C7.61056 10.0862 7.58112 10.183 7.68512 10.1287C7.81216 10.0623 7.8816 10.0465 7.87552 10.0874C7.86272 10.1783 7.88192 10.2082 7.9376 10.181C7.9696 10.1653 8.01056 10.1527 8.02944 10.1527C8.08928 10.1527 8.0656 10.0233 7.99872 9.98673C7.93888 9.95369 7.89632 9.93757 7.85568 9.93953M19.2573 10.1822C19.1446 10.1885 18.9725 10.3171 18.9398 10.4194C18.9085 10.5166 18.983 10.7585 19.1034 10.952C19.1674 11.0542 19.2026 11.1376 19.1808 11.1376C19.1597 11.1376 19.1229 11.1825 19.0998 11.2375C19.0634 11.3241 19.072 11.3536 19.1629 11.448C19.2205 11.5085 19.2902 11.5471 19.3171 11.5349C19.3439 11.5232 19.3719 11.5159 19.4003 11.5133C19.4509 11.5133 19.4416 11.3127 19.3859 11.2069C19.3594 11.1557 19.3347 11.0468 19.3302 10.9642C19.3258 10.8721 19.2803 10.7537 19.2122 10.6593C19.1395 10.5579 19.1168 10.4977 19.1472 10.4847C19.1728 10.4741 19.217 10.4355 19.2461 10.3989C19.2749 10.362 19.3376 10.3411 19.3859 10.3525C19.4682 10.3726 19.4714 10.3683 19.4214 10.275C19.3853 10.2074 19.3331 10.1775 19.2573 10.1822ZM18.0835 10.2168C18.0622 10.2132 18.0406 10.2154 18.0201 10.2233C17.9996 10.2313 17.9808 10.2448 17.9651 10.2629C17.9094 10.3344 17.9126 10.3396 18.0035 10.3396C18.0573 10.3396 18.1114 10.3187 18.1242 10.2927C18.1443 10.2511 18.1206 10.2239 18.0842 10.2168H18.0835ZM27.4698 10.255C27.4781 10.2589 27.4823 10.2686 27.4826 10.2841C27.4826 10.3097 27.457 10.3423 27.425 10.358C27.3888 10.3757 27.3718 10.3655 27.3808 10.3313C27.3949 10.2786 27.4451 10.2432 27.4698 10.255ZM17.6621 10.2806C17.6227 10.2735 17.5738 10.2837 17.5523 10.3167C17.5306 10.3498 17.4733 10.4741 17.4253 10.5948C17.3491 10.786 17.3456 10.8222 17.393 10.882C17.4611 10.9685 17.5869 10.9669 17.679 10.878C17.7718 10.7891 17.9373 10.7899 18.0077 10.8796C18.0704 10.9591 18.3168 10.9732 18.401 10.902C18.447 10.8627 18.4349 10.8312 18.3274 10.7144C18.121 10.4906 18.0054 10.43 17.9027 10.4894C17.833 10.5299 17.8022 10.5248 17.7546 10.4642C17.7216 10.4222 17.704 10.3687 17.7152 10.3458C17.7318 10.3116 17.7018 10.2876 17.6621 10.2806ZM19.9846 10.3144C19.9618 10.3145 19.9393 10.3221 19.9197 10.3364C19.825 10.4009 19.8154 10.5606 19.9053 10.5862C19.9834 10.6082 19.9706 10.6176 20.0179 10.5016C20.0608 10.3966 20.04 10.3183 19.9846 10.3144ZM8.20032 10.325C8.19456 10.336 8.2096 10.3812 8.24288 10.4823C8.27648 10.5842 8.30752 10.6672 8.31296 10.6676C8.31808 10.6676 8.32224 10.6098 8.32224 10.5386C8.32224 10.4619 8.29344 10.3864 8.25216 10.3537C8.23982 10.343 8.22688 10.3334 8.21344 10.325C8.20683 10.3219 8.20245 10.3219 8.20032 10.325ZM8.39168 10.3396C8.3712 10.3396 8.36448 10.3612 8.37728 10.3871C8.38976 10.4131 8.41696 10.4332 8.43712 10.4332C8.4576 10.4332 8.46336 10.4131 8.45088 10.3871C8.43808 10.3616 8.41184 10.3396 8.39168 10.3396ZM27.304 10.3399C27.3626 10.3399 27.321 10.443 27.2317 10.5181C27.1846 10.5579 27.1504 10.5661 27.1504 10.5378C27.1504 10.4749 27.255 10.3399 27.304 10.3399ZM16.1216 10.3415C16.1155 10.3419 16.1078 10.3635 16.0934 10.406C16.0732 10.4653 16.0806 10.5122 16.1158 10.5468C16.1446 10.5752 16.1978 10.657 16.2342 10.7286C16.2701 10.8005 16.3158 10.847 16.3354 10.8316C16.3549 10.8163 16.3808 10.8359 16.393 10.8753C16.4048 10.9146 16.4448 10.9594 16.4816 10.9744C16.5488 11.0019 16.6096 11.1317 16.5754 11.175C16.5651 11.188 16.5293 11.1695 16.4954 11.1337C16.4403 11.0755 16.4362 11.0794 16.4592 11.1711C16.4771 11.2434 16.4624 11.3032 16.409 11.3709C16.3674 11.424 16.3334 11.4873 16.3334 11.5117C16.3334 11.6002 16.2595 11.6096 16.1478 11.5361C16.0141 11.448 16.0214 11.3504 16.1616 11.3473C16.329 11.3433 16.3651 11.2489 16.2512 11.1144C16.1968 11.0503 16.136 10.9976 16.1171 10.9976C16.0771 10.9976 15.871 10.7081 15.8442 10.6141C15.8298 10.5645 15.7949 10.5732 15.6816 10.6526C15.577 10.7262 15.5194 10.7415 15.4736 10.7089C15.3946 10.6526 15.3373 10.6943 15.3373 10.8072C15.3373 10.8544 15.2784 10.9488 15.207 11.0177C15.1254 11.0967 15.0784 11.1829 15.0784 11.2513C15.0784 11.4106 14.9235 11.5982 14.7776 11.6159C14.7094 11.6242 14.6541 11.6525 14.6541 11.6781C14.6541 11.7622 14.8973 11.7434 15.0227 11.649C15.143 11.5585 15.8106 11.4488 15.9187 11.5015C15.9744 11.529 15.9802 11.824 15.9251 11.8673C15.8659 11.9141 16.0026 12.0266 16.121 12.0285C16.1876 12.0347 16.2504 12.0692 16.2986 12.1261C16.4214 12.2826 16.6291 12.3648 16.6291 12.2567C16.6291 12.0974 16.8522 11.9656 16.9446 12.0702C16.9638 12.0919 17.0739 12.1461 17.1891 12.1906C17.3475 12.2519 17.4298 12.2602 17.527 12.226C17.599 12.2008 17.6694 12.1984 17.687 12.2213C17.7418 12.2909 17.8877 12.2106 17.9235 12.0915C17.9421 12.0285 17.9578 11.8928 17.9578 11.7898C17.9578 11.6155 17.9514 11.6041 17.8746 11.6368C17.8291 11.6564 17.7584 11.6682 17.7178 11.6635C17.6606 11.6581 17.6033 11.6553 17.5459 11.6553C17.4013 11.6553 17.2566 11.5734 17.2566 11.4916C17.2566 11.4523 17.2381 11.42 17.215 11.42C17.192 11.42 17.1827 11.378 17.1936 11.3256C17.2042 11.2741 17.1987 11.232 17.1821 11.232C17.1658 11.232 17.1616 11.1899 17.1725 11.138C17.1872 11.0656 17.1738 11.0444 17.1117 11.0444C17.0669 11.0444 17.0413 11.0653 17.0541 11.0916C17.0669 11.1172 17.0509 11.1518 17.0189 11.1675C16.9507 11.2006 16.9421 11.3103 17.0061 11.337C17.0659 11.3626 16.9629 11.6328 16.8934 11.632C16.8336 11.6313 16.7398 11.4759 16.7392 11.3756C16.7386 11.3355 16.7056 11.2497 16.6659 11.1852C16.6262 11.1203 16.5933 11.0216 16.593 10.9646C16.5925 10.8956 16.5369 10.8126 16.4259 10.7156C16.3347 10.6357 16.2595 10.5402 16.2595 10.5036C16.2595 10.4654 16.2378 10.4477 16.2077 10.4623C16.177 10.4772 16.1491 10.4528 16.1398 10.4021C16.1322 10.3616 16.1277 10.3411 16.1216 10.3415ZM7.9984 10.3608C7.99039 10.3616 7.98257 10.3643 7.97536 10.3687C7.9168 10.397 7.88032 10.5346 7.87968 10.7305C7.87968 10.8068 7.89504 10.8501 7.91648 10.8332C7.93696 10.8175 7.94336 10.7526 7.93088 10.6896H7.93024C7.91786 10.6095 7.93128 10.5266 7.96768 10.4583C8.00288 10.3903 8.01248 10.3628 7.99776 10.3616L7.9984 10.3608ZM15.7898 10.725C15.871 10.7042 15.8771 11.2576 15.7962 11.2973C15.7651 11.3123 15.7318 11.2965 15.7216 11.2627C15.6826 11.1337 15.7325 10.7396 15.7898 10.725ZM19.409 10.9209C19.4026 10.9248 19.3978 10.9339 19.3978 10.9476C19.3978 10.9752 19.4144 10.9976 19.4346 10.9976C19.455 10.9976 19.4717 10.9882 19.4717 10.9768C19.4717 10.9653 19.455 10.9429 19.4346 10.9268C19.4245 10.9189 19.416 10.917 19.409 10.9209ZM15.3226 11.1144C15.3354 11.1152 15.3462 11.1203 15.3514 11.1313C15.3789 11.1872 15.3229 11.2674 15.2723 11.245C15.2467 11.2336 15.2259 11.2076 15.2259 11.1864C15.2259 11.1471 15.2842 11.1117 15.3226 11.1144ZM19.0829 12.4596C19.0715 12.4561 19.0595 12.4572 19.0486 12.4628C19.0365 12.4698 19.0288 12.4864 19.0288 12.5111C19.0288 12.5465 19.0618 12.6213 19.1024 12.6771C19.143 12.7322 19.176 12.7983 19.176 12.8246C19.176 12.8506 19.2016 12.86 19.232 12.8451C19.2723 12.8254 19.2874 12.851 19.2874 12.9403C19.2874 13.111 19.4269 13.1047 19.56 12.9285L19.6618 12.7928L19.5613 12.8176C19.4378 12.8474 19.2429 12.7216 19.1939 12.58C19.1841 12.5509 19.169 12.525 19.1498 12.5042C19.1306 12.4833 19.1075 12.4681 19.0829 12.4596ZM13.8973 12.5462C13.9174 12.5462 13.9347 12.5666 13.9347 12.591C13.9347 12.6154 13.9174 12.648 13.8973 12.6638C13.8768 12.6795 13.8608 12.6602 13.8608 12.6201C13.8608 12.58 13.8768 12.5462 13.8973 12.5462ZM13.6989 12.5639C13.7234 12.556 13.7526 12.5656 13.7866 12.5926C13.8304 12.628 13.8326 12.6484 13.7962 12.6948C13.7626 12.7373 13.7498 12.7385 13.7498 12.6988C13.7498 12.6669 13.7238 12.6563 13.689 12.6732C13.6484 12.6926 13.6339 12.6811 13.6454 12.6386C13.6563 12.5965 13.6752 12.5717 13.6992 12.5639M17.8774 12.696C17.871 12.6947 17.8658 12.6963 17.8618 12.7007C17.8378 12.7314 17.9245 12.9745 18.097 13.36C18.1219 13.4158 18.1427 13.5082 18.143 13.5649C18.1434 13.6215 18.16 13.6809 18.1808 13.697C18.2013 13.7132 18.2416 13.797 18.2701 13.8831C18.2982 13.9692 18.3546 14.0534 18.3949 14.0699C18.4355 14.0861 18.4781 14.1305 18.4893 14.1683C18.5277 14.2957 18.5555 14.2379 18.5293 14.0845C18.4966 13.891 18.3421 13.5488 18.2714 13.5141C18.2416 13.5 18.2176 13.4343 18.2176 13.369C18.2176 13.3037 18.1856 13.2101 18.1472 13.1609C18.1074 13.1102 18.0759 13.0505 18.0544 12.9851C18.0227 12.864 17.9226 12.707 17.8774 12.696ZM8.61376 12.7538C8.66592 12.7468 8.72928 12.7924 8.72928 12.8569C8.72928 12.8927 8.72096 12.9222 8.71072 12.9222C8.70048 12.9222 8.69184 12.9009 8.69184 12.875C8.69184 12.8494 8.656 12.8282 8.6112 12.8282C8.55552 12.8282 8.54144 12.8132 8.56768 12.7798C8.58006 12.7647 8.59638 12.7555 8.61376 12.7538ZM25.0746 12.9348C25.0874 12.934 25.095 12.9505 25.105 12.9843C25.1306 13.0697 25.057 13.3914 25.0112 13.3914C24.9949 13.3914 24.9718 13.3584 24.9594 13.3175C24.9194 13.1845 24.935 13.0791 25.0093 12.9934C25.0422 12.9556 25.0611 12.9363 25.0746 12.9352M8.62656 12.9422C8.63182 12.94 8.63743 12.9394 8.64294 12.9403C8.64845 12.9413 8.65369 12.9438 8.65824 12.9477C8.70304 12.9831 8.70272 13.1106 8.6576 13.1106C8.6384 13.1106 8.6128 13.089 8.6 13.063C8.5776 13.0166 8.59712 12.9556 8.62656 12.9422ZM8.29728 13.1625C8.34048 13.1625 8.39552 13.1759 8.48416 13.2026C8.59808 13.2376 8.69152 13.2797 8.69152 13.2958C8.69152 13.312 8.78368 13.3761 8.89536 13.4386C9.06496 13.5334 9.09792 13.5724 9.09792 13.6715C9.09792 13.7734 9.08128 13.7914 8.984 13.7914C8.9216 13.7914 8.86304 13.782 8.85472 13.7714C8.81984 13.7269 8.84352 13.6738 8.89728 13.6738C8.92864 13.6738 8.94464 13.6518 8.93248 13.6262C8.91968 13.6003 8.8528 13.5798 8.784 13.5798C8.704 13.5798 8.64192 13.548 8.6112 13.4917C8.54656 13.3749 8.32544 13.3124 8.2816 13.3989C8.25536 13.45 8.2432 13.4504 8.21856 13.4017C8.20032 13.3663 8.16032 13.3548 8.12096 13.3741C8.0192 13.4237 8.06912 13.288 8.18272 13.2066C8.21675 13.1789 8.25649 13.1634 8.29728 13.1625ZM8.96928 13.2046C8.99968 13.2046 9.024 13.2243 9.024 13.2486C9.024 13.3076 8.96672 13.3509 8.93728 13.3132C8.89568 13.2601 8.912 13.2046 8.96928 13.2046ZM1.9728 13.2986C1.99296 13.2986 2.0096 13.3194 2.0096 13.3454C2.00953 13.3575 2.00566 13.3691 1.99881 13.3779C1.99196 13.3866 1.98265 13.3917 1.9728 13.3922C1.96786 13.3921 1.96298 13.3908 1.95844 13.3884C1.95391 13.3859 1.94982 13.3824 1.9464 13.378C1.94297 13.3737 1.94029 13.3685 1.93851 13.3628C1.93673 13.3571 1.93587 13.3511 1.936 13.345C1.936 13.3194 1.95264 13.2986 1.9728 13.2986ZM2.0672 13.3454C2.1328 13.3454 2.3792 13.572 2.3792 13.6325C2.3792 13.6498 2.3536 13.6766 2.32224 13.6915C2.2848 13.71 2.2544 13.6805 2.23232 13.6066C2.21376 13.5448 2.16448 13.4807 2.12288 13.4638C2.05568 13.4363 2.0128 13.3454 2.0672 13.3454ZM9.03456 13.3887C9.07872 13.3942 9.06976 13.4587 9.02208 13.4791C8.99808 13.4894 8.98464 13.4725 8.99296 13.4414C9.00096 13.4103 9.02016 13.3863 9.03456 13.3883M9.2192 13.5322C9.31104 13.5322 9.4672 13.6522 9.4672 13.723C9.4672 13.7474 9.4208 13.7675 9.36416 13.7675C9.30752 13.7675 9.24352 13.7887 9.22272 13.815C9.20224 13.8414 9.17408 13.8481 9.16032 13.8308C9.14656 13.8127 9.13472 13.7391 9.13472 13.666C9.13472 13.559 9.15136 13.5322 9.2192 13.5322ZM8.68896 13.679C8.7088 13.6784 8.72855 13.6824 8.7472 13.6908C8.7776 13.7053 8.80288 13.7391 8.80288 13.7659C8.80288 13.8288 8.63008 13.8288 8.59968 13.7667C8.57792 13.7222 8.63008 13.6817 8.68896 13.679ZM9.58752 13.6821C9.63328 13.6904 9.67072 13.7175 9.67072 13.7435C9.67072 13.7694 9.63328 13.7977 9.58752 13.806C9.53024 13.8162 9.50496 13.7966 9.50496 13.7435C9.50496 13.6908 9.53056 13.6719 9.58752 13.6821ZM25.0125 13.6868C25.0276 13.6893 25.0425 13.6936 25.057 13.6998C25.1568 13.7391 25.1434 13.7234 25.1725 13.8426C25.1875 13.9051 25.1757 13.9637 25.1402 14.0011C25.057 14.0888 25.0714 14.1325 25.1949 14.1671C25.28 14.1907 25.3056 14.2233 25.3056 14.3083C25.3056 14.4137 25.3005 14.4153 25.2058 14.3527C25.1507 14.3165 25.0973 14.3004 25.0864 14.3162C25.0752 14.3315 25.087 14.3535 25.1126 14.3653C25.2118 14.4102 25.2685 14.5266 25.2464 14.6395C25.2208 14.7681 25.272 14.7889 25.3546 14.6839C25.4416 14.573 25.5158 14.7358 25.4963 14.995C25.4899 15.0828 25.4275 15.1201 25.3331 15.0934C25.2976 15.0835 25.2688 15.0422 25.2688 15.0029C25.2688 14.9494 25.2448 14.9388 25.176 14.9604C25.1072 14.9821 25.0838 14.9711 25.0838 14.9168C25.0838 14.8767 25.1094 14.8322 25.1395 14.8177C25.1878 14.7941 25.1878 14.7791 25.1395 14.691C25.1091 14.6359 25.0838 14.5541 25.0838 14.5081C25.0838 14.4621 25.0698 14.4243 25.0512 14.4243C25.001 14.4243 24.8902 13.9826 24.9357 13.9633C24.9565 13.9547 24.9741 13.8847 24.9741 13.8076C24.9741 13.7147 24.9789 13.6841 25.0125 13.6868ZM24.9149 14.4719C24.9718 14.4719 24.9267 14.6371 24.8426 14.7362C24.7299 14.8688 24.6582 14.8849 24.7133 14.7653C24.7654 14.6513 24.8886 14.4719 24.9149 14.4719ZM28.7968 14.4719C28.8285 14.4719 28.8438 14.4928 28.8314 14.5191C28.8186 14.5447 28.793 14.5655 28.7738 14.5655C28.7546 14.5655 28.7395 14.5447 28.7395 14.5187C28.7395 14.4932 28.7648 14.4719 28.7968 14.4719ZM28.8154 14.6654C28.8467 14.6705 28.8874 14.7146 28.8874 14.7559C28.8874 14.8161 28.8234 14.8118 28.7936 14.75C28.7802 14.7225 28.7776 14.6894 28.7885 14.6753C28.7949 14.667 28.8048 14.6643 28.8154 14.6654ZM29.1453 14.7299C29.1658 14.7457 29.1827 14.7787 29.1827 14.8031C29.1824 14.815 29.1783 14.8263 29.1713 14.8346C29.1643 14.8429 29.155 14.8476 29.1453 14.8475C29.1251 14.8475 29.1091 14.8141 29.1091 14.774C29.1091 14.7339 29.1251 14.7142 29.1453 14.7299ZM24.681 14.8928L24.8058 15.0198L24.9315 15.1473L24.8515 15.2354C24.7747 15.3199 24.7744 15.3282 24.8342 15.4608C24.8726 15.5465 24.8813 15.5984 24.8554 15.5984C24.8403 15.5984 24.8349 15.6063 24.8349 15.6149C24.8096 15.6454 24.784 15.6754 24.7581 15.705C24.7526 15.7101 24.7309 15.8116 24.7267 15.8564C24.7203 15.8694 24.7139 15.8781 24.7078 15.8918C24.6173 16.0987 24.6179 16.0983 24.3462 16.0515C24.294 16.0425 24.2416 16.0347 24.1891 16.0283C24.1713 16.0256 24.1549 16.0151 24.1428 15.9987C24.1308 15.9823 24.1239 15.9611 24.1235 15.939C24.0947 15.8159 24.0563 15.7054 24.0365 15.5457H24.0358C24.0384 15.5398 24.041 15.5359 24.0435 15.5292C24.0682 15.4604 24.1062 15.4222 24.136 15.4368C24.1638 15.4505 24.2074 15.4289 24.2336 15.3892C24.2598 15.3494 24.304 15.3168 24.3309 15.3168C24.3581 15.3168 24.3981 15.2739 24.4198 15.2224C24.4416 15.1709 24.4816 15.1288 24.5091 15.1288C24.5366 15.1288 24.5862 15.0753 24.6198 15.0108L24.681 14.8928ZM25.0458 15.0352C25.0675 15.0352 25.0842 15.056 25.0842 15.082C25.0842 15.1075 25.0774 15.1288 25.0685 15.1288C25.0595 15.1288 25.0416 15.1079 25.0291 15.0816C25.0163 15.056 25.024 15.0352 25.0458 15.0352ZM22.9875 15.1048C23.0512 15.1186 23.1446 15.1748 23.2381 15.2641C23.3725 15.3923 23.4714 15.4757 23.5568 15.5355C23.6272 15.6653 23.6368 15.7542 23.7437 15.7664C23.801 15.7388 23.9037 15.8387 23.9037 15.9225C23.9037 15.9493 23.9283 15.9595 23.9587 15.9446C23.9891 15.9296 24.0138 15.9422 24.0138 15.9737C24.0133 16.0114 23.9827 16.0206 23.9219 16.0012C23.8394 15.9752 23.8301 15.9866 23.8301 16.109C23.8301 16.2632 23.9069 16.3092 24.1968 16.3265C24.2874 16.332 24.368 16.3599 24.3757 16.3894C24.3834 16.4189 24.4211 16.4433 24.4602 16.4433C24.505 16.4433 24.5312 16.4763 24.5312 16.533C24.5312 16.6109 24.511 16.6191 24.3744 16.5967C24.288 16.5829 24.1891 16.5534 24.1552 16.5306C24.1047 16.5043 24.0504 16.4905 23.9955 16.4901C23.9421 16.4901 23.8618 16.4665 23.8176 16.4362C23.7011 16.3576 23.3702 15.9461 23.3126 15.8092L23.263 15.692L23.215 15.5819C23.215 15.5815 23.2166 15.5803 23.2163 15.5795C23.2157 15.5772 23.2109 15.5732 23.2099 15.5705L23.2086 15.5673H23.2077C23.1901 15.5316 23.1414 15.484 23.087 15.4552C22.9738 15.3955 22.9069 15.2838 22.9069 15.1547C22.9073 15.1288 22.9167 15.1124 22.935 15.1056C22.9522 15.1002 22.9702 15.0999 22.9875 15.1048ZM25.5888 15.4285C25.6141 15.4254 25.6442 15.4576 25.6688 15.5268L25.7104 15.6456C25.6848 15.6822 25.6586 15.7125 25.6387 15.7487C25.6349 15.744 25.5427 15.7408 25.5155 15.6027C25.5258 15.585 25.5324 15.5645 25.5347 15.543C25.543 15.4698 25.5635 15.4316 25.5888 15.4285ZM25.3555 15.4836C25.4026 15.4757 25.4182 15.5174 25.3757 15.5827C25.369 15.5926 25.3637 15.6037 25.36 15.6157L25.257 15.6381C25.1699 15.6606 25.0643 15.6586 25.0106 15.7349C25.0106 15.7585 25.0445 15.7664 25.0851 15.7526C25.0973 15.7487 25.0966 15.7447 25.1069 15.7404L25.1437 15.7349L25.2589 15.7546L25.2518 15.7664C25.2397 15.7758 25.2253 15.7825 25.215 15.7939C25.1606 15.8537 25.135 15.917 25.1526 15.9469C25.1686 15.9748 25.1814 16.0393 25.1802 16.0905C25.177 16.2104 25.0598 16.2419 25.0368 16.129C25.0255 16.0755 25.0185 16.0914 25.0157 16.1766C25.0125 16.2761 24.9949 16.3056 24.9462 16.2934C24.911 16.2844 24.8819 16.2356 24.8819 16.1845C24.8819 16.1334 24.8691 16.0669 24.8538 16.037C24.8384 16.0071 24.8426 15.9261 24.8634 15.8576C24.8794 15.8045 24.881 15.7868 24.8858 15.7624C24.8954 15.7286 24.9379 15.585 24.9395 15.5768C24.9395 15.576 24.9347 15.5784 24.9344 15.5784C24.9859 15.519 25.0368 15.5044 25.1168 15.5268C25.1779 15.5437 25.2602 15.5355 25.2992 15.5091C25.3165 15.4963 25.3356 15.4876 25.3555 15.4836ZM17.7606 15.692C17.7053 15.692 17.6557 15.8061 17.6912 15.8517C17.7174 15.8848 17.8118 15.7919 17.8118 15.7333C17.8118 15.7105 17.7891 15.692 17.7606 15.692ZM25.9613 15.7211C25.9978 15.7147 26.0349 15.717 26.0707 15.7278H26.0733L26.0739 15.7286C26.0995 15.7357 26.1366 15.7935 26.1562 15.8592L26.1926 15.98L26.2957 15.8871L26.3987 15.7931L26.6925 15.9123C26.8624 15.9811 27.0224 16.0803 27.0726 16.1467C27.1418 16.2388 27.1811 16.2545 27.2707 16.2293C27.3322 16.2124 27.4032 16.1951 27.4282 16.1904C27.4531 16.1857 27.5027 16.1455 27.5376 16.1015C27.6154 16.0024 27.6646 15.9992 27.6925 16.0913C27.7283 16.2101 27.5594 16.3528 27.4019 16.3371C27.2099 16.3182 27.2 16.4118 27.3744 16.59C27.4544 16.6714 27.511 16.756 27.5008 16.7772C27.4659 16.8484 27.2458 16.7595 27.1232 16.6246C26.9792 16.4661 26.9462 16.4594 26.8938 16.5837C26.8474 16.6939 26.7008 16.7088 26.6362 16.6101C26.6063 16.5642 26.5557 16.5503 26.4845 16.5684C26.3654 16.5987 26.3562 16.5794 26.4224 16.4441C26.4576 16.3725 26.4573 16.3391 26.423 16.2958C26.3757 16.2352 26.1309 16.1164 26.0512 16.1149C25.9955 16.1145 25.9373 16.0421 25.8662 15.884C25.8246 15.7919 25.8246 15.7668 25.8662 15.7333C25.8877 15.7329 25.9232 15.7251 25.9613 15.7211ZM27.1725 15.8332C27.2042 15.8332 27.2205 15.8541 27.2083 15.8804C27.1955 15.906 27.1693 15.9269 27.1501 15.9269C27.1309 15.9269 27.1155 15.906 27.1155 15.88C27.1155 15.8545 27.1411 15.8332 27.1725 15.8332ZM27.4477 15.8804C27.4678 15.8804 27.4845 15.9013 27.4845 15.9269C27.4845 15.9528 27.4678 15.9741 27.4477 15.9741C27.4427 15.974 27.4378 15.9727 27.4332 15.9703C27.4287 15.9679 27.4245 15.9644 27.4211 15.96C27.4176 15.9556 27.4149 15.9504 27.4131 15.9447C27.4113 15.939 27.4104 15.933 27.4106 15.9269C27.4106 15.9013 27.4272 15.8804 27.4477 15.8804ZM25.6944 15.941C25.7984 15.9402 25.8602 15.9741 25.8602 16.037C25.8602 16.0873 25.4698 16.1184 25.4326 16.0708C25.3894 16.0157 25.4326 15.9811 25.5766 15.9536C25.6156 15.9458 25.6549 15.9416 25.6944 15.941ZM27.8013 16.2183C27.8166 16.2097 27.8461 16.227 27.8845 16.2714C27.9216 16.3147 27.9699 16.3489 27.9914 16.3489C28.0128 16.3489 28.04 16.3961 28.0525 16.4543C28.0688 16.5302 28.0838 16.5436 28.1056 16.5015C28.1296 16.4543 28.1606 16.4575 28.255 16.5172C28.3862 16.6006 28.3914 16.6931 28.2662 16.7163C28.2058 16.7277 28.1862 16.7064 28.1862 16.6325C28.1862 16.553 28.1696 16.5401 28.0989 16.5625C28.0314 16.5841 28.0067 16.5688 27.9914 16.4936C27.9795 16.4362 27.9414 16.3961 27.8982 16.3961C27.8579 16.3961 27.8147 16.3607 27.8019 16.3182C27.7846 16.2616 27.7859 16.2274 27.8013 16.2183ZM25.5018 16.4622C25.5386 16.4649 25.5648 16.4936 25.5638 16.5471C25.5632 16.5802 25.4998 16.6443 25.4224 16.6895C25.2515 16.7894 25.2326 16.7906 25.2326 16.7009C25.2326 16.662 25.2461 16.6309 25.2624 16.6309C25.279 16.6309 25.3296 16.5865 25.375 16.5326C25.4176 16.4822 25.4653 16.4594 25.5021 16.4618M24.969 16.5117C25.3203 16.5102 25.2954 16.6022 24.9398 16.6207C24.7328 16.6313 24.6755 16.6207 24.688 16.5735C24.6989 16.5318 24.7859 16.5121 24.969 16.5117ZM26.8259 16.7517C26.8432 16.7631 26.8573 16.8154 26.8835 16.9295C26.9123 17.0557 26.9546 17.1458 26.9853 17.1458C27.0323 17.1458 27.1149 17.4054 27.1155 17.5549C27.1155 17.5855 27.1651 17.6481 27.2259 17.6937C27.2867 17.7397 27.3373 17.7909 27.3373 17.8082C27.3373 17.8259 27.3782 17.8904 27.4285 17.9513C27.479 18.0119 27.5206 18.0819 27.5213 18.1063C27.5213 18.1307 27.5645 18.2078 27.6173 18.2778C27.7005 18.3879 27.7133 18.4465 27.7155 18.7262C27.7174 19.007 27.7005 19.0904 27.5827 19.3839C27.5088 19.5687 27.448 19.7654 27.448 19.8189C27.448 19.8826 27.4243 19.9164 27.3792 19.9164C27.3411 19.9164 27.2682 19.9585 27.2166 20.01C27.1117 20.1151 27.1027 20.1182 27.0634 20.0683C27.0483 20.049 26.9619 20.0309 26.8714 20.0277C26.6912 20.0215 26.5728 19.9212 26.5546 19.7587C26.5462 19.684 26.5046 19.6458 26.3898 19.6104C26.2394 19.5644 26.1747 19.518 26.1741 19.4547C26.1734 19.376 26.0531 19.2305 25.953 19.1872C25.8058 19.1239 25.3066 19.2501 25.3066 19.3508C25.3066 19.3705 25.231 19.4008 25.1379 19.4169C25.0448 19.433 24.9222 19.4798 24.8659 19.5223C24.777 19.5892 24.7498 19.5915 24.6579 19.5353C24.5597 19.4751 24.5523 19.4503 24.5485 19.1892C24.5462 19.0098 24.5178 18.8371 24.4704 18.7148C24.4163 18.5752 24.3984 18.4485 24.4061 18.2562C24.4179 17.9572 24.4387 17.8919 24.5085 17.9258C24.535 17.9388 24.5779 17.9167 24.6042 17.8766C24.6301 17.8369 24.6765 17.8038 24.7072 17.8038C24.7379 17.8038 24.8269 17.7798 24.9056 17.75C25.0173 17.7075 25.0611 17.6559 25.1098 17.5163C25.1437 17.4184 25.1843 17.3495 25.2003 17.3621C25.2163 17.3747 25.2749 17.3204 25.3296 17.2422C25.4282 17.1017 25.575 17.0534 25.6205 17.1462C25.6576 17.2229 25.6909 17.2009 25.7571 17.0526C25.7917 16.9751 25.847 16.9118 25.8797 16.9118C25.9149 16.9118 25.9277 16.8897 25.9123 16.8579C25.8938 16.8197 25.9171 16.8146 25.9936 16.839C26.0525 16.8579 26.153 16.8764 26.2173 16.8803C26.3741 16.8905 26.3926 16.9259 26.3274 17.086C26.272 17.2217 26.273 17.2229 26.4371 17.3488C26.528 17.4184 26.616 17.4758 26.633 17.4758C26.6698 17.4758 26.7098 17.2422 26.7098 17.0274C26.7098 16.9417 26.7379 16.8362 26.7722 16.7926C26.7826 16.7781 26.7944 16.7653 26.8074 16.7544C26.8142 16.7492 26.8204 16.748 26.8259 16.7517ZM18.5872 16.8425C18.608 16.826 18.6246 16.8457 18.6246 16.8858C18.6246 16.9684 18.6022 16.981 18.5702 16.9161C18.5587 16.8921 18.5667 16.8591 18.5872 16.8425ZM19.0496 16.9141C19.0806 16.9181 19.1171 16.9487 19.1398 17.0026C19.1872 17.1147 19.1894 17.2957 19.1446 17.438C19.1261 17.497 19.0726 17.7224 19.0262 17.938C18.9574 18.2542 18.9238 18.3384 18.8541 18.3722C18.7261 18.4344 18.6678 18.4241 18.631 18.3321C18.5587 18.1531 18.5498 17.9891 18.6048 17.8538C18.6355 17.7779 18.6506 17.6827 18.6384 17.6426C18.5946 17.4966 18.6598 17.3366 18.7917 17.2665C18.8621 17.2292 18.9197 17.1655 18.9197 17.1253C18.9197 17.0852 18.9363 17.0526 18.9565 17.0526C18.977 17.0526 18.9936 17.0211 18.9936 16.9826C18.9936 16.9318 19.0189 16.9102 19.0496 16.9141ZM18.704 16.9212C18.7187 16.926 18.7321 16.9358 18.7424 16.9495C18.7981 17.0203 18.7674 17.0604 18.6986 17.0062C18.6691 16.9833 18.657 16.9487 18.6723 16.9295C18.6797 16.9196 18.6912 16.9177 18.704 16.9212ZM28.543 17.757C28.5869 17.757 28.8144 17.9954 28.8144 18.041C28.8144 18.1224 28.7226 18.0874 28.6202 17.9663C28.5248 17.8542 28.4886 17.757 28.543 17.757ZM19.5846 17.8506C19.5947 17.8509 19.6043 17.8559 19.6114 17.8647C19.6184 17.8736 19.6224 17.8855 19.6224 17.8978C19.6224 17.9102 19.6184 17.9221 19.6114 17.9309C19.6043 17.9398 19.5947 17.9448 19.5846 17.945C19.5797 17.9449 19.5749 17.9435 19.5704 17.9411C19.566 17.9386 19.5619 17.9351 19.5586 17.9307C19.5552 17.9263 19.5526 17.9212 19.5508 17.9155C19.5491 17.9099 19.5483 17.9039 19.5485 17.8978C19.5485 17.8723 19.5645 17.8506 19.5846 17.8506ZM26.343 19.4468C26.3379 19.4467 26.3329 19.4478 26.3281 19.4502C26.3234 19.4525 26.3191 19.4559 26.3155 19.4603C26.3118 19.4647 26.309 19.47 26.307 19.4757C26.305 19.4815 26.304 19.4877 26.304 19.494C26.304 19.5196 26.3114 19.5408 26.3203 19.5408C26.3293 19.5408 26.3472 19.5196 26.3597 19.4936C26.3725 19.468 26.3645 19.4468 26.343 19.4468ZM29.2909 19.4629C29.361 19.4944 29.5507 19.7402 29.5523 19.8157C29.553 19.8598 29.5808 19.8708 29.6429 19.8511C29.6925 19.8354 29.7421 19.8393 29.7523 19.861C29.7856 19.9298 29.7312 20.1048 29.6762 20.1048C29.6467 20.1048 29.6317 20.1225 29.6429 20.1454C29.671 20.2032 29.5174 20.4415 29.4659 20.4195C29.4269 20.403 29.3251 20.6331 29.3424 20.6984C29.3466 20.7141 29.312 20.7452 29.2659 20.7668C29.2147 20.7908 29.1741 20.8589 29.161 20.9419C29.1459 21.0386 29.097 21.1063 28.9914 21.1779C28.8102 21.301 28.8013 21.301 28.8253 21.1838C28.8381 21.1228 28.8269 21.0901 28.793 21.0901C28.673 21.0901 28.7658 20.8537 28.9472 20.6968C29.0275 20.6242 29.095 20.5322 29.1456 20.4266C29.2026 20.2921 29.2294 20.2712 29.3274 20.2834C29.4541 20.2999 29.4746 20.2618 29.383 20.1768C29.3315 20.1288 29.3299 20.1068 29.3728 20.0195C29.4166 19.9298 29.4112 19.8924 29.3322 19.708C29.2826 19.5927 29.2544 19.4826 29.2691 19.4641C29.2734 19.4589 29.2806 19.4585 29.2909 19.4629ZM27.1347 20.2665C27.2954 20.2677 27.3011 20.2736 27.3011 20.414C27.3011 20.5587 27.207 20.7145 27.1203 20.7145C27.0957 20.7145 27.0518 20.6413 27.0224 20.5517C26.9379 20.2948 26.9494 20.2653 27.1347 20.2665ZM10.3693 24.1884C10.4477 24.1884 10.4474 24.3178 10.3686 24.3375C10.311 24.3517 10.2128 24.6419 10.135 25.0282C10.08 25.2984 10.135 26.832 10.2054 26.9996C10.2374 27.0763 10.231 27.0979 10.167 27.1239C10.1021 27.1502 10.0938 27.1801 10.1136 27.3127C10.1245 27.3882 10.1434 27.6085 10.1379 27.73H12.9373C13.0141 27.5754 13.2509 27.3201 13.2989 27.3335C13.3158 27.3382 13.3789 27.2077 13.439 27.0543C13.5165 26.8556 13.5699 26.7734 13.6224 26.7711C13.6627 26.7695 13.7376 26.7266 13.7888 26.6759C13.8394 26.6255 13.9075 26.5842 13.9398 26.5838C13.9722 26.5834 14.0208 26.528 14.0493 26.4607C14.1242 26.2825 14.3062 26.102 14.3853 26.1283C14.4227 26.1405 14.4621 26.1315 14.4736 26.1083C14.4848 26.0847 14.5472 26.0662 14.6122 26.0662C14.6771 26.0662 14.7882 26.0288 14.8592 25.9836C14.9658 25.9159 14.9866 25.879 14.9776 25.7724C14.9693 25.6697 14.9827 25.6434 15.0429 25.6434C15.0845 25.6434 15.1171 25.6709 15.1171 25.7051C15.1171 25.7386 15.1405 25.8066 15.1693 25.8554C15.2144 25.9344 15.2717 25.9451 15.6672 25.947C15.9133 25.9482 16.1142 25.9333 16.1142 25.9148C16.1142 25.8959 16.1581 25.844 16.2109 25.8003C16.3011 25.7252 16.3098 25.7256 16.3421 25.7995C16.3648 25.8507 16.4253 25.8798 16.5136 25.8809C16.5885 25.8821 16.7082 25.9085 16.7792 25.9407C16.9478 26.017 17.1731 26.0351 17.2029 25.9738C17.2157 25.9474 17.2637 25.9254 17.3098 25.9254C17.3558 25.9254 17.4346 25.8703 17.4835 25.8042C17.5517 25.7122 17.5968 25.6902 17.6742 25.7098C17.7299 25.7236 17.7734 25.7197 17.7715 25.7012C17.7491 25.51 17.8288 25.5049 17.9779 25.689C18.1235 25.8684 18.2691 25.8971 18.2861 25.7488C18.2925 25.6902 18.3437 25.6127 18.3997 25.5757C18.4557 25.5391 18.5245 25.4742 18.5523 25.4314C18.6195 25.3283 18.9075 25.1588 18.9536 25.195C18.9734 25.2107 19.0051 25.1883 19.024 25.145C19.0454 25.0962 19.0826 25.0774 19.1203 25.0958C19.1645 25.1171 19.1786 25.1029 19.1709 25.0459C19.1574 24.9456 19.3398 24.8268 19.4979 24.8323C19.6355 24.8366 19.817 24.9767 19.7923 25.0589C19.7677 25.1411 20.1216 25.2563 20.5136 25.2957C20.8026 25.3244 20.8368 25.3377 20.873 25.4392C20.9082 25.5376 20.9219 25.5446 20.9882 25.4923C21.0547 25.4392 21.0778 25.4514 21.1942 25.608C21.304 25.7563 21.3363 25.7771 21.3971 25.7358C21.4371 25.7083 21.4595 25.6638 21.4467 25.6375C21.4141 25.5706 21.5658 25.3759 21.6784 25.3401C21.7296 25.3236 21.7616 25.2972 21.7491 25.2815C21.7366 25.2658 21.7459 25.2241 21.7693 25.1887C21.801 25.1399 21.7997 25.0966 21.7635 25.0105C21.7248 24.9188 21.7242 24.8815 21.7616 24.8244C21.8026 24.7615 21.8147 24.7635 21.8685 24.8429C21.9472 24.9598 22.0477 24.9767 22.199 24.8968C22.3117 24.837 22.3248 24.839 22.375 24.9299C22.4218 25.0156 22.4544 25.0243 22.6224 25.0007C22.8563 24.9668 22.9078 24.9212 22.9078 24.7454C22.9078 24.6321 22.9226 24.6109 23.001 24.6109C23.0522 24.6109 23.1037 24.6404 23.1149 24.6769C23.1472 24.7847 23.2454 24.8067 23.3184 24.7226C23.3718 24.6608 23.3971 24.6565 23.439 24.7009C23.481 24.745 23.4992 24.7418 23.5242 24.6852C23.5661 24.59 23.6982 24.6364 23.7546 24.767C23.7789 24.8229 23.8547 24.9019 23.9229 24.9428C24.0432 25.0152 24.0509 25.0136 24.2022 24.8846C24.3885 24.7253 24.4256 24.721 24.4886 24.8492C24.5152 24.9035 24.5597 24.9362 24.5885 24.922C24.6173 24.9082 24.6621 24.9232 24.6877 24.9558C24.7478 25.0321 24.8928 25.0817 24.9603 25.049C24.9891 25.0349 25.0115 24.9625 25.0115 24.8878C25.0115 24.7265 25.0566 24.7123 25.1299 24.8524C25.1715 24.9322 25.1965 24.944 25.2496 24.9059C25.3306 24.8484 25.5642 24.9255 25.592 25.0188C25.625 25.1269 25.7072 25.0837 25.7309 24.946C25.7533 24.8178 25.7613 24.813 25.9309 24.8339C26.1002 24.8543 26.1094 24.85 26.1549 24.7108C26.1818 24.6282 26.2141 24.5904 26.2362 24.5967C26.2582 24.6022 26.2698 24.6502 26.2566 24.7371C26.2429 24.8284 26.2598 24.8618 26.3366 24.8992C26.4464 24.9523 26.695 25.0219 26.9117 25.0604C27.0941 25.0927 27.127 25.1183 27.1005 25.2064C27.0861 25.2536 27.1158 25.2933 27.1901 25.3291C27.2512 25.3586 27.3011 25.3991 27.3011 25.4192C27.3011 25.4392 27.3997 25.4561 27.5203 25.4561C27.6899 25.4561 27.7507 25.4754 27.7878 25.5415C27.8432 25.639 27.9654 25.7091 27.9654 25.6438C27.9654 25.5655 28.2291 25.7948 28.2698 25.9077C28.2912 25.9679 28.3398 26.0296 28.3773 26.0446C28.4147 26.0595 28.4454 26.0945 28.4454 26.1221C28.4454 26.1531 28.5062 26.1634 28.6074 26.1488C28.7478 26.1291 28.7834 26.1429 28.8822 26.2605C28.9446 26.3348 29.0154 26.3903 29.0384 26.3832C29.0928 26.3675 29.1562 26.5697 29.1088 26.607C29.089 26.622 29.073 26.6971 29.073 26.7726C29.073 26.8649 29.0298 26.9718 28.9434 27.0932C28.8723 27.1931 28.8147 27.2989 28.8147 27.3292C28.8147 27.3595 28.7894 27.3957 28.759 27.4106C28.7286 27.4256 28.7034 27.4751 28.7034 27.5207C28.7034 27.5652 28.6554 27.7017 28.6106 27.73C19.5558 27.7337 10.5012 27.735 1.44672 27.7339V27.73H3.6592C3.6976 27.6966 3.8336 27.5687 3.90976 27.5687C3.99488 27.5683 4.1168 27.5215 4.20672 27.4547C4.29024 27.3925 4.42016 27.3264 4.496 27.3083C4.57664 27.2887 4.664 27.2273 4.70592 27.1589L4.77856 27.0425L5.12736 27.1915C5.38752 27.3017 5.51008 27.3308 5.60864 27.3076C5.688 27.2887 5.74048 27.2946 5.74048 27.3229C5.74048 27.3485 5.81248 27.3831 5.89984 27.3996C5.9952 27.4177 6.08736 27.4716 6.13024 27.5341L6.20224 27.6387L6.21344 27.5373C6.22048 27.4751 6.26016 27.4248 6.31648 27.4067C6.43328 27.3693 6.48992 27.4138 6.4672 27.5243C6.4576 27.5699 6.50496 27.7099 6.52928 27.73H6.6896C6.69879 27.6343 6.69771 27.5375 6.6864 27.4421C6.66912 27.2887 6.6768 27.2108 6.70912 27.1844C6.74027 27.1595 6.72821 27.1471 6.67296 27.1471C6.6272 27.1467 6.58752 27.1302 6.58528 27.1109C6.54944 26.7809 6.56416 26.7183 6.6928 26.6499C6.76352 26.6121 6.8816 26.5901 6.95488 26.6007C7.02816 26.6114 7.10624 26.6007 7.12928 26.5771C7.15712 26.548 7.18656 26.5811 7.21856 26.6798C7.26432 26.8202 7.272 26.8242 7.43552 26.795C7.71328 26.7459 7.856 26.7549 8.04096 26.8352C8.296 26.9453 8.69312 26.9296 8.63616 26.812C8.62464 26.7888 8.65888 26.7699 8.71168 26.7699C8.76448 26.7699 8.81536 26.7974 8.82528 26.8304C8.83552 26.8635 8.88 26.8942 8.92448 26.8989C8.96928 26.9028 9.02496 26.9394 9.048 26.9795C9.11296 27.0928 9.12704 27.0661 9.10304 26.8757C9.08704 26.7498 9.05984 26.6959 9.00704 26.6845C8.92832 26.6668 8.8416 26.5512 8.8416 26.4631C8.8416 26.4332 8.87904 26.3868 8.9248 26.3596L9.008 26.3105L8.9152 26.2629C8.83552 26.222 8.83168 26.2117 8.88736 26.1826C8.93312 26.159 8.9456 26.1177 8.9296 26.0375C8.9136 25.9549 8.92544 25.9171 8.976 25.8931C9.01376 25.8754 9.06944 25.8263 9.09984 25.783C9.13024 25.7405 9.18944 25.6823 9.23104 25.6544C9.2928 25.6127 9.31552 25.6194 9.35232 25.6941C9.3968 25.7846 9.39712 25.785 9.47488 25.6933C9.54208 25.6139 9.54944 25.5682 9.52864 25.3661C9.5072 25.1607 9.5136 25.1257 9.5792 25.0813C9.62048 25.053 9.65408 25.0026 9.65408 24.9696C9.65408 24.9365 9.68736 24.8646 9.72768 24.8091C9.76864 24.754 9.8016 24.697 9.8016 24.6832C9.8016 24.6408 9.94656 24.4697 9.98304 24.4697C9.99277 24.469 10.0022 24.4652 10.0103 24.4585C10.0184 24.4519 10.0249 24.4427 10.0291 24.4319C10.0493 24.3705 10.3043 24.1884 10.3693 24.1884Z" fill="black"/>
</svg>
