<svg width="36" height="36" viewBox="0 0 36 36" fill="none" xmlns="http://www.w3.org/2000/svg">
<path d="M19.3202 10.5258L26.4812 12.4323L19.3202 10.5258ZM17.7872 16.2198L21.3662 17.1738L17.7872 16.2198ZM17.9657 26.9493L19.3967 27.3318C23.4467 28.4118 25.4717 28.9503 27.0677 28.0338C28.6622 27.1188 29.2052 25.1043 30.2897 21.0783L31.8242 15.3828C32.9102 11.3553 33.4517 9.34234 32.5307 7.75534C31.6097 6.16834 29.5862 5.62984 25.5347 4.55134L24.1037 4.16884C20.0537 3.08884 18.0287 2.55034 16.4342 3.46684C14.8382 4.38184 14.2952 6.39634 13.2092 10.4223L11.6762 16.1178C10.5902 20.1453 10.0472 22.1583 10.9697 23.7453C11.8907 25.3308 13.9157 25.8708 17.9657 26.9493Z" fill="#C5D89D"/>
<path d="M19.3202 10.5258L26.4812 12.4323M17.7872 16.2198L21.3662 17.1738M17.9657 26.9493L19.3967 27.3318C23.4467 28.4118 25.4717 28.9503 27.0677 28.0338C28.6622 27.1188 29.2052 25.1043 30.2897 21.0783L31.8242 15.3828C32.9102 11.3553 33.4517 9.34234 32.5307 7.75534C31.6097 6.16834 29.5862 5.62984 25.5347 4.55134L24.1037 4.16884C20.0537 3.08884 18.0287 2.55034 16.4342 3.46684C14.8382 4.38184 14.2952 6.39634 13.2092 10.4223L11.6762 16.1178C10.5902 20.1453 10.0472 22.1583 10.9697 23.7453C11.8907 25.3308 13.9157 25.8708 17.9657 26.9493Z" stroke="#5C6F2B" stroke-width="2" stroke-linecap="round"/>
<path d="M18 31.4192L16.572 31.8092C12.531 32.9087 10.512 33.4592 8.91904 32.5247C7.32904 31.5917 6.78604 29.5382 5.70454 25.4327L4.17304 19.6247C3.09004 15.5192 2.54854 13.4657 3.46804 11.8487C4.26304 10.4492 6.00004 10.5002 8.25004 10.5002" stroke="#5C6F2B" stroke-width="2" stroke-linecap="round"/>
</svg>
