<svg width="36" height="36" viewBox="0 0 36 36" fill="none" xmlns="http://www.w3.org/2000/svg">
<path d="M28 15.6001C28 21.5918 21.0763 27.8319 18.7512 29.7591C18.5347 29.9155 18.271 30 18 30C17.729 30 17.4653 29.9155 17.2488 29.7591C14.9238 27.8319 8 21.5918 8 15.6001C8 13.054 9.05357 10.6122 10.9289 8.81181C12.8043 7.01144 15.3478 6 18 6C20.6522 6 23.1957 7.01144 25.0711 8.81181C26.9464 10.6122 28 13.054 28 15.6001Z" fill="#C5D89D" stroke="#5C6F2B" stroke-width="2" stroke-linecap="round" stroke-linejoin="round"/>
<path d="M18 19.2001C20.0711 19.2001 21.75 17.5883 21.75 15.6C21.75 13.6118 20.0711 12 18 12C15.9289 12 14.25 13.6118 14.25 15.6C14.25 17.5883 15.9289 19.2001 18 19.2001Z" fill="white" stroke="#5C6F2B" stroke-width="2" stroke-linecap="round" stroke-linejoin="round"/>
</svg>
