<svg width="36" height="36" viewBox="0 0 36 36" fill="none" xmlns="http://www.w3.org/2000/svg">
<path d="M19.3199 10.5258L26.4809 12.4323M17.7869 16.2198L21.3659 17.1738M17.9654 26.9493L19.3964 27.3318C23.4464 28.4118 25.4714 28.9503 27.0674 28.0338C28.6619 27.1188 29.2049 25.1043 30.2894 21.0783L31.8239 15.3828C32.9099 11.3553 33.4514 9.34234 32.5304 7.75534C31.6094 6.16834 29.5859 5.62984 25.5344 4.55134L24.1034 4.16884C20.0534 3.08884 18.0284 2.55034 16.4339 3.46684C14.8379 4.38184 14.2949 6.39634 13.2089 10.4223L11.6759 16.1178C10.5899 20.1453 10.0469 22.1583 10.9694 23.7453C11.8904 25.3308 13.9154 25.8708 17.9654 26.9493Z" stroke="#2C3930" stroke-width="2" stroke-linecap="round"/>
<path d="M18 31.4192L16.572 31.8092C12.531 32.9087 10.512 33.4592 8.91904 32.5247C7.32904 31.5917 6.78604 29.5382 5.70454 25.4327L4.17304 19.6247C3.09004 15.5192 2.54854 13.4657 3.46804 11.8487C4.26304 10.4492 6.00004 10.5002 8.25004 10.5002" stroke="#2C3930" stroke-width="2" stroke-linecap="round"/>
</svg>
