<svg width="36" height="36" viewBox="0 0 36 36" fill="none" xmlns="http://www.w3.org/2000/svg"><path d="M28.5 31.125C28.8978 31.125 29.2794 30.967 29.5607 30.6857C29.842 30.4044 30 30.0228 30 29.625V27.756C30.006 23.547 24.039 20.25 18 20.25C11.961 20.25 6 23.547 6 27.756V29.625C6 30.0228 6.15804 30.4044 6.43934 30.6857C6.72064 30.967 7.10218 31.125 7.5 31.125H28.5ZM23.406 10.281C23.406 13.267 20.986 15.687 18 15.687C15.014 15.687 12.594 13.267 12.594 10.281C12.594 7.295 15.014 4.875 18 4.875C20.986 4.875 23.406 7.295 23.406 10.281Z" stroke="#2C3930" stroke-width="2" stroke-linecap="round" stroke-linejoin="round"/></svg>
