<svg width="28" height="30" viewBox="0 0 28 30" fill="none" xmlns="http://www.w3.org/2000/svg">
<path d="M9.05625 12.5836C7.68542 11.1393 7 9.40312 7 7.375C7 5.34688 7.68542 3.61068 9.05625 2.16641C10.4271 0.722136 12.075 0 14 0C15.925 0 17.5729 0.722136 18.9437 2.16641C20.3146 3.61068 21 5.34688 21 7.375C21 9.40312 20.3146 11.1393 18.9437 12.5836C17.5729 14.0279 15.925 14.75 14 14.75C12.075 14.75 10.4271 14.0279 9.05625 12.5836ZM0 29.5V24.3375C0 23.2927 0.2555 22.3327 0.7665 21.4576C1.2775 20.5824 1.95533 19.9137 2.8 19.4516C4.60833 18.499 6.44583 17.7848 8.3125 17.3091C10.1792 16.8334 12.075 16.595 14 16.5938C15.925 16.5925 17.8208 16.831 19.6875 17.3091C21.5542 17.7873 23.3917 18.5014 25.2 19.4516C26.0458 19.9125 26.7242 20.5812 27.2352 21.4576C27.7462 22.334 28.0012 23.2939 28 24.3375V29.5H0Z" fill="black"/>
</svg>
