<svg width="22" height="22" viewBox="0 0 22 22" fill="none" xmlns="http://www.w3.org/2000/svg">
<path d="M12 20.0008H20.0001M20.1741 5.81249C20.4359 5.55076 20.6436 5.24003 20.7853 4.89804C20.927 4.55604 21 4.18949 21 3.8193C21 3.44911 20.9272 3.08254 20.7856 2.74051C20.6439 2.39848 20.4363 2.0877 20.1746 1.8259C19.9129 1.5641 19.6022 1.35642 19.2602 1.21471C18.9182 1.07301 18.5516 1.00005 18.1814 1C17.8113 0.999954 17.4447 1.07282 17.1027 1.21444C16.7606 1.35607 16.4499 1.56367 16.1881 1.8254L2.84195 15.1747C2.60977 15.4062 2.43806 15.6912 2.34195 16.0047L1.02093 20.3568C0.99509 20.4433 0.993138 20.5352 1.01529 20.6227C1.03743 20.7102 1.08286 20.7901 1.14673 20.8538C1.21061 20.9176 1.29056 20.9629 1.3781 20.9849C1.46564 21.0069 1.5575 21.0048 1.64394 20.9788L5.99698 19.6588C6.31015 19.5636 6.59516 19.3929 6.82699 19.1618L20.1741 5.81249Z" stroke="#111111" stroke-width="2" stroke-linecap="round" stroke-linejoin="round"/>
</svg>
