<svg width="22" height="22" viewBox="0 0 22 22" fill="none" xmlns="http://www.w3.org/2000/svg">
<path d="M13.75 7.33333H13.7592M2.75 5.5C2.75 4.77065 3.03973 4.07118 3.55546 3.55546C4.07118 3.03973 4.77065 2.75 5.5 2.75H16.5C17.2293 2.75 17.9288 3.03973 18.4445 3.55546C18.9603 4.07118 19.25 4.77065 19.25 5.5V16.5C19.25 17.2293 18.9603 17.9288 18.4445 18.4445C17.9288 18.9603 17.2293 19.25 16.5 19.25H5.5C4.77065 19.25 4.07118 18.9603 3.55546 18.4445C3.03973 17.9288 2.75 17.2293 2.75 16.5V5.5Z" stroke="#111111" stroke-width="2" stroke-linecap="round" stroke-linejoin="round"/>
<path d="M2.75 14.666L7.33333 10.0827C8.184 9.2641 9.23267 9.2641 10.0833 10.0827L14.6667 14.666" stroke="#111111" stroke-width="2" stroke-linecap="round" stroke-linejoin="round"/>
<path d="M12.833 12.8333L13.7497 11.9167C14.6003 11.0981 15.649 11.0981 16.4997 11.9167L19.2497 14.6667" stroke="#111111" stroke-width="2" stroke-linecap="round" stroke-linejoin="round"/>
</svg>
