<svg width="31" height="31" viewBox="0 0 31 31" fill="none" xmlns="http://www.w3.org/2000/svg">
<path fill-rule="evenodd" clip-rule="evenodd" d="M15.4167 0C23.9313 0 30.8333 6.90204 30.8333 15.4167C30.8333 23.9313 23.9313 30.8333 15.4167 30.8333C6.90204 30.8333 0 23.9313 0 15.4167C0 6.90204 6.90204 0 15.4167 0ZM19.7333 18.2795C18.5824 19.412 17.0314 20.0452 15.4167 20.0417C13.802 20.0452 12.251 19.412 11.1 18.2795C10.9562 18.1344 10.7849 18.0194 10.5962 17.941C10.4075 17.8627 10.2052 17.8227 10.0009 17.8232C9.79655 17.8238 9.59439 17.8649 9.40614 17.9443C9.21788 18.0237 9.04728 18.1397 8.90425 18.2856C8.76122 18.4315 8.64861 18.6044 8.57298 18.7941C8.49734 18.9839 8.46019 19.1869 8.46367 19.3911C8.46715 19.5954 8.5112 19.797 8.59326 19.9841C8.67532 20.1712 8.79375 20.3401 8.94167 20.481C10.6689 22.1786 12.9948 23.1284 15.4167 23.125C17.8385 23.1284 20.1644 22.1786 21.8917 20.481C22.1768 20.1934 22.3373 19.805 22.3384 19.4C22.3396 18.9949 22.1812 18.6057 21.8976 18.3164C21.6141 18.0272 21.2281 17.8612 20.823 17.8543C20.418 17.8474 20.0266 18.0001 19.7333 18.2795ZM10.0208 9.25C9.40752 9.25 8.81933 9.49364 8.38565 9.92732C7.95197 10.361 7.70833 10.9492 7.70833 11.5625C7.70833 12.1758 7.95197 12.764 8.38565 13.1977C8.81933 13.6314 9.40752 13.875 10.0208 13.875C10.6341 13.875 11.2223 13.6314 11.656 13.1977C12.0897 12.764 12.3333 12.1758 12.3333 11.5625C12.3333 10.9492 12.0897 10.361 11.656 9.92732C11.2223 9.49364 10.6341 9.25 10.0208 9.25ZM20.8125 9.25C20.1992 9.25 19.611 9.49364 19.1773 9.92732C18.7436 10.361 18.5 10.9492 18.5 11.5625C18.5 12.1758 18.7436 12.764 19.1773 13.1977C19.611 13.6314 20.1992 13.875 20.8125 13.875C21.4258 13.875 22.014 13.6314 22.4477 13.1977C22.8814 12.764 23.125 12.1758 23.125 11.5625C23.125 10.9492 22.8814 10.361 22.4477 9.92732C22.014 9.49364 21.4258 9.25 20.8125 9.25Z" fill="black"/>
</svg>
