<svg width="22" height="22" viewBox="0 0 22 22" fill="none" xmlns="http://www.w3.org/2000/svg">
<path d="M12.8333 10.084V15.584M9.16667 10.084V15.584M14.6667 5.50065V3.66732C14.6667 3.18109 14.4735 2.71477 14.1297 2.37096C13.7859 2.02714 13.3196 1.83398 12.8333 1.83398H9.16667C8.68044 1.83398 8.21412 2.02714 7.8703 2.37096C7.52649 2.71477 7.33333 3.18109 7.33333 3.66732V5.50065M4.58333 5.50065V18.334C4.58333 18.8202 4.77649 19.2865 5.1203 19.6303C5.46412 19.9742 5.93044 20.1673 6.41667 20.1673H15.5833C16.0696 20.1673 16.5359 19.9742 16.8797 19.6303C17.2235 19.2865 17.4167 18.8202 17.4167 18.334V5.50065M19.25 5.50065H2.75" stroke="#FF3F3F" stroke-width="2" stroke-linecap="round" stroke-linejoin="round"/>
</svg>
