<svg width="101" height="121" viewBox="0 0 101 121" fill="none" xmlns="http://www.w3.org/2000/svg">
<path d="M26.0291 83.7336L22.8874 69.6409C27.5653 52.4145 37.8979 42.1558 41.8249 38.567C45.7918 34.6087 64.1372 26.4584 74.2025 22.8112C54.7934 22.6712 42.2613 28.705 38.4213 31.7395C30.6545 37.4291 24.9525 48.7499 23.8471 54.0602C23.2187 50.5589 18.1744 37.7209 15.7308 31.7395C12.7287 19.555 24.4291 10.4983 30.6545 7.49303C48.0214 -2.74823 66.8965 2.11478 75.0276 7.49305C81.7475 11.9379 87.6389 14.7681 89.2134 14.4956C92.8137 13.8724 92.576 16.402 92.6169 17.7343C93.1057 33.6301 87.7589 48.0496 85.0244 53.2724C70.4501 78.8318 40.2543 73.93 32.4872 71.0414C26.2735 68.7305 25.5928 78.54 26.0291 83.7336Z" fill="#5F6E30" stroke="#5F6E30" stroke-width="3"/>
<path d="M17.5176 113.881C17.4685 100.54 10.5675 73.5047 1.60464 37.506C0.592399 33.4404 7.21081 32.1019 8.5271 33.3823C12.474 37.2215 17.6227 53.0102 23.1014 71.0213C28.58 89.0324 30.3429 102.652 30.7812 107.435C31.065 110.852 31.5463 117.484 25.4099 118.868C19.2735 120.252 17.5258 116.121 17.5176 113.881Z" fill="#80541F" stroke="#80541F" stroke-width="3"/>
</svg>
