<svg width="34" height="34" viewBox="0 0 34 34" fill="none" xmlns="http://www.w3.org/2000/svg">
<path fill-rule="evenodd" clip-rule="evenodd" d="M15.5762 23.375C15.4635 23.375 15.3554 23.4198 15.2757 23.4995C15.196 23.5792 15.1512 23.6873 15.1512 23.8V26.2794C15.1513 26.7309 15.0314 27.1743 14.804 27.5642L14.3977 28.2612C14.3601 28.3258 14.3402 28.3991 14.34 28.4739C14.3398 28.5486 14.3593 28.622 14.3966 28.6868C14.4338 28.7516 14.4875 28.8054 14.5521 28.8428C14.6168 28.8803 14.6902 28.9 14.7649 28.9H19.2351C19.3098 28.9 19.3833 28.8803 19.448 28.8429C19.5128 28.8054 19.5665 28.7515 19.6037 28.6867C19.641 28.6219 19.6604 28.5483 19.6602 28.4736C19.6599 28.3988 19.6399 28.3254 19.6023 28.2608L18.8989 27.0551C18.6713 26.6651 18.5513 26.2218 18.5512 25.7703V23.8C18.5512 23.6873 18.5065 23.5792 18.4267 23.4995C18.347 23.4198 18.2389 23.375 18.1262 23.375H15.5762Z" fill="#F2994A"/>
<path d="M16.0013 23.8C16.0013 23.9127 15.9565 24.0208 15.8768 24.1005C15.7971 24.1802 15.689 24.225 15.5763 24.225V22.525C15.2381 22.525 14.9138 22.6594 14.6747 22.8985C14.4356 23.1376 14.3013 23.4619 14.3013 23.8H16.0013ZM16.0013 26.2795V23.8H14.3013V26.2795H16.0013ZM15.1317 28.6892L15.538 27.9926L14.0696 27.1363L13.6633 27.8324L15.1317 28.6892ZM14.7645 28.05C14.8393 28.05 14.9128 28.0697 14.9775 28.1072C15.0422 28.1446 15.0959 28.1985 15.1332 28.2633C15.1704 28.3282 15.1899 28.4017 15.1896 28.4765C15.1894 28.5512 15.1694 28.6246 15.1317 28.6892L13.6633 27.8324C13.1678 28.6824 13.7802 29.75 14.7645 29.75V28.05ZM15.5763 28.05H14.7645V29.75H15.5763V28.05ZM18.1263 28.05H15.5763V29.75H18.1263V28.05ZM19.2347 28.05H18.1263V29.75H19.2351L19.2347 28.05ZM18.8675 28.6892C18.8298 28.6246 18.8098 28.5512 18.8095 28.4764C18.8093 28.4015 18.8288 28.328 18.8661 28.2631C18.9034 28.1983 18.9572 28.1444 19.022 28.107C19.0868 28.0696 19.1598 28.0499 19.2347 28.05L19.2351 29.75C20.219 29.75 20.8322 28.6824 20.3363 27.8324L18.8675 28.6892ZM18.1641 27.4835L18.8675 28.6892L20.3363 27.8324L19.6325 26.6267L18.1641 27.4835ZM17.7013 23.8V25.7703H19.4013V23.8H17.7013ZM18.1263 24.225C18.0135 24.225 17.9054 24.1802 17.8257 24.1005C17.746 24.0208 17.7013 23.9127 17.7013 23.8H19.4013C19.4013 23.4619 19.2669 23.1376 19.0278 22.8985C18.7887 22.6594 18.4644 22.525 18.1263 22.525V24.225ZM15.5763 24.225H18.1263V22.525H15.5763V24.225ZM19.6325 26.6267C19.4808 26.3668 19.4013 26.0713 19.4013 25.7703H17.7013C17.7014 26.3722 17.8612 26.9636 18.1645 27.4835L19.6325 26.6267ZM14.3013 26.2795C14.3013 26.5805 14.2213 26.8762 14.0696 27.1363L15.538 27.9926C15.8413 27.4728 16.0012 26.8813 16.0013 26.2795H14.3013Z" fill="#F2994A"/>
<path fill-rule="evenodd" clip-rule="evenodd" d="M27.149 23.375L27.2994 23.2942C29.5566 22.0864 30.4228 19.2877 29.2417 17.0161C28.9287 16.4127 28.4876 15.885 27.9494 15.4699C27.4111 15.0548 26.7887 14.7622 26.1256 14.6128L26.2756 14.2766C27.3224 11.9297 26.2786 9.17828 23.939 8.11578C23.0919 7.72949 22.1484 7.60617 21.2304 7.76175C20.8502 6.9648 20.252 6.29184 19.5051 5.82077C18.7582 5.34971 17.8932 5.0998 17.0102 5.09998C16.1271 5.09972 15.262 5.34959 14.515 5.82066C13.7681 6.29173 13.1698 6.96474 12.7895 7.76175C11.8715 7.60608 10.9278 7.72941 10.0806 8.11578C7.74094 9.17828 6.69757 11.9297 7.74392 14.2766L7.89394 14.6123C7.2308 14.7618 6.60834 15.0545 6.07009 15.4697C5.53184 15.8849 5.09081 16.4127 4.77784 17.0161C3.59719 19.2877 4.46334 22.0864 6.72009 23.2942L6.87097 23.375H27.149Z" fill="#219653"/>
<path d="M27.149 23.375V24.225C27.2888 24.2249 27.4265 24.1903 27.5498 24.1243L27.149 23.375ZM26.1256 14.6128L25.3495 14.2664C25.2983 14.3812 25.2732 14.5059 25.276 14.6316C25.2788 14.7572 25.3095 14.8807 25.3657 14.9931C25.422 15.1055 25.5025 15.204 25.6014 15.2815C25.7003 15.3591 25.8152 15.4137 25.9377 15.4415L26.1256 14.6128ZM21.2304 7.76178L20.4633 8.12813C20.5429 8.29482 20.6747 8.43103 20.8386 8.51615C21.0026 8.60127 21.1898 8.63066 21.372 8.59988L21.2304 7.76178ZM12.7895 7.76178L12.6476 8.59988C12.8297 8.63066 13.0169 8.60127 13.1809 8.51615C13.3448 8.43103 13.4766 8.29482 13.5562 8.12813L12.7895 7.76178ZM7.89393 14.6124L8.08178 15.4415C8.20439 15.4138 8.31931 15.3592 8.41827 15.2816C8.51722 15.2041 8.59775 15.1056 8.65405 14.9932C8.71035 14.8808 8.74102 14.7573 8.74385 14.6316C8.74668 14.506 8.72159 14.3812 8.67041 14.2664L7.89393 14.6124ZM6.87096 23.375L6.46976 24.1247C6.59301 24.1906 6.73113 24.225 6.87096 24.225V23.375ZM26.8982 22.545L26.7478 22.6257L27.5498 24.1243L27.7002 24.0435L26.8982 22.545ZM28.4877 17.408C28.952 18.3011 29.0455 19.3413 28.748 20.3029C28.4504 21.2646 27.7858 22.0701 26.8982 22.545L27.7002 24.0435C30.3684 22.616 31.3918 19.3086 29.9961 16.6243L28.4877 17.408ZM25.9377 15.4415C26.4804 15.5637 26.9898 15.803 27.4303 16.1426C27.8708 16.4823 28.2317 16.9142 28.4877 17.408L29.9965 16.6239C29.6265 15.9109 29.1052 15.2873 28.4691 14.7967C27.833 14.3061 27.0975 13.9603 26.3139 13.7836L25.9377 15.4415ZM25.5 13.9302L25.35 14.266L26.9025 14.9587L27.0525 14.623L25.5 13.9302ZM23.5875 8.88973C24.5072 9.30719 25.2244 10.0715 25.5827 11.0158C25.941 11.9601 25.9113 13.0078 25.5 13.9302L27.0525 14.623C28.2893 11.8494 27.0555 8.59732 24.2904 7.34187L23.5875 8.88973ZM21.372 8.59988C22.1228 8.47251 22.8946 8.57349 23.5875 8.88973L24.2904 7.34187C23.2889 6.88546 22.1736 6.73979 21.0885 6.92368L21.372 8.59988ZM17.0098 5.95C17.7324 5.94977 18.4403 6.15423 19.0515 6.53971C19.6627 6.92519 20.1522 7.47592 20.4633 8.12813L21.9976 7.39542C21.1085 5.53605 19.2091 4.25 17.0093 4.25L17.0098 5.95ZM13.5562 8.12813C13.8673 7.47592 14.3568 6.92519 14.968 6.53971C15.5793 6.15423 16.2871 5.94977 17.0098 5.95L17.0093 4.25C14.8095 4.25 12.9106 5.53605 12.0224 7.395L13.5562 8.12813ZM10.4325 8.88973C11.1252 8.57357 11.8968 8.4726 12.6476 8.59988L12.931 6.92368C11.8459 6.73979 10.7306 6.88546 9.72908 7.34187L10.4325 8.88973ZM8.52038 13.9302C8.10911 13.0078 8.07896 11.9601 8.43725 11.0158C8.79555 10.0715 9.51278 9.30719 10.4325 8.88973L9.72908 7.34187C6.96403 8.59732 5.73068 11.8494 6.96786 14.6226L8.52038 13.9302ZM8.67041 14.2664L8.52038 13.9302L6.96786 14.623L7.11746 14.9587L8.67041 14.2664ZM5.53221 17.408C5.78827 16.9142 6.14917 16.4823 6.58965 16.1426C7.03013 15.803 7.53912 15.5637 8.08178 15.4415L7.70566 13.784C6.92216 13.9608 6.18672 14.3065 5.55071 14.797C4.9147 15.2875 4.39348 15.911 4.02346 16.6239L5.53221 17.408ZM7.12128 22.545C6.2337 22.0701 5.5695 21.2646 5.27195 20.3029C4.97439 19.3413 5.06791 18.3011 5.53221 17.408L4.02346 16.6239C2.62818 19.3086 3.65158 22.6164 6.31931 24.044L7.12128 22.545ZM7.27216 22.6257L7.12128 22.545L6.31931 24.044L6.46976 24.1247L7.27216 22.6257ZM6.87096 24.225H27.149V22.525H6.87096V24.225Z" fill="#219653"/>
</svg>
