<svg width="36" height="36" viewBox="0 0 36 36" fill="none" xmlns="http://www.w3.org/2000/svg">
<path d="M18.3 13.4998L15.3 10.4998H19.5C21.15 10.4998 22.5 11.8498 22.5 13.4998V17.6998L19.5 14.6998V13.4998H18.3ZM34.5 13.4998V10.4998H28.5C26.85 10.4998 25.5 11.8498 25.5 13.4998V16.4998C25.5 18.1498 26.85 19.4998 28.5 19.4998H31.5V22.4998H27.3L30.3 25.4998H31.5C33.15 25.4998 34.5 24.1498 34.5 22.4998V19.4998C34.5 17.8498 33.15 16.4998 31.5 16.4998H28.5V13.4998H34.5ZM33.15 32.2498L31.2 34.1998L21.6 24.5998C21.15 25.0498 20.4 25.4998 19.5 25.4998H13.5V16.3498L10.5 13.3498V25.4998H7.5V19.4998H4.5V25.4998H1.5V13.4998C1.5 11.8498 2.85 10.4998 4.5 10.4998H7.65L1.65 4.4998L3.6 2.5498L33.15 32.2498ZM7.5 13.4998H4.5V16.4998H7.5V13.4998ZM19.5 22.3498L16.5 19.3498V22.4998H19.5V22.3498Z" fill="black"/>
</svg>
