<svg width="50" height="50" viewBox="0 0 50 50" fill="none" xmlns="http://www.w3.org/2000/svg">
<path d="M27.7064 6.55859L45.6939 37.7128C45.9681 38.1878 46.1125 38.7267 46.1125 39.2752C46.1125 39.8238 45.9682 40.3627 45.6939 40.8377C45.4196 41.3128 45.0251 41.7073 44.5501 41.9816C44.075 42.2558 43.5362 42.4002 42.9876 42.4003H7.01262C6.46407 42.4002 5.92519 42.2558 5.45014 41.9816C4.97509 41.7073 4.58061 41.3128 4.30635 40.8377C4.03208 40.3627 3.88769 39.8238 3.8877 39.2752C3.8877 38.7267 4.03209 38.1878 4.30637 37.7128L22.2939 6.55859C23.496 4.47526 26.5022 4.47526 27.7064 6.55859ZM25.0001 31.2503C24.4476 31.2503 23.9177 31.4698 23.527 31.8605C23.1363 32.2512 22.9168 32.7811 22.9168 33.3336C22.9168 33.8861 23.1363 34.416 23.527 34.8067C23.9177 35.1974 24.4476 35.4169 25.0001 35.4169C25.5527 35.4169 26.0826 35.1974 26.4733 34.8067C26.864 34.416 27.0835 33.8861 27.0835 33.3336C27.0835 32.7811 26.864 32.2512 26.4733 31.8605C26.0826 31.4698 25.5527 31.2503 25.0001 31.2503ZM25.0001 16.6669C24.4898 16.667 23.9973 16.8543 23.616 17.1934C23.2347 17.5325 22.9911 17.9997 22.9314 18.5065L22.9168 18.7503V27.0836C22.9174 27.6146 23.1207 28.1253 23.4852 28.5114C23.8497 28.8976 24.3479 29.1299 24.878 29.161C25.4081 29.1922 25.9301 29.0197 26.3373 28.6789C26.7445 28.3381 27.0062 27.8546 27.0689 27.3273L27.0835 27.0836V18.7503C27.0835 18.1977 26.864 17.6678 26.4733 17.2771C26.0826 16.8864 25.5527 16.6669 25.0001 16.6669Z" fill="#FF5858"/>
</svg>
