<svg width="31" height="31" viewBox="0 0 31 31" fill="none" xmlns="http://www.w3.org/2000/svg">
<path d="M8.39567 25.8332C6.43664 25.8332 4.76307 25.155 3.37496 23.7988C1.98685 22.4425 1.29237 20.7849 1.2915 18.8259C1.2915 17.1467 1.79741 15.6505 2.80921 14.3373C3.82102 13.0241 5.14498 12.1846 6.78109 11.8186C7.31928 9.83803 8.39567 8.23421 10.0103 7.00713C11.6248 5.78005 13.4547 5.1665 15.4998 5.1665C18.0186 5.1665 20.1554 6.04398 21.9104 7.79892C23.6653 9.55386 24.5424 11.6903 24.5415 14.2082C26.0269 14.3804 27.2596 15.0211 28.2395 16.1302C29.2195 17.2393 29.709 18.5361 29.7082 20.0207C29.7082 21.6353 29.1433 23.0079 28.0135 24.1385C26.8837 25.2691 25.5111 25.834 23.8957 25.8332H16.7915C16.0811 25.8332 15.4731 25.5804 14.9677 25.075C14.4622 24.5695 14.209 23.9611 14.2082 23.2498V16.5978L12.1415 18.5998L10.3332 16.7915L15.4998 11.6248L20.6665 16.7915L18.8582 18.5998L16.7915 16.5978V23.2498H23.8957C24.7998 23.2498 25.5641 22.9377 26.1884 22.3134C26.8127 21.6891 27.1248 20.9248 27.1248 20.0207C27.1248 19.1165 26.8127 18.3523 26.1884 17.728C25.5641 17.1037 24.7998 16.7915 23.8957 16.7915H21.9582V14.2082C21.9582 12.4214 21.3283 10.8981 20.0685 9.63825C18.8087 8.37845 17.2858 7.74898 15.4998 7.74984C13.7139 7.7507 12.191 8.3806 10.9312 9.63955C9.67141 10.8985 9.0415 12.4214 9.0415 14.2082H8.39567C7.14706 14.2082 6.08143 14.6495 5.1988 15.5321C4.31616 16.4148 3.87484 17.4804 3.87484 18.729C3.87484 19.9776 4.31616 21.0432 5.1988 21.9259C6.08143 22.8085 7.14706 23.2498 8.39567 23.2498H11.6248V25.8332H8.39567Z" fill="black"/>
</svg>
