<svg width="31" height="31" viewBox="0 0 31 31" fill="none" xmlns="http://www.w3.org/2000/svg">
<path d="M24.5418 5.16683H21.9585V3.87516C21.9585 3.53259 21.8224 3.20405 21.5802 2.96182C21.3379 2.71958 21.0094 2.5835 20.6668 2.5835C20.3243 2.5835 19.9957 2.71958 19.7535 2.96182C19.5112 3.20405 19.3752 3.53259 19.3752 3.87516V5.16683H11.6252V3.87516C11.6252 3.53259 11.4891 3.20405 11.2468 2.96182C11.0046 2.71958 10.6761 2.5835 10.3335 2.5835C9.99093 2.5835 9.66238 2.71958 9.42015 2.96182C9.17792 3.20405 9.04183 3.53259 9.04183 3.87516V5.16683H6.4585C5.43078 5.16683 4.44516 5.57509 3.71846 6.30179C2.99175 7.02849 2.5835 8.01412 2.5835 9.04183V24.5418C2.5835 25.5695 2.99175 26.5552 3.71846 27.2819C4.44516 28.0086 5.43078 28.4168 6.4585 28.4168H24.5418C25.5695 28.4168 26.5552 28.0086 27.2819 27.2819C28.0086 26.5552 28.4168 25.5695 28.4168 24.5418V9.04183C28.4168 8.01412 28.0086 7.02849 27.2819 6.30179C26.5552 5.57509 25.5695 5.16683 24.5418 5.16683ZM25.8335 24.5418C25.8335 24.8844 25.6974 25.2129 25.4552 25.4552C25.2129 25.6974 24.8844 25.8335 24.5418 25.8335H6.4585C6.11593 25.8335 5.78738 25.6974 5.54515 25.4552C5.30292 25.2129 5.16683 24.8844 5.16683 24.5418V15.5002H25.8335V24.5418ZM25.8335 12.9168H5.16683V9.04183C5.16683 8.69926 5.30292 8.37072 5.54515 8.12848C5.78738 7.88625 6.11593 7.75016 6.4585 7.75016H9.04183V9.04183C9.04183 9.3844 9.17792 9.71294 9.42015 9.95518C9.66238 10.1974 9.99093 10.3335 10.3335 10.3335C10.6761 10.3335 11.0046 10.1974 11.2468 9.95518C11.4891 9.71294 11.6252 9.3844 11.6252 9.04183V7.75016H19.3752V9.04183C19.3752 9.3844 19.5112 9.71294 19.7535 9.95518C19.9957 10.1974 20.3243 10.3335 20.6668 10.3335C21.0094 10.3335 21.3379 10.1974 21.5802 9.95518C21.8224 9.71294 21.9585 9.3844 21.9585 9.04183V7.75016H24.5418C24.8844 7.75016 25.2129 7.88625 25.4552 8.12848C25.6974 8.37072 25.8335 8.69926 25.8335 9.04183V12.9168Z" fill="black"/>
</svg>
