<svg width="22" height="22" viewBox="0 0 22 22" fill="none" xmlns="http://www.w3.org/2000/svg">
<path d="M6.225 21.3187C5.74167 21.3187 5.31667 21.1459 4.95 20.8003C4.58333 20.4548 4.35833 20.0104 4.275 19.4674L2.35 7.82622C1.73333 7.95712 1.18767 7.79817 0.713 7.34935C0.238333 6.90054 0.000666667 6.32082 0 5.61019C0 4.99307 0.196 4.46496 0.588 4.02587C0.98 3.58678 1.45067 3.36686 2 3.36612C2.54933 3.36537 3.02033 3.58529 3.413 4.02587C3.80567 4.46646 4.00133 4.99457 4 5.61019C4 5.872 3.96667 6.11511 3.9 6.33952C3.83333 6.56392 3.73333 6.76963 3.6 6.95664C3.96667 7.19975 4.33767 7.40096 4.713 7.56029C5.08833 7.71962 5.484 7.79891 5.9 7.79817C6.63333 7.79817 7.31267 7.59246 7.938 7.18105C8.56333 6.76963 9.05067 6.20861 9.4 5.49799L10.025 4.20764C9.70833 4.00194 9.45833 3.73078 9.275 3.39417C9.09167 3.05756 9 2.67419 9 2.24408C9 1.62696 9.196 1.09885 9.588 0.65976C9.98 0.220669 10.4507 0.000749927 11 1.90176e-06C11.5493 -0.000746124 12.0203 0.219173 12.413 0.65976C12.8057 1.10035 13.0013 1.62845 13 2.24408C13 2.67419 12.9083 3.05756 12.725 3.39417C12.5417 3.73078 12.2917 4.00194 11.975 4.20764L12.6 5.49799C12.95 6.20861 13.4377 6.76963 14.063 7.18105C14.6883 7.59246 15.3673 7.79817 16.1 7.79817C16.5167 7.79817 16.9127 7.72336 17.288 7.57376C17.6633 7.42415 18.034 7.2278 18.4 6.98469C18.2667 6.79768 18.1667 6.58749 18.1 6.3541C18.0333 6.12072 18 5.87275 18 5.61019C18 4.99307 18.196 4.46496 18.588 4.02587C18.98 3.58678 19.4507 3.36686 20 3.36612C20.5493 3.36537 21.0203 3.58529 21.413 4.02587C21.8057 4.46646 22.0013 4.99457 22 5.61019C22 6.32082 21.7627 6.90054 21.288 7.34935C20.8133 7.79817 20.2673 7.95712 19.65 7.82622L17.725 19.4674C17.6417 20.0097 17.4167 20.454 17.05 20.8003C16.6833 21.1467 16.2583 21.3195 15.775 21.3187H6.225Z" fill="black"/>
</svg>
