<svg width="40" height="40" viewBox="0 0 40 40" fill="none" xmlns="http://www.w3.org/2000/svg">
<path d="M10 33.333C9.52782 33.333 9.13227 33.173 8.81338 32.853C8.49449 32.533 8.33449 32.1375 8.33338 31.6663C8.33227 31.1952 8.49227 30.7997 8.81338 30.4797C9.13449 30.1597 9.53004 29.9997 10 29.9997H30C30.4723 29.9997 30.8684 30.1597 31.1884 30.4797C31.5084 30.7997 31.6678 31.1952 31.6667 31.6663C31.6656 32.1375 31.5056 32.5336 31.1867 32.8547C30.8678 33.1758 30.4723 33.3352 30 33.333H10ZM11.1667 27.4997C10.3612 27.4997 9.64616 27.2358 9.02171 26.708C8.39727 26.1802 8.01504 25.5136 7.87504 24.708L6.20838 14.1247C6.15282 14.1247 6.0906 14.1319 6.02171 14.1463C5.95282 14.1608 5.89004 14.1675 5.83338 14.1663C5.13893 14.1663 4.54893 13.9236 4.06338 13.438C3.57782 12.9525 3.33449 12.3619 3.33338 11.6663C3.33227 10.9708 3.5756 10.3808 4.06338 9.89635C4.55116 9.4119 5.14116 9.16857 5.83338 9.16635C6.5256 9.16412 7.11616 9.40746 7.60504 9.89635C8.09393 10.3852 8.33671 10.9752 8.33338 11.6663C8.33338 11.8608 8.31227 12.0413 8.27004 12.208C8.22782 12.3747 8.17949 12.5275 8.12504 12.6663L13.3334 14.9997L18.5417 7.87468C18.2362 7.65246 17.9862 7.36079 17.7917 6.99968C17.5973 6.63857 17.5 6.24968 17.5 5.83301C17.5 5.13857 17.7434 4.54801 18.23 4.06134C18.7167 3.57468 19.3067 3.3319 20 3.33301C20.6934 3.33412 21.2839 3.57746 21.7717 4.06301C22.2595 4.54857 22.5023 5.13857 22.5 5.83301C22.5 6.24968 22.4028 6.63857 22.2084 6.99968C22.0139 7.36079 21.7639 7.65246 21.4584 7.87468L26.6667 14.9997L31.875 12.6663C31.8195 12.5275 31.7706 12.3747 31.7284 12.208C31.6862 12.0413 31.6656 11.8608 31.6667 11.6663C31.6667 10.9719 31.91 10.3813 32.3967 9.89468C32.8834 9.40801 33.4734 9.16523 34.1667 9.16635C34.86 9.16746 35.4506 9.41079 35.9384 9.89635C36.4262 10.3819 36.6689 10.9719 36.6667 11.6663C36.6645 12.3608 36.4217 12.9513 35.9384 13.438C35.455 13.9247 34.8645 14.1675 34.1667 14.1663C34.1112 14.1663 34.0489 14.1597 33.98 14.1463C33.9112 14.133 33.8484 14.1258 33.7917 14.1247L32.125 24.708C31.9862 25.5136 31.6045 26.1802 30.98 26.708C30.3556 27.2358 29.64 27.4997 28.8334 27.4997H11.1667Z" fill="#111111"/>
</svg>
