<svg width="36" height="36" viewBox="0 0 36 36" fill="none" xmlns="http://www.w3.org/2000/svg">
<path d="M9.75 1.5C11.875 1.5 13.5315 2.444 14.7195 4.332C15.9075 6.22 16.501 8.276 16.5 10.5C16.5 11.525 16.3935 12.5 16.1805 13.425C15.9675 14.35 15.724 15.175 15.45 15.9L4.7625 18.0375C4.3875 17.3125 4 16.3065 3.6 15.0195C3.2 13.7325 3 12.226 3 10.5C3 7.925 3.6375 5.781 4.9125 4.068C6.1875 2.355 7.8 1.499 9.75 1.5ZM11.8125 27C10.0375 27 8.6565 26.3815 7.6695 25.1445C6.6825 23.9075 6.126 22.476 6 20.85L15.675 18.9C15.875 19.325 16.0625 19.8065 16.2375 20.3445C16.4125 20.8825 16.5 21.4385 16.5 22.0125C16.5 23.4375 16.056 24.625 15.168 25.575C14.28 26.525 13.1605 27 11.8125 27ZM26.25 9C28.2 9 29.8125 9.8565 31.0875 11.5695C32.3625 13.2825 33 15.426 33 18C33 19.725 32.8 21.2315 32.4 22.5195C32 23.8075 31.6125 24.8135 31.2375 25.5375L20.55 23.4C20.275 22.675 20.0315 21.85 19.8195 20.925C19.6075 20 19.501 19.025 19.5 18C19.5 15.775 20.094 13.719 21.282 11.832C22.47 9.945 24.126 9.001 26.25 9ZM24.1875 34.5C22.8375 34.5 21.7185 34.025 20.8305 33.075C19.9425 32.125 19.499 30.9375 19.5 29.5125C19.5 28.9375 19.5875 28.3815 19.7625 27.8445C19.9375 27.3075 20.125 26.826 20.325 26.4L29.9625 28.35C29.8375 29.975 29.2875 31.4065 28.3125 32.6445C27.3375 33.8825 25.9625 34.501 24.1875 34.5Z" fill="#2C3930"/>
</svg>
