<svg width="24" height="24" viewBox="0 0 24 24" fill="none" xmlns="http://www.w3.org/2000/svg">
<g clip-path="url(#clip0_1087_27017)">
<path d="M5.04 7.68C2.27016 7.68 0 9.9432 0 12.7056C0 13.776 0.34176 14.7708 0.9204 15.5885L4.42512 21.647C4.91592 22.2883 5.24232 22.1666 5.65056 21.6134L9.516 15.035C9.594 14.8934 9.6552 14.7432 9.70872 14.5896C9.95382 13.9917 10.0799 13.3518 10.08 12.7056C10.08 9.9432 7.81056 7.68 5.04 7.68ZM5.04 10.0349C6.53184 10.0349 7.7184 11.2183 7.7184 12.7058C7.7184 14.1934 6.5316 15.3763 5.04 15.3763C3.5484 15.3763 2.3616 14.1931 2.3616 12.7058C2.3616 11.2186 3.54864 10.0349 5.04 10.0349ZM21.06 0C19.4443 0 18.12 1.32024 18.12 2.93184C18.12 3.55608 18.3192 4.1364 18.6569 4.61328L20.7014 8.14752C20.9878 8.52144 21.1781 8.4504 21.4162 8.12784L23.671 4.29024C23.7166 4.20792 23.7523 4.12032 23.7833 4.03056C23.9267 3.68203 24.0003 3.30873 24 2.93184C24 1.32 22.6762 0 21.06 0ZM21.06 1.37376C21.9302 1.37376 22.6224 2.064 22.6224 2.93184C22.6224 3.79968 21.9302 4.48944 21.06 4.48944C20.1898 4.48944 19.4976 3.79944 19.4976 2.93184C19.4976 2.06424 20.19 1.37376 21.06 1.37376Z" fill="#010101"/>
<path fill-rule="evenodd" clip-rule="evenodd" d="M21.1702 8.97852C20.6309 8.99052 20.0902 9.01332 19.5485 9.0534L19.632 10.3811C20.1524 10.3434 20.6736 10.3191 21.1952 10.3084L21.1702 8.97852ZM18.2962 9.17532C17.4634 9.27876 16.6234 9.42612 15.793 9.663L16.1057 10.9496C16.8603 10.7346 17.6422 10.5956 18.4364 10.497L18.2962 9.17532ZM14.5496 10.1084C14.3007 10.2182 14.0598 10.3452 13.8286 10.4884L13.8276 10.4896L13.8262 10.49C13.4962 10.6979 13.1484 10.9616 12.8645 11.3449C12.6588 11.6226 12.4906 11.9737 12.4512 12.3889L13.674 12.5245C13.6832 12.4271 13.7331 12.2984 13.8228 12.1775C13.9676 11.9816 14.185 11.8033 14.443 11.6406L14.444 11.6401C14.628 11.5268 14.8195 11.4261 15.0171 11.3387L14.5496 10.1084ZM13.92 13.1168L13.1273 14.1332C13.3152 14.3051 13.5123 14.4371 13.7026 14.5475L13.705 14.5487L13.7074 14.5501C14.3391 14.9094 14.9904 15.1122 15.5943 15.3047L15.9413 14.0284C15.3377 13.8359 14.7687 13.6501 14.281 13.3732C14.1413 13.292 14.0189 13.2073 13.92 13.1168ZM17.1204 14.3874L16.7816 15.6659L16.9419 15.7158L17.1387 15.7787C17.79 15.9906 18.414 16.2169 18.9718 16.5301L19.5377 15.3493C18.8633 14.9704 18.1632 14.7227 17.4886 14.5033L17.4867 14.5028L17.2846 14.4383L17.1204 14.3874ZM20.6885 16.2354L19.819 17.1762C20.0244 17.3987 20.1783 17.6663 20.2532 17.9428L20.2536 17.9442L20.2541 17.9464C20.3434 18.2692 20.3436 18.6488 20.2738 19.0324L21.4796 19.2896C21.578 18.7482 21.5938 18.1537 21.432 17.5669C21.2912 17.048 21.0224 16.5973 20.6885 16.2354ZM19.8528 19.834C19.7198 19.9741 19.573 20.1005 19.4146 20.2112C18.9826 20.5151 18.481 20.744 17.9487 20.9408L18.3456 22.1994C18.9279 21.9841 19.5257 21.7201 20.0844 21.327L20.0859 21.3258C20.3153 21.1651 20.5282 20.9807 20.72 20.7764L19.8528 19.834ZM16.8192 21.2953C16.0481 21.5027 15.26 21.6606 14.4622 21.7945L14.6504 23.1095C15.4714 22.9715 16.2958 22.8066 17.1152 22.5863L16.8192 21.2953ZM13.262 21.976C12.4589 22.0856 11.6516 22.1752 10.8418 22.2515L10.9479 23.5768C11.7701 23.4995 12.5938 23.4085 13.4163 23.296L13.262 21.976ZM9.62476 22.3559C8.81332 22.4202 7.99996 22.4725 7.18588 22.5167L7.24732 23.8453C8.06932 23.8009 8.89204 23.7479 9.71452 23.6826L9.62476 22.3559ZM5.9626 22.5767C5.47468 22.5995 4.98556 22.6182 4.49524 22.6355L4.53556 23.9653C5.02894 23.9484 5.52223 23.9287 6.0154 23.9063L5.9626 22.5767Z" fill="#010101"/>
</g>
<defs>
<clipPath id="clip0_1087_27017">
<rect width="24" height="24" fill="white"/>
</clipPath>
</defs>
</svg>
