<svg width="24" height="24" viewBox="0 0 24 24" fill="none" xmlns="http://www.w3.org/2000/svg">
<path d="M12.5819 23.2604L12.5939 23.2584C12.6019 23.2598 12.6073 23.2658 12.6099 23.2764L12.6269 23.7034L12.6229 23.7204L12.6109 23.7364L12.5069 23.8104L12.4949 23.8144L12.4799 23.8104L12.3759 23.7364L12.3659 23.7234L12.3609 23.7034L12.3779 23.2754L12.3819 23.2654C12.3873 23.2588 12.3953 23.2568 12.4059 23.2594L12.4769 23.2954L12.4909 23.2994L12.5109 23.2954L12.5819 23.2604Z" fill="#89986D" fill-opacity="0.6"/>
<path d="M12.8439 23.1474L12.8579 23.1454C12.8679 23.1474 12.8746 23.1548 12.8779 23.1674L12.9119 23.7814L12.9079 23.7954C12.9013 23.8041 12.8916 23.8068 12.8789 23.8034L12.6779 23.7114L12.6699 23.7034L12.6649 23.6914L12.6469 23.2614L12.6499 23.2504L12.6599 23.2404L12.8439 23.1474Z" fill="#89986D" fill-opacity="0.6"/>
<path d="M12.1282 23.145C12.1333 23.1439 12.1385 23.1448 12.1429 23.1474L12.3269 23.2394L12.3369 23.2494L12.3399 23.2614L12.3219 23.6914L12.3189 23.7024L12.3089 23.7104L12.1079 23.8034L12.0929 23.8054C12.0823 23.8014 12.0766 23.7934 12.0759 23.7814L12.1099 23.1674L12.1159 23.1534C12.1188 23.1491 12.1232 23.1461 12.1282 23.145Z" fill="#89986D" fill-opacity="0.6"/>
<path fill-rule="evenodd" clip-rule="evenodd" d="M6.35603 3.23515C6.51686 3.0997 6.71628 3.01838 6.92597 3.00276C7.13565 2.98714 7.34492 3.03802 7.52403 3.14815C10.98 5.27515 12.874 7.96615 13.884 10.9282C14.134 11.6612 14.329 12.4082 14.48 13.1642C15.509 11.4342 17.153 10.0622 19.629 9.07215C19.8036 9.00243 19.9943 8.98334 20.1793 9.01706C20.3642 9.05078 20.5359 9.13594 20.6746 9.26279C20.8134 9.38963 20.9136 9.55302 20.9637 9.7342C21.0138 9.91539 21.0119 10.107 20.958 10.2872L20.777 10.8912C19.417 15.4192 19 16.8062 19 20.0002C19 20.2654 18.8947 20.5197 18.7071 20.7073C18.5196 20.8948 18.2653 21.0002 18 21.0002H6.00003C5.73482 21.0002 5.48046 20.8948 5.29293 20.7073C5.10539 20.5197 5.00003 20.2654 5.00003 20.0002C5.00003 16.1362 4.52804 13.7452 3.05104 9.31615C2.99092 9.13528 2.98375 8.941 3.03037 8.75619C3.07699 8.57138 3.17545 8.40375 3.31415 8.27303C3.45286 8.1423 3.62604 8.05395 3.81328 8.01836C4.00053 7.98277 4.19404 8.00143 4.37103 8.07215C5.76603 8.62915 6.82603 9.37315 7.62603 10.2522C7.35948 8.23418 6.83729 6.25832 6.07203 4.37215C5.99373 4.17685 5.97903 3.96183 6.03002 3.75769C6.08101 3.55355 6.1951 3.3707 6.35603 3.23515Z" fill="#B1C38D" fill-opacity="0.6"/>
</svg>
