<svg width="36" height="36" viewBox="0 0 36 36" fill="none" xmlns="http://www.w3.org/2000/svg">
<path d="M25.9444 11.0912C25.3333 7.16667 22.2199 3.00009 18 3C13.78 3 10.6667 7.16667 10.2274 11.0912C8.83333 12.8958 7 14.7777 7 18.1042C7 20.9452 7.61111 23.5809 10.0556 25.3958C12.5 27.2108 14.3333 28 18 28C21.6667 28 24.1111 26.9583 25.9444 25.3958C27.7778 23.8333 29 21.8542 29 18.1042C29 14.3542 26.963 11.8664 25.9444 11.0912Z" fill="#869C39"/>
<path d="M16.5 32C16.4931 32.3978 16.6451 32.7794 16.9266 33.0607C17.2077 33.342 17.5953 33.5 18 33.5C18.4047 33.5 18.7923 33.342 19.0734 33.0607C19.3549 32.7794 19.5069 32.3978 19.5 32C19.4937 31.6333 19.4875 31.2667 19.4813 30.9C19.3687 24.3 19.2563 17.7 19.1437 11.1C19.1375 10.7333 19.1313 10.3667 19.125 10C19.1199 9.70667 18.997 9.42536 18.7861 9.21795C18.575 9.01054 18.2933 8.89401 18 8.89401C17.7067 8.89401 17.425 9.01054 17.2139 9.21795C17.003 9.42536 16.8801 9.70667 16.875 10C16.8687 10.3667 16.8625 10.7333 16.8563 11.1C16.7437 17.7 16.6313 24.3 16.5187 30.9C16.5125 31.2667 16.5063 31.6333 16.5 32Z" fill="#793705"/>
<path d="M18 22.977L23 17" stroke="#793705" stroke-width="2" stroke-linecap="round"/>
<path d="M18 22.977L13 17" stroke="#793705" stroke-width="2" stroke-linecap="round"/>
</svg>
