<svg width="30" height="30" viewBox="0 0 30 30" fill="none" xmlns="http://www.w3.org/2000/svg">
<path fill-rule="evenodd" clip-rule="evenodd" d="M13.7441 20.625C13.6446 20.625 13.5492 20.6645 13.4789 20.7348C13.4086 20.8052 13.3691 20.9005 13.3691 21V23.1877C13.3691 23.5861 13.2634 23.9773 13.0627 24.3214L12.7042 24.9364C12.6711 24.9934 12.6535 25.0581 12.6533 25.124C12.6531 25.1899 12.6704 25.2547 12.7032 25.3119C12.7361 25.369 12.7834 25.4165 12.8405 25.4496C12.8975 25.4826 12.9623 25.5 13.0282 25.5H16.9725C17.0384 25.5 17.1033 25.4826 17.1604 25.4496C17.2175 25.4165 17.2649 25.369 17.2977 25.3118C17.3306 25.2546 17.3478 25.1897 17.3476 25.1237C17.3473 25.0577 17.3297 24.993 17.2965 24.936L16.6758 23.8721C16.475 23.5281 16.3692 23.1369 16.3691 22.7385V21C16.3691 20.9005 16.3296 20.8052 16.2593 20.7348C16.1889 20.6645 16.0935 20.625 15.9941 20.625H13.7441Z" fill="#F2994A"/>
<path d="M14.119 21C14.119 21.0995 14.0795 21.1948 14.0091 21.2652C13.9388 21.3355 13.8434 21.375 13.744 21.375V19.875C13.4456 19.875 13.1594 19.9935 12.9485 20.2045C12.7375 20.4155 12.619 20.7016 12.619 21H14.119ZM14.119 23.1877V21H12.619V23.1877H14.119ZM13.3517 25.314L13.7102 24.6994L12.4146 23.9437L12.0561 24.558L13.3517 25.314ZM13.0277 24.75C13.0937 24.75 13.1585 24.7674 13.2156 24.8004C13.2727 24.8335 13.3201 24.881 13.353 24.9382C13.3859 24.9954 13.403 25.0603 13.4028 25.1263C13.4026 25.1923 13.385 25.257 13.3517 25.314L12.0561 24.558C11.6188 25.308 12.1592 26.25 13.0277 26.25V24.75ZM13.744 24.75H13.0277V26.25H13.744V24.75ZM15.994 24.75H13.744V26.25H15.994V24.75ZM16.972 24.75H15.994V26.25H16.9723L16.972 24.75ZM16.648 25.314C16.6147 25.257 16.5971 25.1922 16.5969 25.1262C16.5966 25.0602 16.6139 24.9953 16.6468 24.938C16.6797 24.8808 16.7271 24.8333 16.7843 24.8003C16.8415 24.7673 16.906 24.7499 16.972 24.75L16.9723 26.25C17.8405 26.25 18.3816 25.308 17.944 24.558L16.648 25.314ZM16.0273 24.2501L16.648 25.314L17.944 24.558L17.323 23.4941L16.0273 24.2501ZM15.619 21V22.7385H17.119V21H15.619ZM15.994 21.375C15.8945 21.375 15.7991 21.3355 15.7288 21.2652C15.6585 21.1948 15.619 21.0995 15.619 21H17.119C17.119 20.7016 17.0004 20.4155 16.7895 20.2045C16.5785 19.9935 16.2923 19.875 15.994 19.875V21.375ZM13.744 21.375H15.994V19.875H13.744V21.375ZM17.323 23.4941C17.1892 23.2648 17.119 23.004 17.119 22.7385H15.619C15.6191 23.2695 15.7601 23.7914 16.0277 24.2501L17.323 23.4941ZM12.619 23.1877C12.619 23.4534 12.5485 23.7143 12.4146 23.9437L13.7102 24.6994C13.9778 24.2407 14.1189 23.7188 14.119 23.1877H12.619Z" fill="#F2994A"/>
<path fill-rule="evenodd" clip-rule="evenodd" d="M23.9554 20.625L24.0881 20.5538C26.0798 19.488 26.844 17.0186 25.8019 15.0142C25.5257 14.4819 25.1365 14.0162 24.6616 13.6499C24.1867 13.2836 23.6375 13.0255 23.0524 12.8936L23.1848 12.597C24.1084 10.5262 23.1874 8.0985 21.123 7.161C20.3756 6.82016 19.5431 6.71135 18.7331 6.84863C18.3976 6.14543 17.8698 5.55165 17.2108 5.136C16.5518 4.72035 15.7885 4.49984 15.0094 4.5C14.2302 4.49977 13.4668 4.72025 12.8078 5.1359C12.1487 5.55155 11.6208 6.14538 11.2853 6.84863C10.4752 6.71127 9.64256 6.82009 8.895 7.161C6.83063 8.0985 5.91 10.5262 6.83325 12.597L6.96563 12.8932C6.3805 13.0252 5.83127 13.2834 5.35634 13.6497C4.88142 14.0161 4.49227 14.4818 4.21612 15.0142C3.17437 17.0186 3.93862 19.488 5.92987 20.5538L6.063 20.625H23.9554Z" fill="#219653"/>
<path d="M23.9552 20.625V21.375C24.0786 21.3749 24.2 21.3444 24.3088 21.2861L23.9552 20.625ZM23.0522 12.8936L22.3674 12.588C22.3223 12.6893 22.3001 12.7993 22.3026 12.9102C22.3051 13.0211 22.3321 13.13 22.3817 13.2292C22.4314 13.3283 22.5024 13.4153 22.5896 13.4837C22.6769 13.5521 22.7783 13.6003 22.8864 13.6249L23.0522 12.8936ZM18.7329 6.84863L18.0561 7.17188C18.1263 7.31896 18.2426 7.43914 18.3872 7.51425C18.5319 7.58936 18.6971 7.61529 18.8578 7.58813L18.7329 6.84863ZM11.2851 6.84863L11.1598 7.58813C11.3205 7.61529 11.4857 7.58936 11.6304 7.51425C11.775 7.43914 11.8913 7.31896 11.9616 7.17188L11.2851 6.84863ZM6.96543 12.8932L7.13118 13.6249C7.23936 13.6004 7.34076 13.5522 7.42808 13.4838C7.51539 13.4154 7.58645 13.3285 7.63612 13.2293C7.6858 13.1301 7.71286 13.0212 7.71536 12.9103C7.71785 12.7994 7.69572 12.6893 7.65055 12.588L6.96543 12.8932ZM6.0628 20.625L5.7088 21.2865C5.81755 21.3446 5.93943 21.375 6.0628 21.375V20.625ZM23.7339 19.8926L23.6012 19.9639L24.3088 21.2861L24.4416 21.2149L23.7339 19.8926ZM25.1364 15.36C25.5461 16.1481 25.6286 17.0659 25.3661 17.9144C25.1035 18.7629 24.5171 19.4737 23.7339 19.8926L24.4416 21.2149C26.7958 19.9552 27.6988 17.037 26.4673 14.6685L25.1364 15.36ZM22.8864 13.6249C23.3653 13.7327 23.8147 13.9438 24.2034 14.2435C24.592 14.5432 24.9105 14.9243 25.1364 15.36L26.4677 14.6681C26.1412 14.039 25.6812 13.4888 25.12 13.0559C24.5587 12.623 23.9097 12.318 23.2183 12.162L22.8864 13.6249ZM22.5002 12.2914L22.3678 12.5876L23.7377 13.1989L23.8701 12.9026L22.5002 12.2914ZM20.8127 7.84387C21.6242 8.21223 22.257 8.88658 22.5732 9.71979C22.8893 10.553 22.8631 11.4774 22.5002 12.2914L23.8701 12.9026C24.9613 10.4554 23.8727 7.58587 21.4329 6.47812L20.8127 7.84387ZM18.8578 7.58813C19.5203 7.47575 20.2014 7.56484 20.8127 7.84387L21.4329 6.47812C20.5493 6.07541 19.5651 5.94687 18.6077 6.10913L18.8578 7.58813ZM15.0088 5.25C15.6464 5.24979 16.271 5.4302 16.8103 5.77033C17.3496 6.11046 17.7815 6.5964 18.0561 7.17188L19.4098 6.52537C18.6253 4.88475 16.9494 3.75 15.0084 3.75L15.0088 5.25ZM11.9616 7.17188C12.2361 6.5964 12.668 6.11046 13.2073 5.77033C13.7466 5.4302 14.3712 5.24979 15.0088 5.25L15.0084 3.75C13.0674 3.75 11.3919 4.88475 10.6082 6.525L11.9616 7.17188ZM9.2053 7.84387C9.81652 7.56492 10.4974 7.47582 11.1598 7.58813L11.4099 6.10913C10.4525 5.94687 9.46835 6.07541 8.58468 6.47812L9.2053 7.84387ZM7.51818 12.2914C7.15529 11.4774 7.12869 10.553 7.44483 9.71979C7.76097 8.88658 8.39382 8.21223 9.2053 7.84387L8.58468 6.47812C6.14493 7.58587 5.05668 10.4554 6.1483 12.9022L7.51818 12.2914ZM7.65055 12.588L7.51818 12.2914L6.1483 12.9026L6.2803 13.1989L7.65055 12.588ZM4.88155 15.36C5.10749 14.9243 5.42593 14.5432 5.81459 14.2435C6.20325 13.9438 6.65235 13.7327 7.13118 13.6249L6.7993 12.1624C6.10799 12.3183 5.45906 12.6234 4.89788 13.0562C4.3367 13.489 3.87679 14.0391 3.5503 14.6681L4.88155 15.36ZM6.28368 19.8926C5.50052 19.4737 4.91446 18.7629 4.65191 17.9144C4.38937 17.0659 4.47188 16.1481 4.88155 15.36L3.5503 14.6681C2.31918 17.037 3.22218 19.9556 5.57605 21.2153L6.28368 19.8926ZM6.4168 19.9639L6.28368 19.8926L5.57605 21.2153L5.7088 21.2865L6.4168 19.9639ZM6.0628 21.375H23.9552V19.875H6.0628V21.375Z" fill="#219653"/>
</svg>
