<svg width="52" height="52" viewBox="0 0 52 52" fill="none" xmlns="http://www.w3.org/2000/svg">
<path d="M5.90411 45.5C5.50689 45.5 5.14578 45.4011 4.82078 45.2032C4.49578 45.0053 4.243 44.7431 4.06244 44.4167C3.88189 44.0902 3.78294 43.7378 3.76561 43.3593C3.74828 42.9809 3.84722 42.6111 4.06244 42.25L24.1041 7.58333C24.3208 7.22222 24.601 6.95139 24.9448 6.77083C25.2886 6.59028 25.6403 6.5 25.9999 6.5C26.3596 6.5 26.7121 6.59028 27.0573 6.77083C27.4025 6.95139 27.682 7.22222 27.8958 7.58333L47.9374 42.25C48.1541 42.6111 48.2538 42.9816 48.2364 43.3615C48.2191 43.7414 48.1194 44.0931 47.9374 44.4167C47.7554 44.7402 47.5027 45.0024 47.1791 45.2032C46.8556 45.4039 46.4944 45.5029 46.0958 45.5H5.90411ZM9.64161 41.1667H42.3583L25.9999 13L9.64161 41.1667ZM27.5448 38.3782C27.9593 37.9622 28.1666 37.4472 28.1666 36.8333C28.1666 36.2194 27.9586 35.7052 27.5426 35.2907C27.1266 34.8761 26.6124 34.6681 25.9999 34.6667C25.3875 34.6652 24.8733 34.8732 24.4573 35.2907C24.0413 35.7081 23.8333 36.2223 23.8333 36.8333C23.8333 37.4443 24.0413 37.9593 24.4573 38.3782C24.8733 38.7971 25.3875 39.0043 25.9999 39C26.6124 38.9957 27.1273 38.7898 27.5448 38.3782ZM27.5448 31.876C27.9593 31.4614 28.1666 30.9472 28.1666 30.3333V23.8333C28.1666 23.2194 27.9586 22.7052 27.5426 22.2907C27.1266 21.8761 26.6124 21.6681 25.9999 21.6667C25.3875 21.6652 24.8733 21.8732 24.4573 22.2907C24.0413 22.7081 23.8333 23.2223 23.8333 23.8333V30.3333C23.8333 30.9472 24.0413 31.4622 24.4573 31.8782C24.8733 32.2942 25.3875 32.5014 25.9999 32.5C26.6124 32.4986 27.1273 32.2906 27.5448 31.876Z" fill="black"/>
</svg>
